<svg width="236" height="236" viewBox="0 0 236 236" fill="none" xmlns="http://www.w3.org/2000/svg">
    <path opacity="0.5"
        d="M58.7168 194.152C96.5051 212.159 157.771 212.159 195.559 194.152C233.347 176.146 233.343 146.952 195.559 128.932C157.775 110.911 96.5051 110.92 58.7168 128.932C20.9285 146.943 20.9332 176.141 58.7168 194.152Z"
        fill="#EBEBEB" />
    <path
        d="M181.172 160.456C195.593 160.456 207.284 154.884 207.284 148.01C207.284 141.136 195.593 135.563 181.172 135.563C166.752 135.563 155.061 141.136 155.061 148.01C155.061 154.884 166.752 160.456 181.172 160.456Z"
        fill="#E0E0E0" />
    <path
        d="M141.685 197.556C134.709 200.883 123.4 200.883 116.424 197.556C109.447 194.228 109.447 188.842 116.424 185.515C123.4 182.187 134.709 182.211 141.685 185.515C148.661 188.819 148.68 194.233 141.685 197.556Z"
        fill="#E0E0E0" />
    <path
        d="M47.8608 155.094L51.6982 152.881C51.6982 152.881 53.723 143.851 50.707 132.382C47.6909 120.912 38.9919 112.336 34.456 114.134C29.9201 115.933 30.0381 119.326 32.5397 122.767C34.6165 125.599 41.3519 132.49 44.5898 140.429C46.5188 145.092 47.6255 150.054 47.8608 155.094Z"
        fill="#6E00D9" />
    <path opacity="0.1"
        d="M47.8608 155.094L51.6982 152.881C51.6982 152.881 53.723 143.851 50.707 132.382C47.6909 120.912 38.9919 112.336 34.456 114.134C29.9201 115.933 30.0381 119.326 32.5397 122.767C34.6165 125.599 41.3519 132.49 44.5898 140.429C46.5188 145.092 47.6255 150.054 47.8608 155.094Z"
        fill="black" />
    <path
        d="M49.9046 154.15H49.8715C49.8105 154.141 49.7555 154.108 49.7184 154.059C49.6814 154.009 49.6652 153.947 49.6733 153.886C52.2929 135.006 40.592 119.742 35.2678 116.556C35.237 116.542 35.2093 116.523 35.1867 116.498C35.1641 116.473 35.1471 116.443 35.1368 116.411C35.1265 116.379 35.1232 116.345 35.1271 116.312C35.1309 116.279 35.1418 116.246 35.1591 116.218C35.1764 116.189 35.1997 116.164 35.2274 116.145C35.255 116.126 35.2864 116.113 35.3195 116.107C35.3526 116.101 35.3866 116.102 35.4192 116.11C35.4518 116.118 35.4823 116.134 35.5086 116.154C40.913 119.383 52.7932 134.85 50.1406 153.952C50.1306 154.008 50.1016 154.058 50.0584 154.094C50.0153 154.13 49.9609 154.15 49.9046 154.15Z"
        fill="white" />
    <path
        d="M47.8608 155.094L42.1118 158.398C40.9111 157.798 39.6104 157.424 38.2745 157.294C35.8295 156.987 34.2011 154.627 34.4418 152.867C34.6023 151.677 34.9846 150.323 34.8006 149.119C34.6401 148.043 33.597 147.075 32.6246 146.698C31.7971 146.439 30.9332 146.316 30.0664 146.334C28.6834 146.268 27.2344 146.112 26.0686 145.39C24.9027 144.668 24.0437 143.224 24.4213 141.888C24.6752 141.197 25.0874 140.574 25.6249 140.071C26.1602 139.566 26.5943 138.964 26.904 138.296C27.4138 136.965 26.5122 136.115 25.4408 135.497C21.6648 133.326 19.9656 131.612 21.325 129.97C22.6843 128.327 26.4178 127.61 30.2458 129.621C34.0737 131.631 37.2502 129.474 39.7754 129.899C43.7308 130.56 43.9621 133.354 43.4712 135.78C42.9803 138.206 47.875 139.24 49.088 142.152C49.999 144.267 50.7447 151.215 47.8608 155.094Z"
        fill="#6E00D9" />
    <path
        d="M45.9445 156.435C45.8835 156.435 45.8248 156.411 45.7808 156.369C45.7369 156.327 45.7109 156.269 45.7085 156.208C45.2365 142.733 27.966 130.98 23.8926 130.305C23.8619 130.3 23.8324 130.29 23.8059 130.274C23.7793 130.258 23.7561 130.237 23.7377 130.212C23.7193 130.187 23.706 130.158 23.6985 130.128C23.6911 130.098 23.6897 130.067 23.6944 130.036C23.7059 129.974 23.7409 129.92 23.7921 129.884C23.8432 129.848 23.9063 129.833 23.9682 129.842C28.2586 130.55 45.7038 142.214 46.1805 156.19C46.1817 156.221 46.1769 156.251 46.1662 156.281C46.1555 156.31 46.1391 156.336 46.1181 156.359C46.097 156.382 46.0717 156.4 46.0435 156.413C46.0154 156.426 45.9849 156.434 45.9539 156.435H45.9445Z"
        fill="white" />
    <path
        d="M120.011 180.776C119.822 178.416 118 174.385 115.291 171.515C112.581 168.646 108.277 167.267 105.615 168.419C103.137 169.495 103.684 172.818 106.955 174.786C110.226 176.755 115.097 179.162 116.768 182.886L119.997 187.356L120.011 180.776Z"
        fill="#6E00D9" />
    <path opacity="0.1"
        d="M120.011 180.776C119.822 178.416 118 174.385 115.291 171.515C112.581 168.646 108.277 167.267 105.615 168.419C103.137 169.495 103.684 172.818 106.955 174.786C110.226 176.755 115.097 179.162 116.768 182.886L119.997 187.356L120.011 180.776Z"
        fill="black" />
    <path
        d="M120.011 185.1H120.058C120.1 185.094 120.14 185.08 120.177 185.058C120.213 185.037 120.245 185.008 120.27 184.975C120.296 184.941 120.314 184.902 120.325 184.862C120.335 184.821 120.338 184.778 120.332 184.736C119.156 175.99 110.269 169.906 106.733 169.236C106.692 169.227 106.649 169.227 106.608 169.236C106.566 169.244 106.527 169.261 106.491 169.284C106.456 169.308 106.426 169.339 106.403 169.374C106.38 169.409 106.364 169.449 106.356 169.49C106.348 169.532 106.348 169.575 106.356 169.616C106.364 169.658 106.381 169.697 106.405 169.732C106.428 169.767 106.459 169.798 106.494 169.821C106.529 169.844 106.569 169.86 106.611 169.868C109.915 170.496 118.571 176.514 119.69 184.821C119.701 184.898 119.74 184.969 119.799 185.02C119.857 185.071 119.933 185.099 120.011 185.1Z"
        fill="white" />
    <path
        d="M119.661 190.546C119.189 189.248 117.377 187.186 114.606 185.59C111.543 183.82 107.8 183.193 106.828 181.706C105.662 179.912 107.097 178.02 110.103 178.147C113.11 178.274 118.684 181.923 120.015 187.979L119.661 190.546Z"
        fill="#6E00D9" />
    <path
        d="M119.888 189.272H119.949C119.991 189.264 120.032 189.248 120.067 189.224C120.103 189.201 120.134 189.17 120.157 189.135C120.181 189.099 120.198 189.059 120.206 189.017C120.214 188.975 120.213 188.932 120.204 188.89C119.312 184.406 112.813 179.761 108.612 179.568C108.527 179.567 108.445 179.599 108.383 179.655C108.32 179.712 108.28 179.79 108.272 179.874C108.269 179.961 108.301 180.044 108.359 180.108C108.417 180.171 108.498 180.209 108.584 180.214C112.482 180.394 118.746 184.864 119.572 189.017C119.587 189.09 119.627 189.155 119.684 189.201C119.742 189.247 119.814 189.273 119.888 189.272Z"
        fill="white" />
    <path
        d="M43.7355 158.592C43.4631 158.409 43.2512 158.15 43.1268 157.846C43.0024 157.543 42.9711 157.209 43.037 156.888L59.7741 82.8124C59.9755 82.0961 60.43 81.4773 61.0532 81.0707L160.645 23.5811C160.95 23.4201 161.288 23.3332 161.632 23.3274C161.977 23.3217 162.318 23.3973 162.628 23.5481C162.896 23.7319 163.104 23.9907 163.225 24.2921C163.347 24.5935 163.377 24.9241 163.312 25.2426L146.57 99.3182C146.368 100.036 145.912 100.655 145.286 101.06L45.7179 158.549C45.4141 158.712 45.0763 158.801 44.7318 158.808C44.3873 158.815 44.046 158.741 43.7355 158.592Z"
        fill="#F0F0F0" />
    <path
        d="M61.6904 83.9074L44.9533 158.011C44.8117 158.644 45.1515 158.899 45.7179 158.573L145.31 101.084C145.935 100.678 146.392 100.059 146.594 99.3418L163.312 25.2426C163.454 24.6054 163.114 24.3552 162.547 24.6809L62.9554 82.1705C62.3387 82.5787 61.8897 83.1953 61.6904 83.9074Z"
        fill="#E6E6E6" />
    <path
        d="M164.525 24.6431C164.215 24.493 163.874 24.4183 163.529 24.4248C163.185 24.4314 162.847 24.5191 162.543 24.6809L62.9506 82.1705C62.6617 82.3575 62.4294 82.6199 62.2789 82.9294C62.1283 83.2388 62.0652 83.5836 62.0963 83.9263L75.2038 175.678C75.2677 176.026 75.4004 176.358 75.5941 176.654C75.7879 176.949 76.0386 177.204 76.3318 177.401C76.6408 177.552 76.9813 177.628 77.3252 177.621C77.6691 177.615 78.0065 177.526 78.3095 177.363L177.883 119.888C178.172 119.701 178.405 119.437 178.556 119.127C178.706 118.817 178.769 118.471 178.737 118.127L165.672 26.3659C165.606 26.0165 165.471 25.684 165.273 25.388C165.076 25.0921 164.822 24.8388 164.525 24.6431Z"
        fill="#F0F0F0" />
    <path
        d="M64.0315 85.0355L77.1201 176.788C77.1227 176.924 77.1631 177.058 77.2369 177.173C77.3107 177.288 77.4149 177.381 77.5381 177.441C77.6613 177.5 77.7985 177.525 77.9347 177.511C78.0709 177.497 78.2006 177.446 78.3095 177.363L177.883 119.888C178.172 119.701 178.405 119.437 178.556 119.127C178.706 118.817 178.769 118.471 178.737 118.127L165.672 26.3659C165.67 26.2287 165.63 26.0947 165.557 25.9787C165.484 25.8628 165.379 25.7695 165.256 25.7094C165.133 25.6492 164.995 25.6244 164.859 25.6378C164.722 25.6512 164.592 25.7023 164.483 25.7854L64.8906 83.275C64.6 83.4618 64.3663 83.7247 64.2148 84.0351C64.0634 84.3455 64 84.6916 64.0315 85.0355Z"
        fill="#FAFAFA" />
    <path
        d="M45.043 157.596L70.531 142.874L71.272 148.208L59.5853 154.958C59.5853 154.958 56.4701 156.062 55.2334 156.374C53.9968 156.685 45.043 157.596 45.043 157.596Z"
        fill="#E0E0E0" />
    <path d="M71.2862 148.213L75.1094 175.022L59.5994 154.962L71.2862 148.213Z" fill="#E6E6E6" />
    <path
        d="M74.6515 175.914L60.7511 157.86C60.5204 157.591 60.2287 157.381 59.9003 157.247C59.5719 157.113 59.2163 157.06 58.8631 157.091L45.8642 158.979C45.1322 159.057 44.3931 158.923 43.7355 158.592C43.2069 158.29 43.2966 157.941 43.9338 157.818L58.8726 154.943C59.2228 154.891 59.5808 154.93 59.9116 155.056C60.2424 155.183 60.5349 155.393 60.7606 155.666L76.5867 177C76.9738 177.524 76.8605 177.699 76.3318 177.392C75.6946 176.995 75.127 176.496 74.6515 175.914Z"
        fill="#E0E0E0" />
    <path
        d="M163.336 24.8791C163.334 24.6132 163.267 24.3517 163.14 24.1179C163.013 23.8841 162.831 23.6852 162.609 23.5386C162.298 23.39 161.957 23.316 161.613 23.3226C161.269 23.3292 160.931 23.4161 160.626 23.5764L61.0343 81.066C60.7307 81.2563 60.4663 81.503 60.2555 81.7929C60.0216 82.0943 59.8499 82.4393 59.7505 82.8077L57.3905 93.2719L59.3068 94.3717L160.952 35.7021L163.312 25.2426C163.334 25.1228 163.344 25.0009 163.34 24.8791H163.336Z"
        fill="#6E00D9" />
    <path opacity="0.2"
        d="M163.312 25.2426C163.454 24.6054 163.114 24.3552 162.547 24.6809L62.9554 82.1705C62.3334 82.5762 61.8791 83.1931 61.6762 83.9074L59.3162 94.3717L160.952 35.7021L163.312 25.2426Z"
        fill="black" />
    <path opacity="0.1"
        d="M62.1907 82.8974C61.9564 83.1961 61.7861 83.54 61.6904 83.9074L59.3304 94.3717L57.4141 93.2672L59.7741 82.803C59.8735 82.4346 60.0452 82.0896 60.2791 81.7882L62.1907 82.8974Z"
        fill="black" />
    <path opacity="0.4"
        d="M163.336 24.8744C163.288 24.5204 162.982 24.4024 162.543 24.6809L62.9506 82.1658C62.6448 82.3552 62.38 82.604 62.1718 82.8974L60.2555 81.7882C60.4663 81.4983 60.7307 81.2516 61.0343 81.0613L160.626 23.5717C160.931 23.4113 161.269 23.3244 161.613 23.3179C161.957 23.3113 162.298 23.3853 162.609 23.5339C162.831 23.6805 163.013 23.8794 163.14 24.1132C163.267 24.347 163.334 24.6085 163.336 24.8744Z"
        fill="white" />
    <path
        d="M165.771 27.2438L165.672 26.3659C165.665 26.323 165.655 26.2804 165.644 26.2385C165.646 26.226 165.646 26.2132 165.644 26.2007C165.483 25.5656 165.095 25.0114 164.553 24.6431C164.243 24.493 163.902 24.4183 163.558 24.4248C163.213 24.4314 162.875 24.5191 162.571 24.6809L62.979 82.1705C62.6775 82.3572 62.4391 82.6302 62.2946 82.954C62.1471 83.2555 62.0882 83.5927 62.1246 83.9263L64.0126 97.0715L65.929 98.1807L167.527 39.5158L165.771 27.2438Z"
        fill="#6E00D9" />
    <path opacity="0.1"
        d="M65.9101 98.176L63.9938 97.0668L62.1058 83.9216C62.0693 83.5879 62.1282 83.2508 62.2757 82.9493L64.1967 84.0538C64.0459 84.3542 63.9852 84.6919 64.0221 85.0261L65.9101 98.176Z"
        fill="black" />
    <path opacity="0.4"
        d="M165.615 26.2007C165.588 26.0818 165.532 25.9716 165.451 25.8803C165.37 25.7889 165.268 25.7194 165.153 25.678C165.038 25.6366 164.915 25.6248 164.795 25.6435C164.674 25.6623 164.56 25.7111 164.464 25.7854L64.8717 83.275C64.5691 83.4603 64.3303 83.7337 64.1873 84.0585L62.304 82.954C62.4497 82.6297 62.6877 82.3555 62.9884 82.1658L162.58 24.6809C162.885 24.5191 163.223 24.4314 163.567 24.4248C163.912 24.4183 164.253 24.493 164.563 24.6431C165.092 25.0167 165.466 25.5706 165.615 26.2007Z"
        fill="white" />
    <path
        d="M92.3468 161.584L91.1574 153.225C91.1557 153.117 91.1241 153.01 91.0662 152.918C91.0082 152.826 90.9261 152.751 90.8287 152.703C90.7313 152.654 90.6224 152.633 90.5139 152.642C90.4054 152.651 90.3015 152.689 90.2134 152.753L81.5333 157.766C81.2994 157.916 81.1116 158.127 80.9908 158.377C80.87 158.627 80.8208 158.906 80.8489 159.182L82.0336 167.56C82.0336 167.67 82.0641 167.777 82.1217 167.87C82.1793 167.963 82.2617 168.039 82.3597 168.088C82.4578 168.137 82.5675 168.157 82.6766 168.148C82.7857 168.138 82.89 168.098 82.9776 168.032L91.6577 163.019C91.8959 162.869 92.087 162.655 92.2089 162.401C92.3308 162.147 92.3786 161.864 92.3468 161.584Z"
        fill="#6E00D9" />
    <path
        d="M105.77 153.844L104.576 145.489C104.576 145.38 104.546 145.272 104.488 145.179C104.431 145.086 104.348 145.011 104.25 144.962C104.152 144.913 104.042 144.892 103.933 144.902C103.824 144.912 103.72 144.952 103.632 145.017L94.9522 150.025C94.7187 150.175 94.5313 150.387 94.4105 150.637C94.2897 150.887 94.2403 151.165 94.2678 151.441L95.462 159.8C95.462 159.91 95.4925 160.017 95.5501 160.111C95.6077 160.204 95.6901 160.279 95.7881 160.328C95.8862 160.377 95.9959 160.398 96.105 160.388C96.2141 160.378 96.3184 160.338 96.406 160.272L105.086 155.26C105.32 155.11 105.508 154.899 105.629 154.649C105.75 154.399 105.799 154.12 105.77 153.844Z"
        fill="#EBEBEB" />
    <path
        d="M119.194 146.103L118 137.748C118 137.639 117.969 137.531 117.912 137.438C117.854 137.345 117.772 137.27 117.674 137.221C117.576 137.172 117.466 137.151 117.357 137.161C117.248 137.171 117.144 137.211 117.056 137.276L108.371 142.294C108.138 142.444 107.95 142.655 107.829 142.905C107.709 143.155 107.659 143.434 107.687 143.71L108.881 152.069C108.881 152.179 108.911 152.286 108.969 152.379C109.027 152.472 109.109 152.548 109.207 152.597C109.305 152.646 109.415 152.666 109.524 152.657C109.633 152.647 109.737 152.607 109.825 152.541L118.505 147.528C118.742 147.379 118.932 147.166 119.054 146.914C119.175 146.662 119.224 146.381 119.194 146.103Z"
        fill="#EBEBEB" />
    <path
        d="M132.632 138.367L131.438 130.008C131.438 129.898 131.407 129.791 131.35 129.697C131.292 129.604 131.21 129.529 131.112 129.48C131.014 129.431 130.904 129.41 130.795 129.42C130.686 129.43 130.582 129.47 130.494 129.536L121.776 134.558C121.542 134.707 121.354 134.918 121.233 135.169C121.112 135.419 121.063 135.697 121.092 135.974L122.286 144.328C122.286 144.438 122.316 144.545 122.374 144.638C122.431 144.732 122.514 144.807 122.612 144.856C122.71 144.905 122.82 144.926 122.929 144.916C123.038 144.906 123.142 144.866 123.23 144.8L131.91 139.792C132.152 139.646 132.348 139.435 132.476 139.183C132.603 138.931 132.658 138.648 132.632 138.367Z"
        fill="#EBEBEB" />
    <path
        d="M146.042 130.626L144.847 122.248C144.847 122.138 144.817 122.031 144.759 121.938C144.702 121.845 144.619 121.769 144.521 121.72C144.423 121.671 144.314 121.651 144.204 121.66C144.095 121.67 143.991 121.71 143.903 121.776L135.223 126.789C134.989 126.938 134.801 127.149 134.68 127.399C134.559 127.65 134.51 127.928 134.539 128.205L135.733 136.559C135.733 136.669 135.764 136.776 135.821 136.869C135.879 136.962 135.961 137.038 136.059 137.087C136.157 137.136 136.267 137.156 136.376 137.147C136.485 137.137 136.589 137.097 136.677 137.031L145.376 132.033C145.605 131.881 145.787 131.67 145.905 131.422C146.022 131.174 146.069 130.899 146.042 130.626Z"
        fill="#EBEBEB" />
    <path
        d="M159.465 122.885L158.271 114.526C158.271 114.417 158.241 114.309 158.183 114.216C158.125 114.123 158.043 114.047 157.945 113.998C157.847 113.949 157.737 113.929 157.628 113.938C157.519 113.948 157.415 113.988 157.327 114.054L148.647 119.067C148.413 119.216 148.225 119.427 148.104 119.678C147.983 119.928 147.934 120.206 147.963 120.483L149.152 128.856C149.152 128.966 149.183 129.073 149.24 129.166C149.298 129.259 149.38 129.335 149.478 129.384C149.576 129.433 149.686 129.453 149.795 129.444C149.904 129.434 150.008 129.394 150.096 129.328L158.776 124.315C159.013 124.165 159.203 123.952 159.325 123.699C159.447 123.446 159.496 123.164 159.465 122.885Z"
        fill="#EBEBEB" />
    <path
        d="M172.889 115.168L171.695 106.809C171.695 106.699 171.664 106.592 171.607 106.499C171.549 106.405 171.467 106.33 171.369 106.281C171.271 106.232 171.161 106.211 171.052 106.221C170.943 106.231 170.838 106.271 170.751 106.337L162.071 111.35C161.837 111.499 161.649 111.711 161.528 111.961C161.407 112.211 161.358 112.489 161.386 112.766L162.576 121.125C162.577 121.233 162.609 121.34 162.667 121.432C162.725 121.524 162.807 121.599 162.904 121.647C163.002 121.696 163.111 121.717 163.219 121.708C163.328 121.699 163.432 121.661 163.52 121.597L172.2 116.584C172.435 116.435 172.623 116.224 172.745 115.974C172.867 115.724 172.916 115.445 172.889 115.168Z"
        fill="#EBEBEB" />
    <path
        d="M90.0151 145.23L88.821 136.88C88.8193 136.771 88.7877 136.665 88.7298 136.573C88.6718 136.481 88.5897 136.406 88.4923 136.357C88.3949 136.309 88.286 136.288 88.1775 136.297C88.069 136.306 87.9651 136.344 87.877 136.408L79.1969 141.421C78.963 141.57 78.7752 141.782 78.6544 142.032C78.5336 142.282 78.4844 142.56 78.5125 142.837L79.7019 151.196C79.7036 151.305 79.7352 151.411 79.7931 151.503C79.8511 151.595 79.9332 151.67 80.0306 151.718C80.128 151.767 80.2368 151.788 80.3454 151.779C80.4539 151.77 80.5578 151.732 80.6459 151.668L89.326 146.655C89.5608 146.504 89.7493 146.291 89.8708 146.039C89.9924 145.788 90.0423 145.508 90.0151 145.23Z"
        fill="#6E00D9" />
    <path
        d="M103.439 137.489L102.245 129.13C102.243 129.021 102.211 128.915 102.153 128.822C102.095 128.73 102.013 128.656 101.916 128.607C101.819 128.558 101.71 128.537 101.601 128.546C101.493 128.555 101.389 128.594 101.301 128.658L92.6206 133.67C92.3867 133.82 92.1989 134.032 92.0781 134.282C91.9572 134.532 91.9081 134.81 91.9362 135.086L93.1256 143.446C93.1273 143.554 93.1589 143.661 93.2168 143.753C93.2748 143.845 93.3569 143.919 93.4543 143.968C93.5517 144.017 93.6605 144.038 93.769 144.029C93.8775 144.02 93.9815 143.981 94.0696 143.918L102.75 138.905C102.983 138.754 103.17 138.543 103.292 138.293C103.413 138.043 103.464 137.765 103.439 137.489Z"
        fill="#EBEBEB" />
    <path
        d="M116.862 129.748L115.668 121.389C115.667 121.28 115.635 121.174 115.577 121.082C115.519 120.989 115.437 120.915 115.34 120.866C115.242 120.818 115.133 120.797 115.025 120.806C114.916 120.814 114.812 120.853 114.724 120.917L106.044 125.93C105.81 126.079 105.623 126.291 105.502 126.541C105.381 126.791 105.332 127.069 105.36 127.346L106.549 135.705C106.551 135.814 106.583 135.92 106.64 136.012C106.698 136.104 106.781 136.179 106.878 136.227C106.975 136.276 107.084 136.297 107.193 136.288C107.301 136.279 107.405 136.241 107.493 136.177L116.173 131.164C116.407 131.014 116.594 130.802 116.716 130.552C116.837 130.303 116.888 130.025 116.862 129.748Z"
        fill="#EBEBEB" />
    <path
        d="M130.272 122.007L129.078 113.648C129.076 113.539 129.045 113.433 128.987 113.341C128.929 113.249 128.847 113.174 128.749 113.126C128.652 113.077 128.543 113.056 128.434 113.065C128.326 113.074 128.222 113.112 128.134 113.176L119.463 118.198C119.23 118.348 119.042 118.56 118.921 118.81C118.801 119.06 118.751 119.338 118.779 119.614L119.968 127.973C119.97 128.082 120.002 128.189 120.059 128.281C120.117 128.373 120.2 128.447 120.297 128.496C120.394 128.545 120.503 128.566 120.612 128.557C120.72 128.548 120.824 128.509 120.912 128.445L129.592 123.433C129.826 123.281 130.013 123.067 130.133 122.816C130.252 122.564 130.301 122.284 130.272 122.007Z"
        fill="#EBEBEB" />
    <path
        d="M143.71 114.266L142.516 105.912C142.516 105.803 142.485 105.695 142.428 105.602C142.37 105.509 142.288 105.433 142.19 105.384C142.092 105.335 141.982 105.315 141.873 105.324C141.764 105.334 141.659 105.374 141.572 105.44L132.887 110.448C132.653 110.598 132.466 110.81 132.345 111.06C132.224 111.309 132.175 111.588 132.202 111.864L133.392 120.223C133.394 120.332 133.425 120.438 133.483 120.53C133.541 120.623 133.623 120.697 133.721 120.746C133.818 120.794 133.927 120.815 134.035 120.807C134.144 120.798 134.248 120.759 134.336 120.695L143.016 115.673C143.249 115.524 143.437 115.314 143.559 115.067C143.681 114.819 143.734 114.542 143.71 114.266Z"
        fill="#EBEBEB" />
    <path
        d="M157.134 106.526L155.939 98.176C155.939 98.0664 155.909 97.959 155.851 97.8658C155.794 97.7726 155.711 97.6973 155.613 97.6483C155.515 97.5993 155.406 97.5785 155.296 97.5884C155.187 97.5982 155.083 97.6383 154.995 97.704L146.32 102.721C146.086 102.871 145.898 103.082 145.777 103.332C145.656 103.582 145.607 103.861 145.636 104.137L146.825 112.492C146.827 112.601 146.858 112.707 146.916 112.799C146.974 112.891 147.056 112.966 147.154 113.014C147.251 113.063 147.36 113.084 147.468 113.075C147.577 113.066 147.681 113.028 147.769 112.964L156.449 107.951C156.683 107.8 156.871 107.586 156.992 107.335C157.113 107.083 157.162 106.803 157.134 106.526Z"
        fill="#EBEBEB" />
    <path
        d="M170.557 98.7896L169.363 90.4305C169.363 90.3209 169.333 90.2135 169.275 90.1203C169.217 90.0271 169.135 89.9518 169.037 89.9028C168.939 89.8538 168.829 89.833 168.72 89.8429C168.611 89.8527 168.507 89.8927 168.419 89.9585L159.734 94.9711C159.501 95.1213 159.314 95.3332 159.194 95.5831C159.074 95.8331 159.026 96.1114 159.055 96.3871L160.244 104.742C160.246 104.85 160.277 104.957 160.335 105.049C160.393 105.141 160.475 105.215 160.573 105.264C160.67 105.313 160.779 105.334 160.887 105.325C160.996 105.316 161.1 105.277 161.188 105.214L169.868 100.206C170.101 100.055 170.288 99.843 170.41 99.5935C170.531 99.3439 170.582 99.066 170.557 98.7896Z"
        fill="#EBEBEB" />
    <path
        d="M87.6787 128.856L86.4893 120.497C86.4876 120.388 86.456 120.282 86.3981 120.19C86.3401 120.097 86.258 120.023 86.1606 119.974C86.0632 119.926 85.9544 119.905 85.8459 119.913C85.7374 119.922 85.6334 119.961 85.5453 120.025L76.8558 125.08C76.623 125.231 76.4361 125.443 76.3154 125.692C76.1948 125.942 76.1449 126.22 76.1714 126.496L77.3655 134.85C77.3655 134.96 77.396 135.067 77.4536 135.161C77.5112 135.254 77.5937 135.329 77.6917 135.378C77.7897 135.427 77.8994 135.448 78.0085 135.438C78.1176 135.428 78.2219 135.388 78.3095 135.322L86.9943 130.272C87.2278 130.122 87.4153 129.91 87.5361 129.66C87.6569 129.411 87.7062 129.132 87.6787 128.856Z"
        fill="#6E00D9" />
    <path
        d="M101.102 121.134L99.913 112.775C99.9113 112.666 99.8797 112.56 99.8218 112.468C99.7638 112.375 99.6817 112.301 99.5843 112.252C99.4869 112.204 99.378 112.183 99.2695 112.192C99.161 112.2 99.0571 112.239 98.969 112.303L90.2889 117.316C90.0561 117.466 89.8692 117.678 89.7486 117.928C89.6279 118.178 89.578 118.456 89.6045 118.732L90.7986 127.091C90.8003 127.2 90.8319 127.306 90.8899 127.398C90.9478 127.49 91.03 127.565 91.1273 127.613C91.2247 127.662 91.3336 127.683 91.4421 127.674C91.5506 127.665 91.6545 127.627 91.7426 127.563L100.423 122.55C100.656 122.4 100.843 122.188 100.963 121.938C101.083 121.688 101.131 121.41 101.102 121.134Z"
        fill="#EBEBEB" />
    <path
        d="M114.526 113.393L113.337 105.034C113.335 104.925 113.303 104.819 113.245 104.727C113.187 104.635 113.105 104.56 113.008 104.512C112.911 104.463 112.802 104.442 112.693 104.451C112.585 104.46 112.481 104.498 112.393 104.562L103.713 109.575C103.48 109.726 103.294 109.938 103.173 110.187C103.052 110.437 103.002 110.715 103.028 110.991L104.222 119.35C104.224 119.459 104.256 119.565 104.314 119.657C104.371 119.749 104.454 119.824 104.551 119.873C104.648 119.921 104.757 119.942 104.866 119.933C104.974 119.924 105.078 119.886 105.166 119.822L113.846 114.809C114.079 114.659 114.266 114.447 114.386 114.197C114.506 113.947 114.555 113.669 114.526 113.393Z"
        fill="#EBEBEB" />
    <path
        d="M127.95 105.652L126.76 97.2934C126.759 97.1845 126.727 97.0782 126.669 96.9861C126.611 96.8939 126.529 96.8194 126.432 96.7707C126.334 96.722 126.225 96.701 126.117 96.7099C126.008 96.7189 125.904 96.7574 125.816 96.8214L117.136 101.834C116.904 101.985 116.717 102.197 116.597 102.447C116.476 102.696 116.426 102.974 116.452 103.25L117.646 111.609C117.648 111.718 117.679 111.824 117.737 111.916C117.795 112.009 117.877 112.083 117.975 112.132C118.072 112.18 118.181 112.201 118.289 112.193C118.398 112.184 118.502 112.145 118.59 112.081L127.27 107.068C127.503 106.918 127.69 106.706 127.81 106.456C127.93 106.207 127.978 105.928 127.95 105.652Z"
        fill="#EBEBEB" />
    <path
        d="M141.373 97.9117L140.184 89.5526C140.182 89.4437 140.151 89.3374 140.093 89.2453C140.035 89.1531 139.953 89.0786 139.855 89.0299C139.758 88.9812 139.649 88.9602 139.541 88.9691C139.432 88.9781 139.328 89.0166 139.24 89.0806L130.56 94.0932C130.328 94.2444 130.141 94.4562 130.02 94.7058C129.9 94.9554 129.85 95.2332 129.876 95.5092L131.07 103.868C131.071 103.977 131.103 104.083 131.161 104.176C131.219 104.268 131.301 104.342 131.398 104.391C131.496 104.44 131.605 104.461 131.713 104.452C131.822 104.443 131.926 104.404 132.014 104.34L140.694 99.3277C140.927 99.1775 141.114 98.9656 141.234 98.7157C141.354 98.4657 141.402 98.1875 141.373 97.9117Z"
        fill="#EBEBEB" />
    <path
        d="M154.816 90.152L153.627 81.7929C153.625 81.684 153.593 81.5777 153.535 81.4856C153.477 81.3934 153.395 81.3189 153.298 81.2702C153.2 81.2216 153.092 81.2005 152.983 81.2095C152.875 81.2184 152.771 81.2569 152.683 81.3209L143.96 86.376C143.728 86.5272 143.541 86.739 143.42 86.9886C143.3 87.2382 143.25 87.516 143.276 87.792L144.47 96.1511C144.471 96.26 144.503 96.3663 144.561 96.4584C144.619 96.5506 144.701 96.6251 144.798 96.6738C144.896 96.7225 145.005 96.7435 145.113 96.7345C145.222 96.7256 145.326 96.6871 145.414 96.6231L154.113 91.568C154.35 91.4212 154.542 91.2107 154.667 90.9605C154.791 90.7102 154.843 90.4302 154.816 90.152Z"
        fill="#EBEBEB" />
    <path
        d="M168.221 82.4301L167.031 74.0757C167.03 73.9668 166.998 73.8605 166.94 73.7684C166.882 73.6762 166.8 73.6017 166.703 73.553C166.605 73.5044 166.496 73.4833 166.388 73.4923C166.279 73.5012 166.175 73.5397 166.087 73.6037L157.407 78.6116C157.175 78.7624 156.988 78.9742 156.867 79.2238C156.746 79.4735 156.696 79.7515 156.723 80.0276L157.917 88.3867C157.919 88.4956 157.95 88.6019 158.008 88.694C158.066 88.7862 158.148 88.8607 158.246 88.9094C158.343 88.958 158.452 88.9791 158.56 88.9701C158.669 88.9612 158.773 88.9227 158.861 88.8587L167.56 83.8366C167.788 83.6852 167.971 83.4739 168.087 83.2259C168.204 82.9778 168.25 82.7026 168.221 82.4301Z"
        fill="#EBEBEB" />
    <path
        d="M85.347 112.515L84.1529 104.161C84.1529 104.051 84.1224 103.944 84.0648 103.851C84.0072 103.758 83.9247 103.682 83.8267 103.633C83.7287 103.584 83.619 103.563 83.5099 103.573C83.4008 103.583 83.2965 103.623 83.2089 103.689L74.5288 108.697C74.2953 108.847 74.1078 109.059 73.987 109.308C73.8663 109.558 73.8169 109.837 73.8444 110.113L75.048 118.472C75.048 118.582 75.0785 118.689 75.1361 118.782C75.1937 118.875 75.2761 118.951 75.3741 119C75.4722 119.049 75.5819 119.069 75.691 119.06C75.8001 119.05 75.9044 119.01 75.992 118.944L84.6721 113.931C84.9046 113.781 85.0908 113.569 85.21 113.319C85.3292 113.069 85.3766 112.791 85.347 112.515Z"
        fill="#6E00D9" />
    <path
        d="M98.7707 104.784L97.5766 96.4296C97.5766 96.32 97.5461 96.2126 97.4885 96.1194C97.4308 96.0262 97.3484 95.9509 97.2504 95.9019C97.1524 95.8529 97.0427 95.8321 96.9336 95.842C96.8244 95.8518 96.7202 95.8919 96.6326 95.9576L87.9525 100.97C87.7182 101.119 87.5301 101.331 87.4092 101.581C87.2884 101.831 87.2395 102.11 87.2681 102.386L88.4622 110.741C88.4622 110.85 88.4928 110.958 88.5504 111.051C88.608 111.144 88.6904 111.219 88.7884 111.268C88.8864 111.317 88.9961 111.338 89.1052 111.328C89.2144 111.318 89.3186 111.278 89.4062 111.213L98.0863 106.2C98.3206 106.051 98.5087 105.839 98.6296 105.589C98.7504 105.339 98.7993 105.06 98.7707 104.784Z"
        fill="#EBEBEB" />
    <path
        d="M112.194 97.0385L111 88.6794C111 88.5698 110.97 88.4624 110.912 88.3692C110.855 88.276 110.772 88.2006 110.674 88.1516C110.576 88.1026 110.466 88.0819 110.357 88.0917C110.248 88.1016 110.144 88.1416 110.056 88.2074L101.376 93.22C101.142 93.3692 100.954 93.5807 100.833 93.8308C100.712 94.0809 100.663 94.3597 100.692 94.636L101.886 102.99C101.886 103.1 101.916 103.207 101.974 103.301C102.032 103.394 102.114 103.469 102.212 103.518C102.31 103.567 102.42 103.588 102.529 103.578C102.638 103.568 102.742 103.528 102.83 103.462L111.51 98.4545C111.744 98.3045 111.931 98.0928 112.052 97.8429C112.173 97.5931 112.222 97.3147 112.194 97.0385Z"
        fill="#EBEBEB" />
    <path
        d="M125.618 89.2977L124.424 80.9386C124.424 80.829 124.393 80.7216 124.336 80.6284C124.278 80.5352 124.196 80.4598 124.098 80.4108C124 80.3618 123.89 80.3411 123.781 80.3509C123.672 80.3608 123.568 80.4008 123.48 80.4666L114.8 85.4792C114.566 85.6284 114.377 85.8399 114.257 86.09C114.136 86.3401 114.087 86.6189 114.115 86.8952L115.305 95.2543C115.307 95.3632 115.338 95.4695 115.396 95.5616C115.454 95.6538 115.536 95.7283 115.634 95.777C115.731 95.8256 115.84 95.8467 115.948 95.8377C116.057 95.8288 116.161 95.7903 116.249 95.7263L124.929 90.7137C125.163 90.5643 125.352 90.3529 125.473 90.103C125.595 89.853 125.645 89.5743 125.618 89.2977Z"
        fill="#EBEBEB" />
    <path
        d="M139.042 81.5569L137.848 73.1978C137.848 73.0882 137.817 72.9808 137.759 72.8876C137.702 72.7944 137.619 72.719 137.521 72.67C137.423 72.621 137.314 72.6003 137.205 72.6101C137.095 72.62 136.991 72.66 136.904 72.7258L128.224 77.7384C127.989 77.8876 127.801 78.0991 127.68 78.3492C127.559 78.5993 127.511 78.8781 127.539 79.1544L128.729 87.5135C128.73 87.6224 128.762 87.7287 128.82 87.8208C128.878 87.913 128.96 87.9875 129.057 88.0362C129.155 88.0848 129.263 88.1059 129.372 88.0969C129.48 88.088 129.584 88.0495 129.673 87.9855L138.353 82.9729C138.587 82.8238 138.776 82.6125 138.898 82.3625C139.019 82.1125 139.069 81.8336 139.042 81.5569Z"
        fill="#EBEBEB" />
    <path
        d="M152.456 73.8161L151.262 65.457C151.262 65.3474 151.231 65.24 151.174 65.1468C151.116 65.0536 151.034 64.9783 150.936 64.9293C150.838 64.8802 150.728 64.8595 150.619 64.8693C150.51 64.8792 150.406 64.9192 150.318 64.985L141.638 69.9976C141.404 70.1472 141.216 70.3588 141.095 70.6088C140.974 70.8588 140.925 71.1374 140.953 71.4136L142.148 79.768C142.149 79.8769 142.181 79.9832 142.239 80.0753C142.297 80.1675 142.379 80.242 142.476 80.2906C142.574 80.3393 142.682 80.3604 142.791 80.3514C142.899 80.3425 143.003 80.304 143.092 80.24L151.772 75.2274C152.005 75.0781 152.192 74.8673 152.313 74.6182C152.434 74.3692 152.483 74.0916 152.456 73.8161Z"
        fill="#EBEBEB" />
    <path
        d="M165.889 66.08L164.695 57.7209C164.695 57.6113 164.664 57.5039 164.607 57.4107C164.549 57.3175 164.467 57.2422 164.369 57.1932C164.271 57.1442 164.161 57.1234 164.052 57.1333C163.943 57.1431 163.839 57.1831 163.751 57.2489L155.071 62.2615C154.837 62.4112 154.649 62.6227 154.528 62.8727C154.408 63.1227 154.358 63.4013 154.386 63.6775L155.576 72.0366C155.578 72.1455 155.609 72.2518 155.667 72.344C155.725 72.4361 155.807 72.5106 155.905 72.5593C156.002 72.608 156.111 72.629 156.219 72.6201C156.328 72.6111 156.432 72.5726 156.52 72.5086L165.2 67.496C165.435 67.347 165.624 67.1357 165.745 66.8856C165.867 66.6356 165.917 66.3567 165.889 66.08Z"
        fill="#EBEBEB" />
    <path
        d="M83.2844 97.7418L82.9823 95.6083C82.9823 95.4987 82.9518 95.3913 82.8942 95.2981C82.8366 95.2049 82.7542 95.1296 82.6562 95.0806C82.5582 95.0316 82.4485 95.0109 82.3393 95.0207C82.2302 95.0305 82.126 95.0706 82.0383 95.1363L73.3535 100.158C73.1196 100.308 72.9318 100.52 72.811 100.77C72.6902 101.02 72.6411 101.298 72.6691 101.574L72.9665 103.708C72.9682 103.817 72.9997 103.923 73.0577 104.015C73.1157 104.107 73.1978 104.182 73.2952 104.23C73.3925 104.279 73.5014 104.3 73.6099 104.291C73.7184 104.282 73.8224 104.244 73.9105 104.18L82.6 99.1483C82.8312 98.9983 83.0172 98.788 83.1378 98.5402C83.2584 98.2923 83.3091 98.0163 83.2844 97.7418Z"
        fill="#E6E6E6" />
    <path
        d="M96.7081 90.001L96.406 87.8675C96.406 87.758 96.3755 87.6506 96.3179 87.5573C96.2603 87.4641 96.1779 87.3888 96.0799 87.3398C95.9819 87.2908 95.8721 87.2701 95.763 87.2799C95.6539 87.2898 95.5497 87.3298 95.462 87.3955L86.7772 92.4176C86.5433 92.5672 86.3555 92.7788 86.2347 93.0288C86.1139 93.2788 86.0648 93.5574 86.0928 93.8336L86.3902 95.9671C86.3919 96.0759 86.4234 96.1822 86.4814 96.2744C86.5393 96.3665 86.6215 96.441 86.7189 96.4897C86.8162 96.5384 86.9251 96.5594 87.0336 96.5505C87.1421 96.5415 87.2461 96.503 87.3342 96.439L96.019 91.4264C96.2541 91.2755 96.4429 91.0624 96.5645 90.8109C96.6862 90.5593 96.7358 90.279 96.7081 90.001Z"
        fill="#E6E6E6" />
    <path
        d="M110.132 82.2602L109.83 80.1267C109.828 80.0179 109.796 79.9116 109.738 79.8194C109.681 79.7273 109.598 79.6528 109.501 79.6041C109.404 79.5554 109.295 79.5344 109.186 79.5433C109.078 79.5522 108.974 79.5908 108.886 79.6547L100.201 84.6768C99.967 84.8264 99.7792 85.038 99.6584 85.288C99.5376 85.538 99.4884 85.8166 99.5165 86.0928L99.8138 88.2262C99.8138 88.3358 99.8444 88.4432 99.902 88.5364C99.9596 88.6296 100.042 88.705 100.14 88.754C100.238 88.803 100.348 88.8237 100.457 88.8139C100.566 88.804 100.67 88.764 100.758 88.6982L109.443 83.6856C109.678 83.5347 109.867 83.3216 109.988 83.0701C110.11 82.8185 110.16 82.5382 110.132 82.2602Z"
        fill="#E6E6E6" />
    <path
        d="M123.555 74.5241L123.253 72.3859C123.252 72.2771 123.22 72.1708 123.162 72.0786C123.104 71.9864 123.022 71.912 122.925 71.8633C122.827 71.8146 122.718 71.7936 122.61 71.8025C122.501 71.8114 122.397 71.85 122.309 71.9139L113.625 76.936C113.391 77.0856 113.203 77.2972 113.082 77.5472C112.961 77.7972 112.912 78.0758 112.94 78.352L113.238 80.4854C113.238 80.595 113.268 80.7024 113.326 80.7956C113.383 80.8888 113.466 80.9641 113.564 81.0132C113.662 81.0622 113.771 81.0829 113.881 81.0731C113.99 81.0632 114.094 81.0232 114.182 80.9574L122.866 75.9495C123.101 75.7978 123.289 75.5846 123.41 75.3333C123.532 75.0819 123.582 74.802 123.555 74.5241Z"
        fill="#E6E6E6" />
    <path
        d="M136.979 66.7833L136.677 64.6451C136.675 64.5363 136.644 64.43 136.586 64.3378C136.528 64.2456 136.446 64.1712 136.348 64.1225C136.251 64.0738 136.142 64.0528 136.034 64.0617C135.925 64.0706 135.821 64.1092 135.733 64.1731L127.048 69.1952C126.815 69.3452 126.627 69.5569 126.506 69.8067C126.386 70.0566 126.336 70.335 126.364 70.6112L126.661 72.7446C126.661 72.8542 126.692 72.9616 126.749 73.0548C126.807 73.148 126.889 73.2234 126.987 73.2724C127.085 73.3214 127.195 73.3421 127.304 73.3323C127.413 73.3224 127.518 73.2824 127.605 73.2166L136.29 68.2087C136.524 68.057 136.713 67.8438 136.834 67.5925C136.956 67.3411 137.006 67.0612 136.979 66.7833Z"
        fill="#E6E6E6" />
    <path
        d="M150.403 59.0425L150.101 56.909C150.101 56.7995 150.07 56.6921 150.013 56.5989C149.955 56.5057 149.873 56.4303 149.775 56.3813C149.677 56.3323 149.567 56.3116 149.458 56.3214C149.349 56.3313 149.244 56.3713 149.157 56.437L140.472 61.4544C140.238 61.6044 140.051 61.8161 139.93 62.0659C139.809 62.3158 139.76 62.5942 139.788 62.8704L140.085 65.0086C140.087 65.1174 140.118 65.2237 140.176 65.3159C140.234 65.408 140.316 65.4825 140.414 65.5312C140.511 65.5799 140.62 65.6009 140.728 65.592C140.837 65.5831 140.941 65.5445 141.029 65.4806L149.714 60.4679C149.948 60.3166 150.137 60.1035 150.259 59.852C150.38 59.6006 150.43 59.3205 150.403 59.0425Z"
        fill="#E6E6E6" />
    <path
        d="M163.822 51.3017L163.524 49.1682C163.524 49.0587 163.494 48.9513 163.436 48.8581C163.379 48.7649 163.296 48.6895 163.198 48.6405C163.1 48.5915 162.991 48.5708 162.881 48.5806C162.772 48.5905 162.668 48.6305 162.58 48.6962L153.9 53.7089C153.666 53.8581 153.478 54.0696 153.357 54.3197C153.236 54.5698 153.187 54.8486 153.216 55.1249L153.513 57.2583C153.515 57.3672 153.547 57.4735 153.604 57.5656C153.662 57.6578 153.745 57.7323 153.842 57.781C153.939 57.8296 154.048 57.8507 154.157 57.8417C154.265 57.8328 154.369 57.7943 154.457 57.7303L163.142 52.7177C163.375 52.5671 163.561 52.3552 163.681 52.1053C163.801 51.8555 163.85 51.5774 163.822 51.3017Z"
        fill="#E6E6E6" />
    <path opacity="0.2"
        d="M73.16 85.1394C73.1173 84.5157 73.246 83.8922 73.5322 83.3365C73.8184 82.7807 74.2512 82.3139 74.7837 81.9864C75.841 81.3775 76.8274 81.7976 76.9926 82.9304C77.0364 83.5547 76.9077 84.1791 76.6205 84.7352C76.3333 85.2913 75.8987 85.7577 75.3642 86.0834C74.3117 86.6922 73.3252 86.2722 73.16 85.1394Z"
        fill="black" />
    <path opacity="0.2"
        d="M86.5978 77.408C86.5541 76.7842 86.6824 76.1603 86.9687 75.6044C87.255 75.0485 87.6883 74.5817 88.2215 74.255C89.2788 73.6414 90.2653 74.0615 90.4305 75.199C90.4739 75.8227 90.345 76.4463 90.0578 77.0015C89.7706 77.5568 89.3362 78.0224 88.8021 78.3473C87.7448 78.9373 86.7583 78.5172 86.5978 77.408Z"
        fill="black" />
    <path opacity="0.2"
        d="M100.007 69.6436C99.9636 69.0198 100.092 68.396 100.378 67.84C100.664 67.2841 101.098 66.8173 101.631 66.4906C102.688 65.877 103.68 66.2971 103.84 67.4346C103.883 68.0577 103.755 68.6808 103.469 69.2359C103.182 69.7911 102.749 70.257 102.216 70.5829C101.159 71.1918 100.168 70.7717 100.007 69.6436Z"
        fill="black" />
    <path opacity="0.2"
        d="M126.845 54.1478C126.802 53.524 126.93 52.9002 127.216 52.3442C127.502 51.7883 127.936 51.3216 128.469 50.9949C129.526 50.386 130.513 50.8061 130.673 51.9389C130.719 52.563 130.592 53.1876 130.305 53.744C130.019 54.3003 129.584 54.7667 129.05 55.0918C127.992 55.696 127.006 55.2806 126.845 54.1478Z"
        fill="black" />
    <path opacity="0.2"
        d="M140.278 46.3976C140.234 45.7737 140.361 45.1494 140.648 44.5933C140.934 44.0371 141.368 43.5705 141.902 43.2446C142.959 42.631 143.946 43.0511 144.111 44.1886C144.155 44.813 144.026 45.4373 143.739 45.9934C143.452 46.5495 143.017 47.0159 142.483 47.3416C141.425 47.9458 140.439 47.5257 140.278 46.3976Z"
        fill="black" />
    <path opacity="0.2"
        d="M153.688 38.6521C153.644 38.0283 153.772 37.4044 154.059 36.8485C154.345 36.2925 154.778 35.8258 155.312 35.4991C156.369 34.8855 157.36 35.3056 157.521 36.4431C157.564 37.0662 157.436 37.6893 157.149 38.2444C156.863 38.7995 156.43 39.2654 155.897 39.5914C154.816 40.2002 153.872 39.7802 153.688 38.6521Z"
        fill="black" />
    <path
        d="M71.7723 72.3859C70.3563 71.5599 68.9686 71.4419 67.9114 72.0508C66.8541 72.6597 66.2688 73.9058 66.2688 75.5625C66.278 76.3374 66.3923 77.1075 66.6086 77.8517L67.4488 77.3797C67.298 76.7887 67.2187 76.1818 67.2128 75.5719C67.2128 74.2692 67.6282 73.311 68.3834 72.8768C68.6932 72.7038 69.0433 72.6158 69.3982 72.6219C70.0676 72.6539 70.7177 72.857 71.2862 73.2119C73.7972 74.6657 75.841 78.2057 75.841 81.1038C75.8424 81.3103 75.8313 81.5168 75.8079 81.7221C75.7964 82.1331 75.6877 82.5355 75.4908 82.8965C75.2939 83.2574 75.0144 83.5666 74.6751 83.7989C74.2424 84.0326 73.7432 84.1125 73.2591 84.0254C73.1638 84.3306 73.1239 84.6503 73.1411 84.9694C73.3175 84.9975 73.4959 85.0117 73.6745 85.0119C74.1943 85.0184 74.7063 84.8847 75.1566 84.6249C75.578 84.3606 75.9351 84.0057 76.2021 83.5861C76.4691 83.1664 76.6392 82.6925 76.7 82.1988C76.7636 81.8404 76.7952 81.4771 76.7944 81.1132C76.7991 77.88 74.543 73.986 71.7723 72.3859Z"
        fill="#F5F5F5" />
    <path
        d="M85.2054 64.6357C83.7894 63.8097 82.4018 63.6917 81.3445 64.3006C80.2872 64.9094 79.7019 66.1555 79.7019 67.8122C79.7111 68.5872 79.8255 69.3573 80.0418 70.1014L80.8819 69.6294C80.7311 69.0385 80.6519 68.4315 80.6459 67.8217C80.6459 66.519 81.0613 65.5608 81.8165 65.1266C82.1263 64.9535 82.4765 64.8656 82.8313 64.8717C83.5007 64.9036 84.1508 65.1068 84.7193 65.4617C87.2303 66.9154 89.2741 70.4554 89.2741 73.3535C89.2755 73.5601 89.2645 73.7666 89.241 73.9718C89.2295 74.3828 89.1208 74.7853 88.9239 75.1462C88.7271 75.5072 88.4475 75.8164 88.1082 76.0486C87.6755 76.2823 87.1763 76.3622 86.6922 76.2752C86.5969 76.5803 86.557 76.9 86.5742 77.2192C86.7507 77.2472 86.929 77.2614 87.1076 77.2617C87.6274 77.2682 88.1394 77.1345 88.5897 76.8746C89.0111 76.6104 89.3683 76.2555 89.6353 75.8358C89.9022 75.4161 90.0723 74.9422 90.1331 74.4486C90.1967 74.0902 90.2283 73.7269 90.2275 73.363C90.2322 70.1439 87.9761 66.2358 85.2054 64.6357Z"
        fill="#F5F5F5" />
    <path
        d="M98.615 56.8902C97.199 56.0642 95.8113 55.9462 94.754 56.555C93.6967 57.1639 93.1114 58.41 93.1114 60.0667C93.1207 60.8417 93.235 61.6117 93.4513 62.3559L94.2914 61.8839C94.1406 61.293 94.0614 60.686 94.0554 60.0762C94.0554 58.7734 94.4708 57.8153 95.226 57.381C95.5359 57.208 95.886 57.1201 96.2408 57.1262C96.9102 57.1581 97.5603 57.3612 98.1288 57.7162C100.64 59.1699 102.684 62.7099 102.684 65.608C102.685 65.8146 102.674 66.0211 102.651 66.2263C102.639 66.6373 102.53 67.0398 102.333 67.4007C102.137 67.7617 101.857 68.0709 101.518 68.3031C101.085 68.5368 100.586 68.6167 100.102 68.5297C100.006 68.8348 99.9665 69.1545 99.9838 69.4737C100.16 69.5017 100.339 69.5159 100.517 69.5162C101.037 69.5226 101.549 69.3889 101.999 69.1291C102.421 68.8649 102.778 68.51 103.045 68.0903C103.312 67.6706 103.482 67.1967 103.543 66.703C103.606 66.3447 103.638 65.9814 103.637 65.6174C103.642 62.3984 101.386 58.4902 98.615 56.8902Z"
        fill="#F5F5F5" />
    <path
        d="M125.458 41.418C124.042 40.592 122.654 40.474 121.597 41.0829C120.539 41.6918 119.954 42.9378 119.954 44.5946C119.963 45.3695 120.078 46.1396 120.294 46.8838L121.134 46.4118C120.983 45.8208 120.904 45.2139 120.898 44.604C120.898 43.3013 121.313 42.3431 122.069 41.9089C122.378 41.7359 122.729 41.6479 123.083 41.654C123.753 41.6859 124.403 41.8891 124.971 42.244C127.482 43.6978 129.526 47.2378 129.526 50.1358C129.528 50.3424 129.517 50.5489 129.493 50.7542C129.482 51.1652 129.373 51.5676 129.176 51.9285C128.979 52.2895 128.7 52.5987 128.36 52.831C127.928 53.0647 127.428 53.1446 126.944 53.0575C126.849 53.3626 126.809 53.6823 126.826 54.0015C127.003 54.0295 127.181 54.0437 127.36 54.044C127.88 54.0505 128.392 53.9168 128.842 53.657C129.263 53.3927 129.62 53.0378 129.887 52.6181C130.154 52.1985 130.324 51.7246 130.385 51.2309C130.449 50.8725 130.48 50.5092 130.48 50.1453C130.484 46.9262 128.228 43.0181 125.458 41.418Z"
        fill="#F5F5F5" />
    <path
        d="M138.891 33.663C137.475 32.837 136.087 32.719 135.03 33.3279C133.972 33.9368 133.387 35.1829 133.387 36.8396C133.396 37.6145 133.511 38.3846 133.727 39.1288L134.567 38.6568C134.416 38.0659 134.337 37.4589 134.331 36.849C134.331 35.5463 134.747 34.5882 135.502 34.1539C135.812 33.9809 136.162 33.893 136.517 33.899C137.186 33.931 137.836 34.1341 138.405 34.489C140.916 35.9428 142.959 39.4828 142.959 42.3809C142.961 42.5875 142.95 42.7939 142.926 42.9992C142.915 43.4102 142.806 43.8126 142.609 44.1736C142.412 44.5345 142.133 44.8438 141.794 45.076C141.361 45.3097 140.862 45.3896 140.378 45.3026C140.282 45.6077 140.242 45.9274 140.26 46.2466C140.436 46.2746 140.614 46.2888 140.793 46.289C141.313 46.2955 141.825 46.1618 142.275 45.902C142.696 45.6377 143.054 45.2829 143.321 44.8632C143.588 44.4435 143.758 43.9696 143.818 43.4759C143.882 43.1176 143.914 42.7543 143.913 42.3903C143.918 39.176 141.661 35.2631 138.891 33.663Z"
        fill="#F5F5F5" />
    <path
        d="M152.3 25.9175C150.884 25.0915 149.497 24.9735 148.439 25.5824C147.382 26.1913 146.792 27.4374 146.792 29.0941C146.801 29.869 146.916 30.6391 147.132 31.3833L147.972 30.9113C147.821 30.3203 147.742 29.7134 147.736 29.1035C147.736 27.8008 148.151 26.8426 148.907 26.4084C149.216 26.2354 149.567 26.1474 149.921 26.1535C150.591 26.1855 151.241 26.3886 151.809 26.7435C154.32 28.1973 156.364 31.7373 156.364 34.6354C156.366 34.8419 156.355 35.0484 156.331 35.2537C156.32 35.6647 156.211 36.0671 156.014 36.4281C155.817 36.789 155.538 37.0983 155.198 37.3305C154.766 37.5642 154.266 37.6441 153.782 37.557C153.687 37.8622 153.647 38.1819 153.664 38.501C153.841 38.5291 154.019 38.5433 154.198 38.5435C154.718 38.55 155.229 38.4163 155.68 38.1565C156.101 37.8922 156.458 37.5373 156.725 37.1177C156.992 36.698 157.162 36.2241 157.223 35.7304C157.287 35.3721 157.318 35.0088 157.318 34.6448C157.327 31.4258 155.071 27.5176 152.3 25.9175Z"
        fill="#F5F5F5" />
    <path
        d="M166.248 148.68L163.076 154.188C162.868 154.533 162.804 154.945 162.9 155.336C162.997 155.727 163.244 156.064 163.588 156.272C163.932 156.481 164.345 156.544 164.736 156.448C165.127 156.352 165.464 156.104 165.672 155.76L168.863 150.219C169.17 149.69 168.839 148.921 168.122 148.505C167.404 148.09 166.555 148.166 166.248 148.68Z"
        fill="#455A64" />
    <path
        d="M191.49 138.98L196.999 142.152C197.168 142.257 197.356 142.327 197.553 142.358C197.75 142.39 197.951 142.381 198.144 142.334C198.338 142.287 198.52 142.202 198.68 142.084C198.84 141.965 198.975 141.816 199.077 141.645C199.179 141.474 199.247 141.285 199.275 141.088C199.303 140.891 199.291 140.69 199.241 140.497C199.191 140.304 199.103 140.124 198.982 139.965C198.861 139.807 198.71 139.674 198.537 139.575L192.996 136.408C192.467 136.101 191.698 136.432 191.283 137.149C190.867 137.866 190.962 138.674 191.49 138.98Z"
        fill="#455A64" />
    <path
        d="M197.593 114.148H197.565L184.146 106.403H184.108C181.163 104.727 177.104 104.987 172.625 107.564C163.624 112.756 156.326 125.401 156.326 135.794C156.326 140.986 158.144 144.616 161.075 146.325H161.098L174.517 154.075H174.55C177.496 155.76 181.56 155.491 186.044 152.919C195.04 147.727 202.337 135.082 202.337 124.693C202.337 119.501 200.524 115.857 197.593 114.148Z"
        fill="#6E00D9" />
    <path opacity="0.1"
        d="M174.3 153.919L161.084 146.301H161.056C158.125 144.588 156.312 140.944 156.312 135.771C156.312 131.136 157.766 126.057 160.168 121.394L173.587 129.139C171.18 133.803 169.731 138.881 169.731 143.516C169.741 148.567 171.478 152.163 174.3 153.919Z"
        fill="black" />
    <path opacity="0.4"
        d="M197.566 140.74C203.931 129.716 203.931 117.801 197.567 114.127C191.203 110.453 180.885 116.41 174.52 127.434C168.156 138.458 168.155 150.373 174.519 154.047C180.883 157.721 191.202 151.763 197.566 140.74Z"
        fill="white" />
    <path
        d="M178.761 151.828C173.606 151.828 173.049 146.004 173.049 143.497C173.049 134.331 179.756 122.729 187.681 118.132C189.702 116.966 191.646 116.353 193.308 116.353C198.462 116.353 199.019 122.177 199.019 124.684C199.019 133.85 192.312 145.452 184.387 150.049C182.362 151.215 180.417 151.828 178.761 151.828Z"
        fill="#FAFAFA" />
    <path
        d="M182.428 144.71C182.403 144.715 182.377 144.715 182.352 144.71C182.294 144.689 182.245 144.646 182.218 144.589C182.191 144.533 182.186 144.468 182.206 144.408L185.817 134.095C185.838 134.036 185.881 133.987 185.938 133.959C185.994 133.932 186.06 133.928 186.119 133.949C186.179 133.97 186.227 134.013 186.255 134.07C186.282 134.126 186.286 134.191 186.265 134.251L182.664 144.55C182.648 144.599 182.616 144.642 182.574 144.671C182.531 144.7 182.48 144.714 182.428 144.71Z"
        fill="#6E00D9" />
    <path
        d="M191.453 137.206C191.357 137.207 191.262 137.188 191.174 137.149L185.336 134.624V124.032C185.336 123.844 185.41 123.664 185.543 123.532C185.676 123.399 185.856 123.324 186.044 123.324C186.231 123.324 186.411 123.399 186.544 123.532C186.677 123.664 186.752 123.844 186.752 124.032V133.694L191.736 135.851C191.884 135.917 192.004 136.031 192.078 136.175C192.152 136.319 192.174 136.484 192.141 136.643C192.107 136.801 192.021 136.943 191.896 137.046C191.771 137.148 191.614 137.205 191.453 137.206Z"
        fill="#37474F" />
    <path
        d="M186.044 131.877C187.101 131.263 187.96 131.759 187.96 132.981C187.921 133.643 187.727 134.287 187.394 134.861C187.061 135.435 186.599 135.922 186.044 136.285C184.982 136.899 184.122 136.403 184.122 135.176C184.163 134.514 184.358 133.871 184.691 133.298C185.025 132.726 185.488 132.239 186.044 131.877Z"
        fill="#6E00D9" />
    <path
        d="M170.449 124.278C168.136 128.275 163.779 130.088 160.504 128.195C158.582 127.084 157.181 125.255 156.607 123.111C156.034 120.967 156.336 118.683 157.447 116.761C158.558 114.839 160.387 113.438 162.532 112.865C164.676 112.292 166.96 112.594 168.882 113.705C172.148 115.64 172.752 120.275 170.449 124.278Z"
        fill="#455A64" />
    <path
        d="M160.504 128.195C163.779 130.083 168.136 128.275 170.449 124.278C170.965 123.381 171.349 122.415 171.586 121.408C171.454 121.582 167.602 126.491 162.816 125.108C157.945 123.692 157.03 119.949 157.45 116.759C156.899 117.71 156.541 118.761 156.397 119.85C156.252 120.94 156.324 122.048 156.607 123.11C156.891 124.172 157.381 125.167 158.05 126.04C158.718 126.913 159.552 127.645 160.504 128.195Z"
        fill="#37474F" />
    <path
        d="M159.158 115.947L156.676 114.531C156.506 114.426 156.318 114.356 156.121 114.325C155.925 114.293 155.724 114.302 155.53 114.349C155.337 114.396 155.155 114.481 154.994 114.599C154.834 114.718 154.699 114.867 154.597 115.038C154.495 115.209 154.428 115.398 154.4 115.595C154.372 115.792 154.383 115.993 154.433 116.186C154.484 116.379 154.572 116.559 154.692 116.718C154.813 116.876 154.964 117.009 155.137 117.108L157.648 118.562C158.181 118.868 158.951 118.538 159.366 117.821C159.781 117.103 159.687 116.254 159.158 115.947Z"
        fill="#6E00D9" />
    <path
        d="M196.192 103.972L197.608 101.494C197.712 101.325 197.782 101.136 197.814 100.94C197.845 100.743 197.837 100.542 197.79 100.349C197.742 100.155 197.657 99.973 197.539 99.8128C197.421 99.6526 197.272 99.5175 197.101 99.4154C196.93 99.3133 196.74 99.2463 196.543 99.2182C196.346 99.1901 196.145 99.2015 195.952 99.2518C195.76 99.302 195.579 99.3901 195.421 99.5109C195.262 99.6318 195.13 99.7829 195.03 99.9554L193.577 102.466C193.27 102.995 193.577 103.764 194.318 104.18C195.059 104.595 195.88 104.506 196.192 103.972Z"
        fill="#6E00D9" />
    <path
        d="M184.198 104.996C184.748 104.043 185.481 103.208 186.353 102.538C187.226 101.868 188.223 101.377 189.286 101.092C190.348 100.807 191.457 100.734 192.548 100.878C193.639 101.021 194.691 101.378 195.644 101.928C196.597 102.479 197.432 103.211 198.102 104.084C198.772 104.957 199.264 105.953 199.549 107.016C199.833 108.079 199.906 109.187 199.763 110.278C199.619 111.369 199.262 112.421 198.712 113.374L184.198 104.996Z"
        fill="#455A64" />
    <path
        d="M196.871 102.82C197.343 103.807 198.627 107.984 196.871 109.023C195.115 110.061 187.006 106.615 187.006 106.615L198.712 113.374C199.687 111.677 200.037 109.693 199.7 107.765C199.364 105.837 198.363 104.087 196.871 102.82Z"
        fill="#37474F" />
    <path d="M143.899 126.737C135.544 115.508 132.797 114.257 131.225 113.875L133.982 121.427L139.712 128.776"
        fill="#FFA8A7" />
    <path
        d="M130.409 113.752C130.409 113.752 132.184 113.214 134.751 115.73C137.319 118.245 140.415 121.913 140.415 121.913C140.415 121.913 139.58 124.91 136.97 125.84L133.194 121.913L130.409 113.752Z"
        fill="#6E00D9" />
    <path opacity="0.1"
        d="M130.409 113.752C130.409 113.752 132.184 113.214 134.751 115.73C137.319 118.245 140.415 121.913 140.415 121.913C140.415 121.913 139.58 124.91 136.97 125.84L133.194 121.913L130.409 113.752Z"
        fill="black" />
    <path
        d="M132.036 107.539C134.613 106.931 136.21 104.348 135.601 101.77C134.993 99.1924 132.41 97.596 129.832 98.2044C127.255 98.8128 125.658 101.396 126.267 103.973C126.875 106.551 129.458 108.147 132.036 107.539Z"
        fill="#263238" />
    <path d="M119.454 189.801H122.833V184.019H119.454V189.801Z" fill="#FFA8A7" />
    <path d="M130.47 185.6L133.845 185.718L134.015 179.596L130.635 179.478L130.47 185.6Z" fill="#FFA8A7" />
    <path
        d="M119.671 138.173V161.542C119.591 162.486 118.906 164.077 118.727 168.027C118.5 172.875 119.241 186.213 119.241 186.213C119.241 186.213 120.823 187.785 123.06 186.213C123.06 186.213 126.057 167.173 126.666 162.373C127.195 158.181 128.082 146.797 128.082 146.797L130.102 163.944C130.102 163.944 129.55 167.093 129.432 169.311C129.314 171.53 130.404 183.391 130.404 183.391C130.952 183.733 131.579 183.925 132.224 183.949C132.869 183.973 133.51 183.828 134.081 183.528C134.081 183.528 136.394 165.757 136.743 163.751C137.092 161.745 135.473 138.169 135.473 138.169L119.671 138.173Z"
        fill="#37474F" />
    <path
        d="M122.918 114.833C122.445 114.898 121.979 115.007 121.526 115.159C120.582 115.522 120.171 116.664 119.949 117.67C119.764 118.513 119.67 119.374 119.671 120.237V138.173C122.031 140.75 130.3 141.949 135.473 138.173C135.473 138.173 135.374 122.333 135.001 119.728C134.326 115.206 132.169 113.592 129.989 113.761L124.773 114.507L122.918 114.833Z"
        fill="#6E00D9" />
    <path
        d="M122.644 106.276C122.644 106.276 123.423 109.924 123.735 110.524C123.941 110.891 124.278 111.168 124.679 111.298L124.622 108.725L122.644 106.276Z"
        fill="#263238" />
    <path
        d="M123.622 101.041C123.349 101.01 123.074 101.041 122.816 101.132C122.557 101.223 122.323 101.371 122.13 101.565C121.493 102.221 121.852 104.27 122.644 106.285L124.112 106.45L123.622 101.041Z"
        fill="#263238" />
    <path
        d="M124.551 106.441C124.254 106.62 123.839 106.054 123.475 105.676C123.112 105.298 121.932 104.779 121.342 106.021C120.752 107.262 121.861 108.961 122.791 109.254C124.396 109.754 124.636 108.725 124.636 108.725L124.759 114.512C125.113 115.288 125.654 115.964 126.334 116.48C127.013 116.995 127.81 117.334 128.653 117.467C131.485 117.849 130.909 115.508 129.975 114.356V112.596C130.689 112.71 131.414 112.748 132.136 112.709C133.316 112.525 134.057 111.595 134.416 110.321C134.992 108.267 135.209 106.615 134.723 102.58C134.185 98.1618 129.059 98.1146 126.269 99.861C123.48 101.607 124.551 106.441 124.551 106.441Z"
        fill="#FFA8A7" />
    <path
        d="M124.551 106.936C124.4 106.936 123.839 105.992 123.475 105.676C122.97 105.204 123.622 101.041 123.622 101.041C123.486 100.682 123.459 100.29 123.543 99.9157C123.627 99.5409 123.818 99.1988 124.094 98.9312C124.783 98.1666 125.944 98.0863 127.921 97.7748C128.96 97.6096 130.536 97.3028 131.575 97.1282C132.811 96.8969 133.836 96.6562 134.709 97.4114C135.053 97.7072 135.297 98.103 135.406 98.5437C135.515 98.9844 135.484 99.4481 135.318 99.8705C135.228 100.064 135.108 100.242 134.964 100.399C134.714 100.678 134.671 101.055 134.317 101.168C134.317 101.168 133.567 101.848 131.688 102.075C129.958 102.204 128.22 102.171 126.496 101.976C125.948 101.9 125.802 102.075 125.51 103.514C125.259 104.784 125.047 106.927 124.551 106.936Z"
        fill="#263238" />
    <path
        d="M123.626 101.367L121.852 100.423C121.908 100.303 121.988 100.196 122.086 100.108C122.185 100.021 122.301 99.954 122.426 99.9125C122.552 99.871 122.684 99.8555 122.816 99.8669C122.948 99.8783 123.076 99.9165 123.192 99.979C123.427 100.112 123.603 100.329 123.684 100.587C123.765 100.845 123.744 101.124 123.626 101.367Z"
        fill="#263238" />
    <path
        d="M129.97 112.596C129.97 112.596 127.341 112.067 126.42 111.576C125.879 111.296 125.435 110.858 125.146 110.321C125.286 110.858 125.532 111.361 125.868 111.803C126.543 112.662 129.97 113.299 129.97 113.299V112.596Z"
        fill="#F28F8F" />
    <path
        d="M129.507 106.266C129.504 106.37 129.47 106.47 129.409 106.554C129.349 106.639 129.265 106.704 129.168 106.741C129.071 106.778 128.966 106.786 128.865 106.763C128.763 106.741 128.671 106.689 128.599 106.614C128.527 106.54 128.478 106.446 128.459 106.344C128.44 106.242 128.452 106.136 128.492 106.041C128.533 105.945 128.601 105.864 128.687 105.807C128.774 105.749 128.875 105.719 128.979 105.719C129.05 105.719 129.12 105.734 129.185 105.762C129.25 105.79 129.309 105.83 129.358 105.881C129.407 105.932 129.446 105.993 129.471 106.059C129.497 106.125 129.509 106.195 129.507 106.266Z"
        fill="#263238" />
    <path
        d="M128.946 104.279L127.818 104.897C127.739 104.742 127.722 104.563 127.771 104.396C127.82 104.229 127.931 104.088 128.082 104C128.157 103.96 128.239 103.935 128.323 103.927C128.407 103.92 128.493 103.929 128.573 103.955C128.654 103.981 128.729 104.023 128.793 104.079C128.857 104.135 128.909 104.203 128.946 104.279Z"
        fill="#263238" />
    <path
        d="M129.734 109.428L130.938 109.9C130.912 109.981 130.87 110.056 130.814 110.12C130.758 110.184 130.69 110.236 130.614 110.273C130.538 110.31 130.455 110.332 130.37 110.336C130.285 110.34 130.2 110.327 130.121 110.297C130.038 110.266 129.962 110.219 129.897 110.158C129.833 110.098 129.781 110.025 129.745 109.944C129.709 109.863 129.689 109.776 129.687 109.687C129.686 109.599 129.701 109.511 129.734 109.428Z"
        fill="#F28F8F" />
    <path
        d="M134.208 104.718L133.18 103.925C133.228 103.855 133.29 103.796 133.362 103.751C133.434 103.706 133.514 103.676 133.598 103.663C133.682 103.65 133.768 103.655 133.85 103.676C133.932 103.698 134.009 103.736 134.076 103.788C134.214 103.896 134.304 104.053 134.329 104.227C134.353 104.4 134.31 104.576 134.208 104.718Z"
        fill="#263238" />
    <path
        d="M133.892 106.12C133.894 106.19 133.881 106.26 133.855 106.326C133.829 106.391 133.79 106.451 133.741 106.501C133.692 106.552 133.633 106.592 133.568 106.62C133.504 106.647 133.434 106.662 133.364 106.663C133.254 106.666 133.147 106.637 133.054 106.579C132.961 106.521 132.888 106.437 132.844 106.337C132.8 106.237 132.787 106.126 132.806 106.019C132.825 105.911 132.876 105.812 132.952 105.733C133.029 105.655 133.127 105.601 133.234 105.579C133.341 105.557 133.452 105.567 133.553 105.609C133.654 105.651 133.74 105.721 133.801 105.812C133.861 105.903 133.893 106.01 133.892 106.12Z"
        fill="#263238" />
    <path d="M131.037 105.133L131.211 108.305L132.868 107.743L131.037 105.133Z" fill="#F28F8F" />
    <path
        d="M122.829 188.134V187.662C123.154 187.799 123.905 190.669 125.245 191.91C126.312 192.883 127.766 194.001 128.134 195.087C128.502 196.173 126.109 196.838 125.113 196.659C123.957 196.456 121.951 195.639 121.45 194.884C120.95 194.129 120.709 192.996 120.299 192.463C119.888 191.929 118.949 191.292 118.727 190.65C118.66 190.052 118.726 189.446 118.92 188.876C119.076 188.281 119.246 187.625 119.449 187.681C119.449 187.752 119.449 188.05 119.449 188.05C119.932 188.425 120.527 188.626 121.139 188.621C121.634 188.611 122.833 188.512 122.829 188.134Z"
        fill="#263238" />
    <path
        d="M133.878 184.675C134.057 184.675 134.199 184.93 134.586 185.35C135.165 185.929 135.837 186.407 136.573 186.766C137.838 187.403 140.297 188.375 141.411 188.876C142.105 189.192 142.072 190.032 141.355 190.509C140.637 190.985 138.9 191.33 136.819 190.863C135.681 190.612 134.204 189.56 133.269 189.617C132.335 189.673 130.584 189.664 129.894 189.187C129.205 188.71 129.479 187.696 129.673 186.827C129.885 185.883 130.192 184.415 130.508 184.467V184.769C130.919 185.383 132.986 185.633 133.878 185.184V184.675Z"
        fill="#263238" />
    <path
        d="M128.082 146.792C129.834 146.251 131.446 145.331 132.802 144.097C132.802 144.097 131.896 145.796 129.196 147.377L129.252 156.586L128.082 146.792Z"
        fill="#263238" />
    <path
        d="M121.677 146.65C121.12 146.178 120.771 145.57 119.93 144.951C119.322 144.575 118.812 144.059 118.444 143.446C117.972 142.653 117.5 140.009 117.358 137.498C117.274 134.694 117.668 131.896 118.524 129.224C119.671 126.057 121.998 121.809 122.772 120.015C123.546 118.222 123.131 117.32 122.437 116.409C121.625 115.343 120.119 115.338 118.699 117.769C116.806 121.148 115.295 124.727 114.196 128.441C113.454 131.219 113.178 134.101 113.379 136.97C113.535 139.627 114.115 141.657 114.861 144.21C115.069 144.904 115.045 145.47 115.281 146.844C115.343 147.418 115.489 147.979 115.716 148.51C116.036 149.148 116.444 149.737 116.929 150.261C117.543 150.926 118.323 151.415 119.189 151.677C119.666 151.819 120.169 151.847 120.657 151.757C121.149 151.669 121.592 151.408 121.908 151.021C121.974 150.944 122.02 150.852 122.04 150.752C122.039 150.576 121.969 150.407 121.847 150.28C121.176 149.494 120.546 148.675 119.959 147.826C119.525 147.094 119.317 146.514 119.487 146.547C119.657 146.58 119.879 147.019 120.511 147.415C121.144 147.812 121.927 147.797 122.111 147.443C122.295 147.089 122.248 147.132 121.677 146.65Z"
        fill="#FFA8A7" />
    <path
        d="M121.908 115.05C120.558 115.13 119.331 115.432 117.981 118.109C116.631 120.785 114.512 125.797 114.512 125.797C115.023 126.713 115.773 127.473 116.681 127.997C117.589 128.522 118.622 128.791 119.671 128.776C119.671 128.776 122.777 122.29 123.282 120.582C123.787 118.873 124.136 116.112 121.908 115.05Z"
        fill="#6E00D9" />
    <path opacity="0.1"
        d="M121.908 115.05C120.558 115.13 119.331 115.432 117.981 118.109C116.631 120.785 114.512 125.797 114.512 125.797C115.023 126.713 115.773 127.473 116.681 127.997C117.589 128.522 118.622 128.791 119.671 128.776C119.671 128.776 122.777 122.29 123.282 120.582C123.787 118.873 124.136 116.112 121.908 115.05Z"
        fill="black" />
    <path
        d="M139.712 128.776C139.405 129.673 136.46 132.405 134.293 133.274C133.78 133.451 133.228 133.484 132.698 133.368C132.19 133.155 131.644 133.049 131.093 133.057C130.461 133.113 129.819 133.236 129.182 133.312C129.049 133.316 128.919 133.348 128.799 133.406C128.412 133.618 128.634 133.944 128.941 134.062C129.435 134.24 129.942 134.384 130.456 134.492V134.629C129.138 135.089 127.762 135.366 126.369 135.45C126.121 135.452 125.881 135.535 125.684 135.686C125.604 135.776 125.548 135.884 125.521 136.001C125.493 136.118 125.496 136.24 125.528 136.356C125.594 136.586 125.707 136.799 125.859 136.984C126.428 137.845 127.313 138.447 128.323 138.659C129.343 138.737 130.369 138.609 131.339 138.282C131.808 138.15 132.27 138.003 132.726 137.843C134.062 137.351 135.363 136.769 136.62 136.101C139.312 134.688 141.81 132.932 144.05 130.876C145.409 129.55 145.074 128.275 143.932 126.737"
        fill="#FFA8A7" />
    <path
        d="M133.977 133.359C133.977 133.359 134.449 133.184 134.987 134.048C135.525 134.912 135.865 136.488 135.19 136.8C135.423 136.813 135.655 136.766 135.863 136.662C136.072 136.559 136.25 136.403 136.38 136.21C136.518 135.594 136.48 134.952 136.27 134.358C136.059 133.763 135.685 133.24 135.19 132.849C134.736 132.859 134.302 133.041 133.977 133.359Z"
        fill="#37474F" />
    <path
        d="M136.474 133.675C136.575 133.846 136.623 134.043 136.612 134.241C136.6 134.439 136.531 134.63 136.411 134.788C136.291 134.946 136.127 135.065 135.939 135.13C135.752 135.195 135.549 135.202 135.357 135.152C135.165 135.101 134.993 134.995 134.862 134.846C134.731 134.697 134.647 134.512 134.621 134.315C134.595 134.119 134.628 133.919 134.716 133.741C134.804 133.563 134.943 133.415 135.115 133.316C135.343 133.184 135.614 133.148 135.869 133.215C136.123 133.282 136.341 133.448 136.474 133.675Z"
        fill="#6E00D9" />
    <path
        d="M136.243 133.807C136.316 133.933 136.351 134.078 136.342 134.224C136.332 134.37 136.28 134.509 136.192 134.625C136.103 134.741 135.982 134.828 135.844 134.875C135.705 134.922 135.556 134.927 135.415 134.889C135.275 134.851 135.148 134.772 135.052 134.662C134.956 134.552 134.895 134.416 134.876 134.272C134.858 134.127 134.883 133.98 134.948 133.849C135.013 133.719 135.115 133.61 135.242 133.538C135.325 133.49 135.418 133.459 135.513 133.446C135.608 133.434 135.705 133.44 135.798 133.465C135.891 133.49 135.978 133.533 136.055 133.592C136.131 133.651 136.195 133.724 136.243 133.807Z"
        fill="#FAFAFA" />
</svg>