<svg width="236" height="236" viewBox="0 0 236 236" fill="none" xmlns="http://www.w3.org/2000/svg">
    <path
        d="M156.515 28.6174C156.515 28.6174 120.176 15.694 84.488 36.2685C48.8001 56.843 30.8358 97.6757 15.3825 130.385C-0.0707788 163.095 8.8217 196.352 36.0514 211.541C63.2811 226.73 81.7976 204.348 119.997 203.262C158.196 202.176 168.466 207.633 200.166 186.053C231.865 164.473 237.591 113.511 212.589 75.8032C187.587 38.0951 156.515 28.6174 156.515 28.6174Z"
        fill="#6E00D9" />
    <path opacity="0.7"
        d="M156.515 28.6174C156.515 28.6174 120.176 15.694 84.488 36.2685C48.8001 56.843 30.8358 97.6757 15.3825 130.385C-0.0707788 163.095 8.8217 196.352 36.0514 211.541C63.2811 226.73 81.7976 204.348 119.997 203.262C158.196 202.176 168.466 207.633 200.166 186.053C231.865 164.473 237.591 113.511 212.589 75.8032C187.587 38.0951 156.515 28.6174 156.515 28.6174Z"
        fill="white" />
    <path d="M158.767 62.3748H15.3542V204.107H158.767V62.3748Z" fill="white" stroke="#263238" stroke-linecap="round"
        stroke-linejoin="round" />
    <path d="M81.7504 77.2994H72.7446V87.556H81.7504V77.2994Z" fill="white" stroke="#263238" stroke-linecap="round"
        stroke-linejoin="round" />
    <path d="M78.588 77.2994H72.7446V87.556H78.588V77.2994Z" fill="white" stroke="#263238" stroke-linecap="round"
        stroke-linejoin="round" />
    <path d="M77.8611 81.656H73.4007V86.4704H77.8611V81.656Z" fill="#6E00D9" stroke="#263238" stroke-linecap="round"
        stroke-linejoin="round" />
    <path d="M74.1417 77.2994H65.136V87.556H74.1417V77.2994Z" fill="white" stroke="#263238" stroke-linecap="round"
        stroke-linejoin="round" />
    <path d="M70.9793 77.2994H65.136V87.556H70.9793V77.2994Z" fill="white" stroke="#263238" stroke-linecap="round"
        stroke-linejoin="round" />
    <path d="M70.2525 81.656H65.7921V86.4704H70.2525V81.656Z" fill="#6E00D9" stroke="#263238" stroke-linecap="round"
        stroke-linejoin="round" />
    <path d="M66.9249 72.4614H57.9191V87.556H66.9249V72.4614Z" fill="#6E00D9" stroke="#263238" stroke-linecap="round"
        stroke-linejoin="round" />
    <path d="M63.7625 72.4614H57.9191V87.556H63.7625V72.4614Z" fill="white" stroke="#263238" stroke-linecap="round"
        stroke-linejoin="round" />
    <path d="M63.0356 78.8759H58.5752V85.9606H63.0356V78.8759Z" fill="#6E00D9" stroke="#263238" stroke-linecap="round"
        stroke-linejoin="round" />
    <path d="M59.3162 72.4614H50.3105V87.556H59.3162V72.4614Z" fill="#6E00D9" stroke="#263238" stroke-linecap="round"
        stroke-linejoin="round" />
    <path d="M56.1538 72.4614H50.3105V87.556H56.1538V72.4614Z" fill="#6E00D9" stroke="#263238" stroke-linecap="round"
        stroke-linejoin="round" />
    <path d="M55.427 78.8759H50.9666V85.9606H55.427V78.8759Z" fill="white" stroke="#263238" stroke-linecap="round"
        stroke-linejoin="round" />
    <path d="M52.6233 77.2994H43.6175V87.556H52.6233V77.2994Z" fill="white" stroke="#263238" stroke-linecap="round"
        stroke-linejoin="round" />
    <path d="M49.4609 77.2994H43.6175V87.556H49.4609V77.2994Z" fill="white" stroke="#263238" stroke-linecap="round"
        stroke-linejoin="round" />
    <path d="M48.734 81.656H44.2736V86.4704H48.734V81.656Z" fill="#6E00D9" stroke="#263238" stroke-linecap="round"
        stroke-linejoin="round" />
    <path d="M45.0146 77.2994H36.0089V87.556H45.0146V77.2994Z" fill="white" stroke="#263238" stroke-linecap="round"
        stroke-linejoin="round" />
    <path d="M41.8522 77.2994H36.0089V87.556H41.8522V77.2994Z" fill="white" stroke="#263238" stroke-linecap="round"
        stroke-linejoin="round" />
    <path d="M41.1253 81.656H36.6649V86.4704H41.1253V81.656Z" fill="#6E00D9" stroke="#263238" stroke-linecap="round"
        stroke-linejoin="round" />
    <path d="M37.7978 72.4614H28.792V87.556H37.7978V72.4614Z" fill="white" stroke="#263238" stroke-linecap="round"
        stroke-linejoin="round" />
    <path d="M34.6354 72.4614H28.792V87.556H34.6354V72.4614Z" fill="white" stroke="#263238" stroke-linecap="round"
        stroke-linejoin="round" />
    <path d="M33.9085 78.8759H29.4481V85.9606H33.9085V78.8759Z" fill="#6E00D9" stroke="#263238" stroke-linecap="round"
        stroke-linejoin="round" />
    <path d="M30.1891 72.4614H21.1833V87.556H30.1891V72.4614Z" fill="white" stroke="#263238" stroke-linecap="round"
        stroke-linejoin="round" />
    <path d="M27.0267 72.4614H21.1833V87.556H27.0267V72.4614Z" fill="white" stroke="#263238" stroke-linecap="round"
        stroke-linejoin="round" />
    <path d="M26.2998 78.8759H21.8394V85.9606H26.2998V78.8759Z" fill="#6E00D9" stroke="#263238" stroke-linecap="round"
        stroke-linejoin="round" />
    <path d="M151.809 77.2994H142.804V87.556H151.809V77.2994Z" fill="white" stroke="#263238" stroke-linecap="round"
        stroke-linejoin="round" />
    <path d="M148.647 77.2994H142.804V87.556H148.647V77.2994Z" fill="white" stroke="#263238" stroke-linecap="round"
        stroke-linejoin="round" />
    <path d="M147.92 81.656H143.46V86.4704H147.92V81.656Z" fill="#6E00D9" stroke="#263238" stroke-linecap="round"
        stroke-linejoin="round" />
    <path d="M144.201 77.2994H135.195V87.556H144.201V77.2994Z" fill="white" stroke="#263238" stroke-linecap="round"
        stroke-linejoin="round" />
    <path d="M141.038 77.2994H135.195V87.556H141.038V77.2994Z" fill="white" stroke="#263238" stroke-linecap="round"
        stroke-linejoin="round" />
    <path d="M140.311 81.656H135.851V86.4704H140.311V81.656Z" fill="#6E00D9" stroke="#263238" stroke-linecap="round"
        stroke-linejoin="round" />
    <path d="M136.984 72.4614H127.978V87.556H136.984V72.4614Z" fill="#6E00D9" stroke="#263238" stroke-linecap="round"
        stroke-linejoin="round" />
    <path d="M133.821 72.4614H127.978V87.556H133.821V72.4614Z" fill="white" stroke="#263238" stroke-linecap="round"
        stroke-linejoin="round" />
    <path d="M133.095 78.8759H128.634V85.9606H133.095V78.8759Z" fill="#6E00D9" stroke="#263238" stroke-linecap="round"
        stroke-linejoin="round" />
    <path d="M129.375 72.4614H120.369V87.556H129.375V72.4614Z" fill="#6E00D9" stroke="#263238" stroke-linecap="round"
        stroke-linejoin="round" />
    <path d="M126.213 72.4614H120.369V87.556H126.213V72.4614Z" fill="#6E00D9" stroke="#263238" stroke-linecap="round"
        stroke-linejoin="round" />
    <path d="M125.486 78.8759H121.026V85.9606H125.486V78.8759Z" fill="white" stroke="#263238" stroke-linecap="round"
        stroke-linejoin="round" />
    <path d="M122.687 77.2994H113.681V87.556H122.687V77.2994Z" fill="white" stroke="#263238" stroke-linecap="round"
        stroke-linejoin="round" />
    <path d="M119.525 77.2994H113.681V87.556H119.525V77.2994Z" fill="white" stroke="#263238" stroke-linecap="round"
        stroke-linejoin="round" />
    <path d="M118.793 81.656H114.333V86.4704H118.793V81.656Z" fill="#6E00D9" stroke="#263238" stroke-linecap="round"
        stroke-linejoin="round" />
    <path d="M115.074 77.2994H106.068V87.556H115.074V77.2994Z" fill="white" stroke="#263238" stroke-linecap="round"
        stroke-linejoin="round" />
    <path d="M111.911 77.2994H106.068V87.556H111.911V77.2994Z" fill="white" stroke="#263238" stroke-linecap="round"
        stroke-linejoin="round" />
    <path d="M111.184 81.656H106.724V86.4704H111.184V81.656Z" fill="#6E00D9" stroke="#263238" stroke-linecap="round"
        stroke-linejoin="round" />
    <path d="M107.861 72.4614H98.8557V87.556H107.861V72.4614Z" fill="white" stroke="#263238" stroke-linecap="round"
        stroke-linejoin="round" />
    <path d="M104.699 72.4614H98.8557V87.556H104.699V72.4614Z" fill="white" stroke="#263238" stroke-linecap="round"
        stroke-linejoin="round" />
    <path d="M103.967 78.8759H99.507V85.9606H103.967V78.8759Z" fill="#6E00D9" stroke="#263238" stroke-linecap="round"
        stroke-linejoin="round" />
    <path d="M100.248 72.4614H91.2423V87.556H100.248V72.4614Z" fill="white" stroke="#263238" stroke-linecap="round"
        stroke-linejoin="round" />
    <path d="M97.0857 72.4614H91.2423V87.556H97.0857V72.4614Z" fill="white" stroke="#263238" stroke-linecap="round"
        stroke-linejoin="round" />
    <path d="M96.3588 78.8759H91.8984V85.9606H96.3588V78.8759Z" fill="#6E00D9" stroke="#263238" stroke-linecap="round"
        stroke-linejoin="round" />
    <path d="M81.7504 156.883H72.7446V167.14H81.7504V156.883Z" fill="white" stroke="#263238" stroke-linecap="round"
        stroke-linejoin="round" />
    <path d="M78.588 156.883H72.7446V167.14H78.588V156.883Z" fill="white" stroke="#263238" stroke-linecap="round"
        stroke-linejoin="round" />
    <path d="M77.8611 161.24H73.4007V166.054H77.8611V161.24Z" fill="#6E00D9" stroke="#263238" stroke-linecap="round"
        stroke-linejoin="round" />
    <path d="M74.1417 156.883H65.136V167.14H74.1417V156.883Z" fill="white" stroke="#263238" stroke-linecap="round"
        stroke-linejoin="round" />
    <path d="M70.9793 156.883H65.136V167.14H70.9793V156.883Z" fill="white" stroke="#263238" stroke-linecap="round"
        stroke-linejoin="round" />
    <path d="M70.2525 161.24H65.7921V166.054H70.2525V161.24Z" fill="#6E00D9" stroke="#263238" stroke-linecap="round"
        stroke-linejoin="round" />
    <path d="M66.9249 152.045H57.9191V167.14H66.9249V152.045Z" fill="#6E00D9" stroke="#263238" stroke-linecap="round"
        stroke-linejoin="round" />
    <path d="M63.7625 152.045H57.9191V167.14H63.7625V152.045Z" fill="white" stroke="#263238" stroke-linecap="round"
        stroke-linejoin="round" />
    <path d="M63.0356 158.455H58.5752V165.54H63.0356V158.455Z" fill="#6E00D9" stroke="#263238" stroke-linecap="round"
        stroke-linejoin="round" />
    <path d="M59.3162 152.045H50.3105V167.14H59.3162V152.045Z" fill="#6E00D9" stroke="#263238" stroke-linecap="round"
        stroke-linejoin="round" />
    <path d="M56.1538 152.045H50.3105V167.14H56.1538V152.045Z" fill="#6E00D9" stroke="#263238" stroke-linecap="round"
        stroke-linejoin="round" />
    <path d="M55.427 158.455H50.9666V165.54H55.427V158.455Z" fill="white" stroke="#263238" stroke-linecap="round"
        stroke-linejoin="round" />
    <path d="M52.6233 156.883H43.6175V167.14H52.6233V156.883Z" fill="white" stroke="#263238" stroke-linecap="round"
        stroke-linejoin="round" />
    <path d="M49.4609 156.883H43.6175V167.14H49.4609V156.883Z" fill="white" stroke="#263238" stroke-linecap="round"
        stroke-linejoin="round" />
    <path d="M48.734 161.24H44.2736V166.054H48.734V161.24Z" fill="#6E00D9" stroke="#263238" stroke-linecap="round"
        stroke-linejoin="round" />
    <path d="M45.0146 156.883H36.0089V167.14H45.0146V156.883Z" fill="white" stroke="#263238" stroke-linecap="round"
        stroke-linejoin="round" />
    <path d="M41.8522 156.883H36.0089V167.14H41.8522V156.883Z" fill="white" stroke="#263238" stroke-linecap="round"
        stroke-linejoin="round" />
    <path d="M41.1253 161.24H36.6649V166.054H41.1253V161.24Z" fill="#6E00D9" stroke="#263238" stroke-linecap="round"
        stroke-linejoin="round" />
    <path d="M37.7978 152.045H28.792V167.14H37.7978V152.045Z" fill="white" stroke="#263238" stroke-linecap="round"
        stroke-linejoin="round" />
    <path d="M34.6354 152.045H28.792V167.14H34.6354V152.045Z" fill="white" stroke="#263238" stroke-linecap="round"
        stroke-linejoin="round" />
    <path d="M33.9085 158.455H29.4481V165.54H33.9085V158.455Z" fill="#6E00D9" stroke="#263238" stroke-linecap="round"
        stroke-linejoin="round" />
    <path d="M30.1891 152.045H21.1833V167.14H30.1891V152.045Z" fill="white" stroke="#263238" stroke-linecap="round"
        stroke-linejoin="round" />
    <path d="M27.0267 152.045H21.1833V167.14H27.0267V152.045Z" fill="white" stroke="#263238" stroke-linecap="round"
        stroke-linejoin="round" />
    <path d="M26.2998 158.455H21.8394V165.54H26.2998V158.455Z" fill="#6E00D9" stroke="#263238" stroke-linecap="round"
        stroke-linejoin="round" />
    <path d="M151.809 156.883H142.804V167.14H151.809V156.883Z" fill="white" stroke="#263238" stroke-linecap="round"
        stroke-linejoin="round" />
    <path d="M148.647 156.883H142.804V167.14H148.647V156.883Z" fill="white" stroke="#263238" stroke-linecap="round"
        stroke-linejoin="round" />
    <path d="M147.92 161.24H143.46V166.054H147.92V161.24Z" fill="#6E00D9" stroke="#263238" stroke-linecap="round"
        stroke-linejoin="round" />
    <path d="M144.201 156.883H135.195V167.14H144.201V156.883Z" fill="white" stroke="#263238" stroke-linecap="round"
        stroke-linejoin="round" />
    <path d="M141.038 156.883H135.195V167.14H141.038V156.883Z" fill="white" stroke="#263238" stroke-linecap="round"
        stroke-linejoin="round" />
    <path d="M140.311 161.24H135.851V166.054H140.311V161.24Z" fill="#6E00D9" stroke="#263238" stroke-linecap="round"
        stroke-linejoin="round" />
    <path d="M136.984 152.045H127.978V167.14H136.984V152.045Z" fill="#6E00D9" stroke="#263238" stroke-linecap="round"
        stroke-linejoin="round" />
    <path d="M133.821 152.045H127.978V167.14H133.821V152.045Z" fill="white" stroke="#263238" stroke-linecap="round"
        stroke-linejoin="round" />
    <path d="M133.095 158.455H128.634V165.54H133.095V158.455Z" fill="#6E00D9" stroke="#263238" stroke-linecap="round"
        stroke-linejoin="round" />
    <path d="M129.375 152.045H120.369V167.14H129.375V152.045Z" fill="#6E00D9" stroke="#263238" stroke-linecap="round"
        stroke-linejoin="round" />
    <path d="M126.213 152.045H120.369V167.14H126.213V152.045Z" fill="#6E00D9" stroke="#263238" stroke-linecap="round"
        stroke-linejoin="round" />
    <path d="M125.486 158.455H121.026V165.54H125.486V158.455Z" fill="white" stroke="#263238" stroke-linecap="round"
        stroke-linejoin="round" />
    <path d="M122.687 156.883H113.681V167.14H122.687V156.883Z" fill="white" stroke="#263238" stroke-linecap="round"
        stroke-linejoin="round" />
    <path d="M119.525 156.883H113.681V167.14H119.525V156.883Z" fill="white" stroke="#263238" stroke-linecap="round"
        stroke-linejoin="round" />
    <path d="M118.793 161.24H114.333V166.054H118.793V161.24Z" fill="#6E00D9" stroke="#263238" stroke-linecap="round"
        stroke-linejoin="round" />
    <path d="M115.074 156.883H106.068V167.14H115.074V156.883Z" fill="white" stroke="#263238" stroke-linecap="round"
        stroke-linejoin="round" />
    <path d="M111.911 156.883H106.068V167.14H111.911V156.883Z" fill="white" stroke="#263238" stroke-linecap="round"
        stroke-linejoin="round" />
    <path d="M111.184 161.24H106.724V166.054H111.184V161.24Z" fill="#6E00D9" stroke="#263238" stroke-linecap="round"
        stroke-linejoin="round" />
    <path d="M107.861 152.045H98.8557V167.14H107.861V152.045Z" fill="white" stroke="#263238" stroke-linecap="round"
        stroke-linejoin="round" />
    <path d="M104.699 152.045H98.8557V167.14H104.699V152.045Z" fill="white" stroke="#263238" stroke-linecap="round"
        stroke-linejoin="round" />
    <path d="M103.967 158.455H99.507V165.54H103.967V158.455Z" fill="#6E00D9" stroke="#263238" stroke-linecap="round"
        stroke-linejoin="round" />
    <path d="M100.248 152.045H91.2423V167.14H100.248V152.045Z" fill="white" stroke="#263238" stroke-linecap="round"
        stroke-linejoin="round" />
    <path d="M97.0857 152.045H91.2423V167.14H97.0857V152.045Z" fill="white" stroke="#263238" stroke-linecap="round"
        stroke-linejoin="round" />
    <path d="M96.3588 158.455H91.8984V165.54H96.3588V158.455Z" fill="#6E00D9" stroke="#263238" stroke-linecap="round"
        stroke-linejoin="round" />
    <path
        d="M21.24 102.599H24.2561C24.9346 102.599 25.5853 102.868 26.065 103.348C26.5448 103.828 26.8143 104.478 26.8143 105.157V113.879H18.6912V105.157C18.6912 104.48 18.9594 103.831 19.4371 103.351C19.9149 102.872 20.5631 102.601 21.24 102.599Z"
        fill="#6E00D9" stroke="#263238" stroke-linecap="round" stroke-linejoin="round" />
    <path d="M24.5959 99.4504H21.2494V102.599H24.5959V99.4504Z" fill="#263238" stroke="#263238" stroke-linecap="round"
        stroke-linejoin="round" />
    <path d="M24.5959 106.011H19.3473V111.26H24.5959V106.011Z" fill="white" stroke="#263238" stroke-linecap="round"
        stroke-linejoin="round" />
    <path
        d="M30.8263 102.599H33.8424C34.5209 102.599 35.1716 102.868 35.6513 103.348C36.1311 103.828 36.4006 104.478 36.4006 105.157V113.879H28.2681V105.157C28.2681 104.821 28.3342 104.488 28.4628 104.178C28.5914 103.867 28.7798 103.585 29.0174 103.348C29.2549 103.11 29.5369 102.922 29.8473 102.793C30.1577 102.665 30.4904 102.599 30.8263 102.599Z"
        fill="#6E00D9" stroke="#263238" stroke-linecap="round" stroke-linejoin="round" />
    <path d="M34.1728 99.4504H30.8263V102.599H34.1728V99.4504Z" fill="#263238" stroke="#263238" stroke-linecap="round"
        stroke-linejoin="round" />
    <path d="M34.1728 106.011H28.9241V111.26H34.1728V106.011Z" fill="white" stroke="#263238" stroke-linecap="round"
        stroke-linejoin="round" />
    <path
        d="M40.4032 96.5618H43.424C44.1016 96.563 44.7511 96.8331 45.2299 97.3127C45.7086 97.7923 45.9775 98.4423 45.9775 99.12V113.879H37.8449V99.12C37.8449 98.4415 38.1145 97.7908 38.5942 97.311C39.074 96.8313 39.7247 96.5618 40.4032 96.5618Z"
        fill="#6E00D9" stroke="#263238" stroke-linecap="round" stroke-linejoin="round" />
    <path d="M43.7497 93.4135H40.4032V96.5618H43.7497V93.4135Z" fill="#263238" stroke="#263238" stroke-linecap="round"
        stroke-linejoin="round" />
    <path d="M43.7497 99.9743H38.501V111.255H43.7497V99.9743Z" fill="white" stroke="#263238" stroke-linecap="round"
        stroke-linejoin="round" />
    <path
        d="M49.9801 102.599H52.9961C53.6746 102.599 54.3253 102.868 54.8051 103.348C55.2848 103.828 55.5544 104.478 55.5544 105.157V113.879H47.4218V105.157C47.4218 104.478 47.6913 103.828 48.1711 103.348C48.6509 102.868 49.3016 102.599 49.9801 102.599Z"
        fill="#6E00D9" stroke="#263238" stroke-linecap="round" stroke-linejoin="round" />
    <path d="M53.3266 99.4504H49.9801V102.599H53.3266V99.4504Z" fill="#263238" stroke="#263238" stroke-linecap="round"
        stroke-linejoin="round" />
    <path d="M53.3266 106.011H48.0779V111.26H53.3266V106.011Z" fill="white" stroke="#263238" stroke-linecap="round"
        stroke-linejoin="round" />
    <path
        d="M59.557 102.599H62.573C63.2515 102.599 63.9022 102.868 64.382 103.348C64.8617 103.828 65.1313 104.478 65.1313 105.157V113.879H56.9987V105.157C56.9987 104.478 57.2682 103.828 57.748 103.348C58.2278 102.868 58.8785 102.599 59.557 102.599Z"
        fill="#6E00D9" stroke="#263238" stroke-linecap="round" stroke-linejoin="round" />
    <path d="M62.9034 99.4504H59.5569V102.599H62.9034V99.4504Z" fill="#263238" stroke="#263238" stroke-linecap="round"
        stroke-linejoin="round" />
    <path d="M62.9034 106.011H57.6548V111.26H62.9034V106.011Z" fill="white" stroke="#263238" stroke-linecap="round"
        stroke-linejoin="round" />
    <path
        d="M69.1385 99.4504H72.1546C72.8331 99.4504 73.4838 99.7199 73.9636 100.2C74.4433 100.679 74.7129 101.33 74.7129 102.009V113.884H66.5756V102.009C66.5756 101.672 66.6419 101.339 66.7708 101.029C66.8996 100.718 67.0885 100.436 67.3266 100.198C67.5646 99.9604 67.8472 99.7721 68.1581 99.6438C68.469 99.5155 68.8022 99.4498 69.1385 99.4504Z"
        fill="#6E00D9" stroke="#263238" stroke-linecap="round" stroke-linejoin="round" />
    <path d="M72.485 96.3022H69.1385V99.4504H72.485V96.3022Z" fill="#263238" stroke="#263238" stroke-linecap="round"
        stroke-linejoin="round" />
    <path d="M72.4803 102.858H67.2317V111.255H72.4803V102.858Z" fill="white" stroke="#263238" stroke-linecap="round"
        stroke-linejoin="round" />
    <path
        d="M94.6124 102.599H97.6285C98.3069 102.599 98.9576 102.868 99.4374 103.348C99.9172 103.828 100.187 104.478 100.187 105.157V113.879H92.04V105.157C92.04 104.82 92.1066 104.486 92.2361 104.175C92.3655 103.863 92.5552 103.581 92.7943 103.343C93.0333 103.105 93.317 102.917 93.629 102.789C93.941 102.662 94.2752 102.597 94.6124 102.599Z"
        fill="#6E00D9" stroke="#263238" stroke-linecap="round" stroke-linejoin="round" />
    <path d="M97.9589 99.4504H94.6124V102.599H97.9589V99.4504Z" fill="#263238" stroke="#263238" stroke-linecap="round"
        stroke-linejoin="round" />
    <path d="M97.9589 106.011H92.7102V111.26H97.9589V106.011Z" fill="white" stroke="#263238" stroke-linecap="round"
        stroke-linejoin="round" />
    <path
        d="M104.189 102.599H107.205C107.884 102.599 108.535 102.868 109.014 103.348C109.494 103.828 109.764 104.478 109.764 105.157V113.879H101.631V105.157C101.631 104.478 101.901 103.828 102.38 103.348C102.86 102.868 103.511 102.599 104.189 102.599Z"
        fill="#6E00D9" stroke="#263238" stroke-linecap="round" stroke-linejoin="round" />
    <path d="M107.536 99.4504H104.189V102.599H107.536V99.4504Z" fill="#263238" stroke="#263238" stroke-linecap="round"
        stroke-linejoin="round" />
    <path d="M107.536 106.011H102.287V111.26H107.536V106.011Z" fill="white" stroke="#263238" stroke-linecap="round"
        stroke-linejoin="round" />
    <path
        d="M113.752 96.5618H116.768C117.447 96.5618 118.097 96.8313 118.577 97.311C119.057 97.7908 119.326 98.4415 119.326 99.12V113.879H111.213V99.12C111.213 98.4448 111.48 97.7969 111.955 97.3177C112.431 96.8385 113.077 96.5667 113.752 96.5618Z"
        fill="#6E00D9" stroke="#263238" stroke-linecap="round" stroke-linejoin="round" />
    <path d="M117.117 93.4135H113.771V96.5618H117.117V93.4135Z" fill="#263238" stroke="#263238" stroke-linecap="round"
        stroke-linejoin="round" />
    <path d="M117.117 99.9743H111.869V111.255H117.117V99.9743Z" fill="white" stroke="#263238" stroke-linecap="round"
        stroke-linejoin="round" />
    <path
        d="M123.348 102.599H126.364C126.7 102.599 127.032 102.665 127.343 102.793C127.653 102.922 127.935 103.11 128.173 103.348C128.41 103.585 128.599 103.867 128.727 104.178C128.856 104.488 128.922 104.821 128.922 105.157V113.879H120.789V105.157C120.789 104.478 121.059 103.828 121.539 103.348C122.019 102.868 122.669 102.599 123.348 102.599Z"
        fill="#6E00D9" stroke="#263238" stroke-linecap="round" stroke-linejoin="round" />
    <path d="M126.694 99.4504H123.348V102.599H126.694V99.4504Z" fill="#263238" stroke="#263238" stroke-linecap="round"
        stroke-linejoin="round" />
    <path d="M126.694 106.011H121.446V111.26H126.694V106.011Z" fill="white" stroke="#263238" stroke-linecap="round"
        stroke-linejoin="round" />
    <path
        d="M132.925 102.599H135.936C136.272 102.599 136.605 102.665 136.915 102.793C137.225 102.922 137.507 103.11 137.745 103.348C137.982 103.585 138.171 103.867 138.299 104.178C138.428 104.488 138.494 104.821 138.494 105.157V113.879H130.366V105.157C130.366 104.478 130.636 103.828 131.116 103.348C131.595 102.868 132.246 102.599 132.925 102.599Z"
        fill="#6E00D9" stroke="#263238" stroke-linecap="round" stroke-linejoin="round" />
    <path d="M136.271 99.4504H132.925V102.599H136.271V99.4504Z" fill="#263238" stroke="#263238" stroke-linecap="round"
        stroke-linejoin="round" />
    <path d="M136.271 106.011H131.022V111.26H136.271V106.011Z" fill="white" stroke="#263238" stroke-linecap="round"
        stroke-linejoin="round" />
    <path
        d="M142.502 99.4504H145.518C146.196 99.4504 146.847 99.7199 147.327 100.2C147.806 100.679 148.076 101.33 148.076 102.009V113.884H139.943V102.009C139.943 101.33 140.213 100.679 140.693 100.2C141.172 99.7199 141.823 99.4504 142.502 99.4504Z"
        fill="#6E00D9" stroke="#263238" stroke-linecap="round" stroke-linejoin="round" />
    <path d="M145.848 96.3022H142.502V99.4504H145.848V96.3022Z" fill="#263238" stroke="#263238" stroke-linecap="round"
        stroke-linejoin="round" />
    <path d="M145.848 102.858H140.599V111.255H145.848V102.858Z" fill="white" stroke="#263238" stroke-linecap="round"
        stroke-linejoin="round" />
    <path
        d="M21.24 182.862H24.2561C24.9346 182.862 25.5853 183.132 26.065 183.612C26.5448 184.091 26.8143 184.742 26.8143 185.42V194.143H18.6912V185.42C18.6912 184.744 18.9594 184.094 19.4371 183.615C19.9149 183.135 20.5631 182.865 21.24 182.862Z"
        fill="#6E00D9" stroke="#263238" stroke-linecap="round" stroke-linejoin="round" />
    <path d="M24.5959 179.714H21.2494V182.862H24.5959V179.714Z" fill="#263238" stroke="#263238" stroke-linecap="round"
        stroke-linejoin="round" />
    <path d="M24.5959 186.27H19.3473V191.519H24.5959V186.27Z" fill="white" stroke="#263238" stroke-linecap="round"
        stroke-linejoin="round" />
    <path
        d="M30.8263 182.862H33.8424C34.5209 182.862 35.1716 183.132 35.6513 183.612C36.1311 184.091 36.4006 184.742 36.4006 185.42V194.143H28.2681V185.42C28.2681 185.085 28.3342 184.752 28.4628 184.441C28.5914 184.131 28.7798 183.849 29.0174 183.612C29.2549 183.374 29.5369 183.186 29.8473 183.057C30.1577 182.928 30.4904 182.862 30.8263 182.862Z"
        fill="#6E00D9" stroke="#263238" stroke-linecap="round" stroke-linejoin="round" />
    <path d="M34.1728 179.714H30.8263V182.862H34.1728V179.714Z" fill="#263238" stroke="#263238" stroke-linecap="round"
        stroke-linejoin="round" />
    <path d="M34.1728 186.27H28.9241V191.519H34.1728V186.27Z" fill="white" stroke="#263238" stroke-linecap="round"
        stroke-linejoin="round" />
    <path
        d="M40.4032 176.825H43.424C44.1025 176.825 44.7532 177.095 45.2329 177.575C45.7127 178.054 45.9822 178.705 45.9822 179.384V194.143H37.8449V179.384C37.8449 178.705 38.1145 178.054 38.5942 177.575C39.074 177.095 39.7247 176.825 40.4032 176.825Z"
        fill="#6E00D9" stroke="#263238" stroke-linecap="round" stroke-linejoin="round" />
    <path d="M43.7497 173.677H40.4032V176.825H43.7497V173.677Z" fill="#263238" stroke="#263238" stroke-linecap="round"
        stroke-linejoin="round" />
    <path d="M43.7497 180.238H38.501V191.519H43.7497V180.238Z" fill="white" stroke="#263238" stroke-linecap="round"
        stroke-linejoin="round" />
    <path
        d="M49.9801 182.862H52.9961C53.6746 182.862 54.3253 183.132 54.8051 183.612C55.2848 184.091 55.5544 184.742 55.5544 185.42V194.143H47.4218V185.42C47.4218 184.742 47.6913 184.091 48.1711 183.612C48.6509 183.132 49.3016 182.862 49.9801 182.862Z"
        fill="#6E00D9" stroke="#263238" stroke-linecap="round" stroke-linejoin="round" />
    <path d="M53.3266 179.714H49.9801V182.862H53.3266V179.714Z" fill="#263238" stroke="#263238" stroke-linecap="round"
        stroke-linejoin="round" />
    <path d="M53.3266 186.27H48.0779V191.519H53.3266V186.27Z" fill="white" stroke="#263238" stroke-linecap="round"
        stroke-linejoin="round" />
    <path
        d="M59.557 182.862H62.573C63.2515 182.862 63.9022 183.132 64.382 183.612C64.8617 184.091 65.1313 184.742 65.1313 185.42V194.143H56.9987V185.42C56.9987 184.742 57.2682 184.091 57.748 183.612C58.2278 183.132 58.8785 182.862 59.557 182.862Z"
        fill="#6E00D9" stroke="#263238" stroke-linecap="round" stroke-linejoin="round" />
    <path d="M62.9034 179.714H59.5569V182.862H62.9034V179.714Z" fill="#263238" stroke="#263238" stroke-linecap="round"
        stroke-linejoin="round" />
    <path d="M62.9034 186.27H57.6548V191.519H62.9034V186.27Z" fill="white" stroke="#263238" stroke-linecap="round"
        stroke-linejoin="round" />
    <path
        d="M69.1385 179.714H72.1546C72.8331 179.714 73.4838 179.984 73.9636 180.463C74.4433 180.943 74.7129 181.594 74.7129 182.272V194.148H66.5756V182.272C66.5756 181.936 66.6419 181.603 66.7708 181.292C66.8996 180.981 67.0885 180.699 67.3266 180.462C67.5646 180.224 67.8472 180.036 68.1581 179.907C68.469 179.779 68.8022 179.713 69.1385 179.714Z"
        fill="#6E00D9" stroke="#263238" stroke-linecap="round" stroke-linejoin="round" />
    <path d="M72.485 176.566H69.1385V179.714H72.485V176.566Z" fill="#263238" stroke="#263238" stroke-linecap="round"
        stroke-linejoin="round" />
    <path d="M72.4803 183.122H67.2317V191.519H72.4803V183.122Z" fill="white" stroke="#263238" stroke-linecap="round"
        stroke-linejoin="round" />
    <path
        d="M94.6124 182.862H97.6285C98.3069 182.862 98.9576 183.132 99.4374 183.612C99.9172 184.091 100.187 184.742 100.187 185.42V194.143H92.04V185.42C92.04 185.083 92.1066 184.75 92.2361 184.438C92.3655 184.127 92.5552 183.844 92.7943 183.606C93.0333 183.369 93.317 183.181 93.629 183.053C93.941 182.925 94.2752 182.86 94.6124 182.862Z"
        fill="#6E00D9" stroke="#263238" stroke-linecap="round" stroke-linejoin="round" />
    <path d="M97.9589 179.714H94.6124V182.862H97.9589V179.714Z" fill="#263238" stroke="#263238" stroke-linecap="round"
        stroke-linejoin="round" />
    <path d="M97.9589 186.27H92.7102V191.519H97.9589V186.27Z" fill="white" stroke="#263238" stroke-linecap="round"
        stroke-linejoin="round" />
    <path
        d="M104.189 182.862H107.205C107.884 182.862 108.535 183.132 109.014 183.612C109.494 184.091 109.764 184.742 109.764 185.42V194.143H101.631V185.42C101.631 184.742 101.901 184.091 102.38 183.612C102.86 183.132 103.511 182.862 104.189 182.862Z"
        fill="#6E00D9" stroke="#263238" stroke-linecap="round" stroke-linejoin="round" />
    <path d="M107.536 179.714H104.189V182.862H107.536V179.714Z" fill="#263238" stroke="#263238" stroke-linecap="round"
        stroke-linejoin="round" />
    <path d="M107.536 186.27H102.287V191.519H107.536V186.27Z" fill="white" stroke="#263238" stroke-linecap="round"
        stroke-linejoin="round" />
    <path
        d="M113.752 176.825H116.768C117.447 176.825 118.097 177.095 118.577 177.575C119.057 178.054 119.326 178.705 119.326 179.384V194.143H111.213V179.384C111.213 178.708 111.48 178.061 111.955 177.581C112.431 177.102 113.077 176.83 113.752 176.825Z"
        fill="#6E00D9" stroke="#263238" stroke-linecap="round" stroke-linejoin="round" />
    <path d="M117.117 173.677H113.771V176.825H117.117V173.677Z" fill="#263238" stroke="#263238" stroke-linecap="round"
        stroke-linejoin="round" />
    <path d="M117.117 180.238H111.869V191.519H117.117V180.238Z" fill="white" stroke="#263238" stroke-linecap="round"
        stroke-linejoin="round" />
    <path
        d="M123.348 182.862H126.364C126.7 182.862 127.032 182.928 127.343 183.057C127.653 183.186 127.935 183.374 128.173 183.612C128.41 183.849 128.599 184.131 128.727 184.441C128.856 184.752 128.922 185.085 128.922 185.42V194.143H120.789V185.42C120.789 184.742 121.059 184.091 121.539 183.612C122.019 183.132 122.669 182.862 123.348 182.862Z"
        fill="#6E00D9" stroke="#263238" stroke-linecap="round" stroke-linejoin="round" />
    <path d="M126.694 179.714H123.348V182.862H126.694V179.714Z" fill="#263238" stroke="#263238" stroke-linecap="round"
        stroke-linejoin="round" />
    <path d="M126.694 186.27H121.446V191.519H126.694V186.27Z" fill="white" stroke="#263238" stroke-linecap="round"
        stroke-linejoin="round" />
    <path
        d="M132.925 182.862H135.936C136.272 182.862 136.605 182.928 136.915 183.057C137.225 183.186 137.507 183.374 137.745 183.612C137.982 183.849 138.171 184.131 138.299 184.441C138.428 184.752 138.494 185.085 138.494 185.42V194.143H130.366V185.42C130.366 184.742 130.636 184.091 131.116 183.612C131.595 183.132 132.246 182.862 132.925 182.862Z"
        fill="#6E00D9" stroke="#263238" stroke-linecap="round" stroke-linejoin="round" />
    <path d="M136.271 179.714H132.925V182.862H136.271V179.714Z" fill="#263238" stroke="#263238" stroke-linecap="round"
        stroke-linejoin="round" />
    <path d="M136.271 186.27H131.022V191.519H136.271V186.27Z" fill="white" stroke="#263238" stroke-linecap="round"
        stroke-linejoin="round" />
    <path
        d="M142.502 179.714H145.518C146.196 179.714 146.847 179.984 147.327 180.463C147.806 180.943 148.076 181.594 148.076 182.272V194.148H139.943V182.272C139.943 181.594 140.213 180.943 140.693 180.463C141.172 179.984 141.823 179.714 142.502 179.714Z"
        fill="#6E00D9" stroke="#263238" stroke-linecap="round" stroke-linejoin="round" />
    <path d="M145.848 176.566H142.502V179.714H145.848V176.566Z" fill="#263238" stroke="#263238" stroke-linecap="round"
        stroke-linejoin="round" />
    <path d="M145.848 183.122H140.599V191.519H145.848V183.122Z" fill="white" stroke="#263238" stroke-linecap="round"
        stroke-linejoin="round" />
    <path d="M26.8615 124.33H19.3803L21.2494 140.387H24.9924L26.8615 124.33Z" fill="white" stroke="#263238"
        stroke-linecap="round" stroke-linejoin="round" />
    <path d="M20.9521 137.833L21.2494 140.387H24.9924L25.2897 137.833H20.9521Z" fill="#263238" stroke="#263238"
        stroke-linecap="round" stroke-linejoin="round" />
    <path d="M24.4874 127.431H21.3863V135.096H24.4874V127.431Z" fill="#6E00D9" stroke="#263238" stroke-linecap="round"
        stroke-linejoin="round" />
    <path d="M35.99 124.33H28.5041L30.3779 140.387H34.1161L35.99 124.33Z" fill="white" stroke="#263238"
        stroke-linecap="round" stroke-linejoin="round" />
    <path d="M30.0805 137.833L30.3779 140.387H34.1161L34.4135 137.833H30.0805Z" fill="#263238" stroke="#263238"
        stroke-linecap="round" stroke-linejoin="round" />
    <path d="M33.6158 127.431H30.5148V135.096H33.6158V127.431Z" fill="#6E00D9" stroke="#263238" stroke-linecap="round"
        stroke-linejoin="round" />
    <path d="M45.1138 124.33H37.6278L39.5017 140.387H43.2399L45.1138 124.33Z" fill="white" stroke="#263238"
        stroke-linecap="round" stroke-linejoin="round" />
    <path d="M39.2043 137.833L39.5017 140.387H43.2399L43.542 137.833H39.2043Z" fill="#263238" stroke="#263238"
        stroke-linecap="round" stroke-linejoin="round" />
    <path d="M42.7396 127.431H39.6385V135.096H42.7396V127.431Z" fill="#6E00D9" stroke="#263238" stroke-linecap="round"
        stroke-linejoin="round" />
    <path d="M54.2375 124.33H46.7563L48.6254 140.387H52.3684L54.2375 124.33Z" fill="white" stroke="#263238"
        stroke-linecap="round" stroke-linejoin="round" />
    <path d="M48.3281 137.833L48.6254 140.387H52.3684L52.6657 137.833H48.3281Z" fill="#263238" stroke="#263238"
        stroke-linecap="round" stroke-linejoin="round" />
    <path d="M51.8633 127.431H48.7623V135.096H51.8633V127.431Z" fill="#6E00D9" stroke="#263238" stroke-linecap="round"
        stroke-linejoin="round" />
    <path d="M64.3525 131.811H56.4417V134.548H64.3525V131.811Z" fill="#263238" stroke="#263238" stroke-linecap="round"
        stroke-linejoin="round" />
    <path d="M65.5561 134.548H55.2429V140.571H65.5561V134.548Z" fill="#6E00D9" stroke="#263238" stroke-linecap="round"
        stroke-linejoin="round" />
    <path d="M64.1023 135.827H56.6872V139.297H64.1023V135.827Z" fill="white" stroke="#263238" stroke-linecap="round"
        stroke-linejoin="round" />
    <path d="M76.0345 131.811H68.1237V134.548H76.0345V131.811Z" fill="#263238" stroke="#263238" stroke-linecap="round"
        stroke-linejoin="round" />
    <path d="M77.2334 134.548H66.9202V140.571H77.2334V134.548Z" fill="#6E00D9" stroke="#263238" stroke-linecap="round"
        stroke-linejoin="round" />
    <path d="M75.7843 135.827H68.3692V139.297H75.7843V135.827Z" fill="white" stroke="#263238" stroke-linecap="round"
        stroke-linejoin="round" />
    <path d="M99.861 124.33H92.3798L94.2489 140.387H97.9919L99.861 124.33Z" fill="white" stroke="#263238"
        stroke-linecap="round" stroke-linejoin="round" />
    <path d="M93.9516 137.833L94.249 140.387H97.9919L98.2893 137.833H93.9516Z" fill="#263238" stroke="#263238"
        stroke-linecap="round" stroke-linejoin="round" />
    <path d="M97.4869 127.431H94.3858V135.096H97.4869V127.431Z" fill="#6E00D9" stroke="#263238" stroke-linecap="round"
        stroke-linejoin="round" />
    <path d="M108.99 124.33H101.504L103.377 140.387H107.116L108.99 124.33Z" fill="white" stroke="#263238"
        stroke-linecap="round" stroke-linejoin="round" />
    <path d="M103.08 137.833L103.377 140.387H107.116L107.413 137.833H103.08Z" fill="#263238" stroke="#263238"
        stroke-linecap="round" stroke-linejoin="round" />
    <path d="M106.615 127.431H103.514V135.096H106.615V127.431Z" fill="#6E00D9" stroke="#263238" stroke-linecap="round"
        stroke-linejoin="round" />
    <path d="M118.113 124.33H110.632L112.501 140.387H116.244L118.113 124.33Z" fill="white" stroke="#263238"
        stroke-linecap="round" stroke-linejoin="round" />
    <path d="M112.204 137.833L112.501 140.387H116.244L116.542 137.833H112.204Z" fill="#263238" stroke="#263238"
        stroke-linecap="round" stroke-linejoin="round" />
    <path d="M115.739 127.431H112.638V135.096H115.739V127.431Z" fill="#6E00D9" stroke="#263238" stroke-linecap="round"
        stroke-linejoin="round" />
    <path d="M127.237 124.33H119.756L121.625 140.387H125.368L127.237 124.33Z" fill="white" stroke="#263238"
        stroke-linecap="round" stroke-linejoin="round" />
    <path d="M121.328 137.833L121.625 140.387H125.368L125.665 137.833H121.328Z" fill="#263238" stroke="#263238"
        stroke-linecap="round" stroke-linejoin="round" />
    <path d="M124.863 127.431H121.762V135.096H124.863V127.431Z" fill="#6E00D9" stroke="#263238" stroke-linecap="round"
        stroke-linejoin="round" />
    <path d="M137.352 131.811H129.441V134.548H137.352V131.811Z" fill="#263238" stroke="#263238" stroke-linecap="round"
        stroke-linejoin="round" />
    <path d="M138.556 134.548H128.242V140.571H138.556V134.548Z" fill="#6E00D9" stroke="#263238" stroke-linecap="round"
        stroke-linejoin="round" />
    <path d="M137.107 135.827H129.691V139.297H137.107V135.827Z" fill="white" stroke="#263238" stroke-linecap="round"
        stroke-linejoin="round" />
    <path d="M149.034 131.811H141.123V134.548H149.034V131.811Z" fill="#263238" stroke="#263238" stroke-linecap="round"
        stroke-linejoin="round" />
    <path d="M150.233 134.548H139.92V140.571H150.233V134.548Z" fill="#6E00D9" stroke="#263238" stroke-linecap="round"
        stroke-linejoin="round" />
    <path d="M148.784 135.827H141.369V139.297H148.784V135.827Z" fill="white" stroke="#263238" stroke-linecap="round"
        stroke-linejoin="round" />
    <path d="M158.634 90.4163V86.999L16.1754 86.999V90.4163L158.634 90.4163Z" fill="white" stroke="#263238"
        stroke-linecap="round" stroke-linejoin="round" />
    <path d="M158.639 117.061V113.643L16.1802 113.643V117.061L158.639 117.061Z" fill="white" stroke="#263238"
        stroke-linecap="round" stroke-linejoin="round" />
    <path d="M158.634 143.71V140.293H16.1754V143.71H158.634Z" fill="white" stroke="#263238" stroke-linecap="round"
        stroke-linejoin="round" />
    <path d="M158.634 170.359V166.942H16.1754V170.359H158.634Z" fill="white" stroke="#263238" stroke-linecap="round"
        stroke-linejoin="round" />
    <path d="M158.639 196.72V193.303H16.1801V196.72H158.639Z" fill="white" stroke="#263238" stroke-linecap="round"
        stroke-linejoin="round" />
    <path d="M16.8598 66.8446H13.4425V204.862H16.8598V66.8446Z" fill="white" stroke="#263238" stroke-linecap="round"
        stroke-linejoin="round" />
    <path d="M88.6038 66.8446H85.1866V204.862H88.6038V66.8446Z" fill="white" stroke="#263238" stroke-linecap="round"
        stroke-linejoin="round" />
    <path d="M160.348 66.8446H156.931V204.862H160.348V66.8446Z" fill="white" stroke="#263238" stroke-linecap="round"
        stroke-linejoin="round" />
    <path d="M161.712 52.4958H10.0253V67.1845H161.712V52.4958Z" fill="#6E00D9" stroke="#263238" stroke-linecap="round"
        stroke-linejoin="round" />
    <path d="M117.301 52.4958H54.4405V67.1845H117.301V52.4958Z" fill="white" stroke="#263238" stroke-linecap="round"
        stroke-linejoin="round" />
    <path
        d="M36.5564 58.1221H33.3798V54.9408H30.1042V58.1221H26.9229V61.3978H30.1042V64.5743H33.3798V61.3978H36.5564V58.1221Z"
        fill="white" />
    <path
        d="M143.88 58.1221H140.703V54.9408H137.428V58.1221H134.246V61.3978H137.428V64.5743H140.703V61.3978H143.88V58.1221Z"
        fill="white" />
    <path
        d="M64.2769 54.752C65.9006 54.752 66.5945 55.696 66.5945 57.2772V58.528C66.5945 60.1658 65.8298 61.0202 64.1873 61.0202H63.1725V65.0982H62.0208V54.752H64.2769ZM64.192 59.977C65.051 59.977 65.4617 59.5806 65.4617 58.5894V57.2158C65.4617 56.2718 65.1218 55.7998 64.2817 55.7998H63.1772V59.977H64.192Z"
        fill="#6E00D9" />
    <path
        d="M68.6949 60.416V65.0699H67.5432V54.752H68.6949V59.4012H71.2342V54.752H72.3859V65.0888H71.2342V60.416H68.6949Z"
        fill="#6E00D9" />
    <path
        d="M74.7317 63.0073L74.3353 65.0888H73.2733L75.2509 54.752H76.936L78.9137 65.0888H77.762L77.3655 63.0073H74.7317ZM74.8828 62.0161H77.1861L76.0156 56.05L74.8828 62.0161Z"
        fill="#6E00D9" />
    <path
        d="M82.0997 54.752C83.7281 54.752 84.403 55.578 84.403 57.112V57.9569C84.403 59.0944 84.0065 59.8024 83.1192 60.0809C84.0632 60.3641 84.4219 61.1287 84.4219 62.2379V63.8474C84.3881 64.2716 84.4578 64.6975 84.6249 65.0888H83.459C83.2986 64.6909 83.2339 64.2608 83.2702 63.8333V62.2096C83.2702 61.0438 82.7227 60.6709 81.7645 60.6709H80.948V65.0888H79.801V54.752H82.0997ZM81.807 59.623C82.7227 59.623 83.2702 59.3304 83.2702 58.207V57.2158C83.2702 56.2718 82.9304 55.7998 82.0713 55.7998H80.948V59.623H81.807Z"
        fill="#6E00D9" />
    <path
        d="M89.4251 65.0746H88.3206L86.6073 56.8477V65.0888H85.6019V54.752H87.2114L88.9106 63.0073L90.5485 54.752H92.158V65.0888H91.0677V56.7769L89.4251 65.0746Z"
        fill="#6E00D9" />
    <path
        d="M94.5085 63.0073L94.1073 65.0888H93.0453L95.023 54.752H96.6939L98.6716 65.0888H97.5199L97.1187 63.0073H94.5085ZM94.6549 62.0161H96.9582L95.816 56.05L94.6549 62.0161Z"
        fill="#6E00D9" />
    <path
        d="M104.133 57.2489V58.1929H103.042V57.2017C103.042 56.2577 102.674 55.7102 101.829 55.7102C100.984 55.7102 100.621 56.2718 100.621 57.2017V62.6674C100.621 63.6114 101.003 64.1542 101.829 64.1542C102.655 64.1542 103.042 63.5973 103.042 62.6674V61.3222H104.133V62.6061C104.133 64.1731 103.396 65.2068 101.801 65.2068C100.206 65.2068 99.4834 64.1731 99.4834 62.6061V57.2489C99.4834 55.6818 100.22 54.6482 101.801 54.6482C103.382 54.6482 104.133 55.696 104.133 57.2489Z"
        fill="#6E00D9" />
    <path
        d="M106.851 61.36L104.666 54.752H105.865L107.474 59.8307L109.098 54.752H110.188L107.989 61.36V65.0699H106.851V61.36Z"
        fill="#6E00D9" />
    <path d="M219.14 65.2918H169.122V139.906H219.14V65.2918Z" stroke="#263238" stroke-linecap="round"
        stroke-linejoin="round" />
    <path
        d="M201.237 84.2614L184.156 94.8295C183.286 95.3682 182.318 95.7301 181.308 95.8947C180.299 96.0593 179.266 96.0233 178.27 95.7888C177.275 95.5543 176.335 95.1259 175.504 94.528C174.674 93.9301 173.97 93.1745 173.432 92.3043C172.345 90.5479 172.001 88.432 172.475 86.4219C172.948 84.4117 174.201 82.672 175.957 81.5852L193.048 71.0124C194.805 69.9258 196.922 69.5815 198.933 70.055C200.944 70.5285 202.684 71.7812 203.772 73.5376C204.31 74.408 204.671 75.376 204.835 76.3862C204.999 77.3963 204.962 78.4289 204.727 79.4248C204.492 80.4208 204.062 81.3605 203.463 82.1904C202.865 83.0203 202.108 83.7241 201.237 84.2614Z"
        stroke="#263238" stroke-linecap="round" stroke-linejoin="round" />
    <path
        d="M193.048 71.0124L184.335 76.4074L192.534 89.6517L201.247 84.2614C202.117 83.7231 202.872 83.0187 203.47 82.1884C204.067 81.3582 204.496 80.4183 204.73 79.4225C204.965 78.4267 205.001 77.3945 204.836 76.3847C204.672 75.375 204.31 74.4076 203.772 73.5376C203.233 72.6677 202.529 71.9123 201.699 71.3146C200.869 70.7168 199.929 70.2885 198.933 70.054C197.937 69.8195 196.905 69.7835 195.895 69.9479C194.885 70.1124 193.918 70.4741 193.048 71.0124Z"
        stroke="#263238" stroke-linecap="round" stroke-linejoin="round" />
    <path
        d="M206.188 116.947L187.214 110.339C186.248 110.004 185.357 109.482 184.593 108.802C183.828 108.123 183.205 107.299 182.76 106.378C182.314 105.458 182.054 104.458 181.994 103.437C181.935 102.416 182.078 101.393 182.414 100.427C182.749 99.4611 183.271 98.5703 183.951 97.8059C184.631 97.0416 185.454 96.4187 186.375 95.9729C187.295 95.5271 188.295 95.2671 189.316 95.2078C190.337 95.1485 191.36 95.291 192.326 95.6272L211.3 102.235C213.251 102.913 214.853 104.338 215.753 106.197C216.653 108.056 216.778 110.196 216.1 112.147C215.423 114.098 213.997 115.7 212.139 116.6C210.28 117.5 208.139 117.625 206.188 116.947Z"
        stroke="#263238" stroke-linecap="round" stroke-linejoin="round" />
    <path
        d="M211.3 102.23L201.62 98.8651L196.508 113.582L206.188 116.947C208.14 117.625 210.281 117.5 212.14 116.599C214 115.699 215.425 114.096 216.103 112.145C216.781 110.193 216.656 108.052 215.755 106.193C214.854 104.334 213.252 102.908 211.3 102.23Z"
        stroke="#263238" stroke-linecap="round" stroke-linejoin="round" />
    <path d="M208.94 123.508H211.352" stroke="#263238" stroke-linecap="round" stroke-linejoin="round" />
    <path d="M176.504 123.508H206.278" stroke="#263238" stroke-linecap="round" stroke-linejoin="round" />
    <path d="M176.504 128.837H211.352" stroke="#263238" stroke-linecap="round" stroke-linejoin="round" />
    <path d="M182.461 134.171H211.352" stroke="#263238" stroke-linecap="round" stroke-linejoin="round" />
    <path d="M176.504 134.171H178.964" stroke="#263238" stroke-linecap="round" stroke-linejoin="round" />
    <path d="M197.947 116.542H200.284" stroke="#263238" stroke-linecap="round" stroke-linejoin="round" />
    <path d="M175.272 98.5017V116.542H194.95" stroke="#263238" stroke-linecap="round" stroke-linejoin="round" />
    <path d="M208.275 71.6213H206.023" stroke="#263238" stroke-linecap="round" stroke-linejoin="round" />
    <path d="M213.811 100.55V71.6213H210.937" stroke="#263238" stroke-linecap="round" stroke-linejoin="round" />
    <path d="M187.983 71.4419H174.862V80.0512" stroke="#263238" stroke-linecap="round" stroke-linejoin="round" />
    <path
        d="M139.429 129.271C137.588 131.301 130.786 131.589 124.82 131.565C118.854 131.542 111.274 128.172 108.739 124.551C106.205 120.931 111.321 113.544 112.218 111.831C113.115 110.118 113.474 101.702 118.614 99.2333C123.754 96.7647 134.577 98.0486 138.093 100.649C141.609 103.25 149.02 107.795 150.228 112.294C151.436 116.792 147.222 116.844 146.863 117.061C146.504 117.278 145.919 117.49 145.013 119.208C144.737 119.71 144.339 120.134 143.855 120.441C143.372 120.747 142.818 120.925 142.247 120.959L139.429 129.271Z"
        fill="#263238" stroke="#263238" stroke-linecap="round" stroke-linejoin="round" />
    <path d="M144.984 110.92C148.402 111.822 150.648 112.921 148.944 114.12" stroke="#545454" stroke-linecap="round"
        stroke-linejoin="round" />
    <path d="M131.216 108.56C131.216 108.56 137.956 109.301 143.266 110.486" stroke="#545454" stroke-linecap="round"
        stroke-linejoin="round" />
    <path d="M128.308 107.456C128.308 107.456 136.96 104.572 145.173 108.121" stroke="#545454" stroke-linecap="round"
        stroke-linejoin="round" />
    <path d="M138.367 103.495C138.794 103.604 139.214 103.741 139.622 103.906" stroke="#545454" stroke-linecap="round"
        stroke-linejoin="round" />
    <path d="M125.203 106.568C125.203 106.568 130.428 102.986 135.978 103.165" stroke="#545454" stroke-linecap="round"
        stroke-linejoin="round" />
    <path d="M111.817 123.872C111.196 124.094 110.551 124.243 109.896 124.315" stroke="#545454" stroke-linecap="round"
        stroke-linejoin="round" />
    <path
        d="M127.44 111.227C127.44 111.227 121.228 117.438 117.235 120.766C116.078 121.744 114.802 122.57 113.436 123.225"
        stroke="#545454" stroke-linecap="round" stroke-linejoin="round" />
    <path d="M123.428 109.896C123.428 109.896 116.995 117.216 111.227 119.416" stroke="#545454" stroke-linecap="round"
        stroke-linejoin="round" />
    <path
        d="M182.664 195.181C182.664 195.181 184.887 197.187 185.18 197.759C185.472 198.33 186.563 200.765 186.162 200.827C185.76 200.888 184.793 199.335 184.505 198.684C184.217 198.032 183.089 196.324 183.089 196.324L182.664 195.181Z"
        fill="white" stroke="#263238" stroke-linecap="round" stroke-linejoin="round" />
    <path
        d="M181.272 193.77C181.272 193.77 182.806 195.186 183.098 195.757C183.391 196.328 184.76 201.483 184.76 201.483C184.76 201.483 184.099 202.011 183.636 201.756C183.174 201.502 181.555 196.409 181.555 196.409L181.272 193.77Z"
        fill="white" stroke="#263238" stroke-linecap="round" stroke-linejoin="round" />
    <path
        d="M177.784 191.547C177.784 191.547 180.587 193.024 181.272 193.77C181.956 194.516 183.042 200.694 183.259 201.261C183.476 201.827 182.178 202.247 181.871 201.997C181.564 201.747 180.304 196.352 180.304 196.352L177.774 192.264L177.784 191.547Z"
        fill="white" stroke="#263238" stroke-linecap="round" stroke-linejoin="round" />
    <path
        d="M171.128 190.863L176.434 190.966C176.885 190.976 177.329 191.091 177.729 191.3C178.13 191.51 178.476 191.809 178.742 192.175L180.97 195.271L181.352 201.431C181.355 201.508 181.342 201.584 181.315 201.656C181.287 201.728 181.245 201.794 181.191 201.848C181.137 201.903 181.072 201.947 181.001 201.975C180.93 202.004 180.853 202.018 180.776 202.016C180.657 202.009 180.543 201.965 180.45 201.891C180.357 201.816 180.29 201.715 180.257 201.601L178.713 196.031L176.688 195.087C176.688 195.087 173.587 196.786 173.654 197.107C173.72 197.428 175.457 199.576 175.834 200.067C176.212 200.558 177.132 201.398 176.873 201.865C176.613 202.332 175.041 201.865 174.513 201.52C173.984 201.176 171.1 197.551 170.019 196.8C168.938 196.05 167.777 195.266 167.777 195.266L171.128 190.863Z"
        fill="white" stroke="#263238" stroke-linecap="round" stroke-linejoin="round" />
    <path d="M170.18 192.288L169.457 196.276L168.249 195.309L170.18 192.288Z" fill="#263238" stroke="#263238"
        stroke-linecap="round" stroke-linejoin="round" />
    <path
        d="M147.264 140.698C147.264 140.698 152.036 141.973 152.706 145.088C153.376 148.203 156.326 178.888 156.326 178.888L172.138 189.163L167.352 196.55L152.338 193.6L143.545 139.712L147.264 140.698Z"
        fill="white" stroke="#263238" stroke-linecap="round" stroke-linejoin="round" />
    <path d="M156.326 178.888C156.326 178.888 154.235 179.992 153.494 180.984" stroke="#263238" stroke-linecap="round"
        stroke-linejoin="round" />
    <path
        d="M149.86 147.863L154.08 204.57L100.786 202.398C100.786 202.398 102.287 143.814 102.929 142.558C103.571 141.303 108.744 140.703 113.016 139.363C117.287 138.022 124.905 135.464 124.905 135.464L134.931 135.889C137.734 136.012 149.322 141.425 149.303 141.893"
        fill="white" />
    <path
        d="M149.86 147.863L154.08 204.57L100.786 202.398C100.786 202.398 102.287 143.814 102.929 142.558C103.571 141.303 108.744 140.703 113.016 139.363C117.287 138.022 124.905 135.464 124.905 135.464L134.931 135.889C137.734 136.012 149.322 141.425 149.303 141.893"
        stroke="#263238" stroke-linecap="round" stroke-linejoin="round" />
    <path d="M150.346 159.055H145.055V161.103H150.346V159.055Z" fill="#263238" stroke="#263238" stroke-linecap="round"
        stroke-linejoin="round" />
    <path d="M119.284 137.763L119.784 158.734L125.807 160.164L122.413 165.516L130.876 189.055" fill="white" />
    <path d="M119.284 137.763L119.784 158.734L125.807 160.164L122.413 165.516L130.876 189.055" stroke="#263238"
        stroke-linecap="round" stroke-linejoin="round" />
    <path
        d="M137.243 136.55C137.243 136.55 142.827 148.142 144.418 151.956C146.008 155.769 146.66 156.968 146.66 156.968L142.676 159.725L146.75 162.944L142.94 183.372"
        fill="white" />
    <path
        d="M137.243 136.55C137.243 136.55 142.827 148.142 144.418 151.956C146.008 155.769 146.66 156.968 146.66 156.968L142.676 159.725L146.75 162.944L142.94 183.372"
        stroke="#263238" stroke-linecap="round" stroke-linejoin="round" />
    <path
        d="M121.304 136.88C121.304 136.88 129.375 158.55 130.012 165.478C130.65 172.407 132.207 204.079 132.207 204.079L142.591 204.551C142.591 204.551 142.204 172.927 140.609 161.164C139.013 149.402 136.743 139.58 136.328 138.395C135.963 137.499 135.487 136.652 134.912 135.875L128.502 134.931L121.304 136.88Z"
        fill="#6E00D9" stroke="#263238" stroke-linecap="round" stroke-linejoin="round" />
    <path d="M141.109 172.318L137.149 180.493" stroke="#263238" stroke-linecap="round" stroke-linejoin="round" />
    <path d="M139.622 172.318L133.93 184.207" stroke="#263238" stroke-linecap="round" stroke-linejoin="round" />
    <path
        d="M124.655 127.228C124.655 127.228 124.688 134.605 124.537 135.417C124.386 136.229 122.021 135.936 121.974 136.989C121.927 138.041 125.514 147.981 129.007 151.059C132.5 154.136 133.576 153.712 134.614 151.3C135.653 148.888 135.96 144.149 136.03 142.629C136.059 141.954 136.2 140.269 136.03 139.448C135.785 138.291 135.473 136.639 134.496 135.969L134.124 135.714L134.279 132.094C134.279 132.094 128.327 131.603 124.655 127.228Z"
        fill="white" stroke="#263238" stroke-linecap="round" stroke-linejoin="round" />
    <path
        d="M134.119 135.714L134.275 132.094C134.275 132.094 128.327 131.622 124.655 127.228V127.275L124.901 128.408C124.901 128.408 127.213 135.209 134.492 135.96L134.119 135.714Z"
        fill="#263238" stroke="#263238" stroke-linecap="round" stroke-linejoin="round" />
    <path
        d="M130.348 109.334C130.348 109.334 123.74 107.295 123.452 106.346C123.164 105.398 123.48 103.071 122.64 103.514C121.8 103.958 121.913 106.757 123.046 107.625C124.178 108.494 130.447 109.702 130.876 110.656C131.306 111.609 130.687 112.284 128.578 115.003C126.468 117.722 117.287 121.776 117.245 122.72C117.202 123.664 118.25 126.496 119.883 126.694C120.916 126.785 121.951 126.543 122.838 126.005C123.986 128.188 125.681 130.035 127.756 131.367C131.06 133.382 135.827 134.171 138.721 132.193C140.302 131.107 143.092 125.826 143.304 123.612C143.516 121.398 142.336 118.892 142.36 117.948C142.384 117.004 142.45 115.848 142.45 115.848C142.45 115.848 134.223 111.279 133.095 110.292C132.309 109.679 131.344 109.342 130.348 109.334Z"
        fill="white" stroke="#263238" stroke-linecap="round" stroke-linejoin="round" />
    <path d="M128.932 115.829C128.932 115.829 131.292 114.318 133.652 115.503" stroke="#263238" stroke-linecap="round"
        stroke-linejoin="round" />
    <path d="M138.206 115.612C138.206 115.612 139.712 114.856 141.128 116.584" stroke="#263238" stroke-linecap="round"
        stroke-linejoin="round" />
    <path
        d="M136.918 119.685C136.918 119.685 136.734 121.313 137.182 121.686C137.63 122.059 138.56 122.328 138.065 123.013C137.569 123.697 136.04 123.744 135.374 122.895"
        stroke="#263238" stroke-linecap="round" stroke-linejoin="round" />
    <path d="M138.891 125.505C138.891 125.505 136.96 126.826 133.854 125.637" stroke="#263238" stroke-linecap="round"
        stroke-linejoin="round" />
    <path
        d="M131.929 119.388C131.9 120.034 131.509 120.544 131.06 120.52C130.612 120.497 130.263 119.964 130.291 119.317C130.319 118.67 130.706 118.165 131.159 118.184C131.612 118.203 131.957 118.746 131.929 119.388Z"
        fill="#263238" />
    <path
        d="M140.222 119.746C140.193 120.393 139.802 120.903 139.353 120.879C138.905 120.856 138.556 120.322 138.584 119.676C138.612 119.029 139.004 118.524 139.452 118.543C139.901 118.562 140.25 119.104 140.222 119.746Z"
        fill="#263238" />
    <path
        d="M134.162 116.763L128.456 116.516C127.774 116.486 127.197 117.016 127.167 117.698L127.072 119.9C127.042 120.583 127.572 121.16 128.254 121.189L133.96 121.436C134.642 121.466 135.219 120.937 135.249 120.254L135.344 118.052C135.374 117.37 134.844 116.793 134.162 116.763Z"
        stroke="#263238" stroke-linecap="round" stroke-linejoin="round" />
    <path
        d="M142.69 117.136L138.153 116.94C137.471 116.91 136.894 117.44 136.864 118.122L136.769 120.324C136.739 121.006 137.268 121.583 137.951 121.613L142.487 121.81C143.17 121.839 143.747 121.31 143.776 120.628L143.872 118.425C143.901 117.743 143.372 117.166 142.69 117.136Z"
        stroke="#263238" stroke-linecap="round" stroke-linejoin="round" />
    <path d="M135.379 117.396L136.781 117.457" stroke="#263238" stroke-linecap="round" stroke-linejoin="round" />
    <path d="M127.138 118.562L123.867 118.42" stroke="#263238" stroke-linecap="round" stroke-linejoin="round" />
    <path
        d="M129.842 188.087C129.842 188.087 133.274 187.936 134.492 187.393C135.709 186.851 144.29 184.561 144.729 184.708C146.194 185.312 147.614 186.02 148.977 186.827C149.671 187.337 151.163 191.401 151.729 193.01C151.798 193.188 151.796 193.386 151.722 193.562C151.648 193.739 151.508 193.879 151.333 193.954C151.168 194.03 150.982 194.044 150.808 193.993C150.634 193.942 150.485 193.829 150.389 193.676L149.152 191.693L150.044 195.403C150.093 195.598 150.066 195.804 149.969 195.979C149.872 196.154 149.711 196.286 149.52 196.347C149.368 196.397 149.205 196.4 149.052 196.355C148.899 196.31 148.762 196.22 148.661 196.097L145.754 192.505L144.338 191.089L147.311 196.612C147.365 196.713 147.394 196.825 147.396 196.94C147.398 197.055 147.373 197.168 147.323 197.271C147.273 197.374 147.199 197.464 147.108 197.533C147.016 197.602 146.91 197.649 146.797 197.669C146.684 197.688 146.569 197.68 146.46 197.647C146.351 197.613 146.251 197.554 146.169 197.475C145.315 196.645 142.671 194.072 142.44 193.699C141.964 193.135 141.438 192.615 140.868 192.146L143.757 197.631C143.81 197.707 143.846 197.794 143.862 197.885C143.879 197.976 143.875 198.07 143.852 198.16C143.828 198.249 143.786 198.333 143.727 198.405C143.668 198.476 143.595 198.535 143.512 198.575H143.469C142.487 198.613 141.992 197.914 141.288 197.225L138.249 194.252C138.249 194.252 133.59 195.238 132.264 194.884C130.938 194.53 127.912 192.165 127.912 192.165L129.842 188.087Z"
        fill="white" stroke="#263238" stroke-linecap="round" stroke-linejoin="round" />
    <path d="M129.842 188.087L129.71 193.374L127.879 192.17L129.842 188.087Z" fill="#263238" stroke="#263238"
        stroke-linecap="round" stroke-linejoin="round" />
    <path d="M149.133 191.693L148.09 189.584L144.408 186.893" fill="white" />
    <path d="M149.133 191.693L148.09 189.584L144.408 186.893" stroke="#263238" stroke-linecap="round"
        stroke-linejoin="round" />
    <path d="M144.305 191.094L142.634 189.348" stroke="#263238" stroke-linecap="round" stroke-linejoin="round" />
    <path
        d="M107.894 141.274C107.894 141.274 103.288 141.076 102.023 142.808C100.758 144.541 97.8126 185.737 97.8834 187.526C97.9542 189.314 126.35 196.569 126.35 196.569L130.451 187.814L113.492 177.779L114.479 154.368"
        fill="white" />
    <path
        d="M107.894 141.274C107.894 141.274 103.288 141.076 102.023 142.808C100.758 144.541 97.8126 185.737 97.8834 187.526C97.9542 189.314 126.35 196.569 126.35 196.569L130.451 187.814L113.492 177.779L114.479 154.368"
        stroke="#263238" stroke-linecap="round" stroke-linejoin="round" />
    <path d="M105.945 178.015C105.945 178.015 110.391 175.806 113.497 177.779" stroke="#263238" stroke-linecap="round"
        stroke-linejoin="round" />
    <path d="M107.701 179.407C109.097 178.563 110.695 178.11 112.327 178.095" stroke="#263238" stroke-linecap="round"
        stroke-linejoin="round" />
    <path d="M105.487 181.593C105.591 181.409 105.709 181.233 105.841 181.069" stroke="#263238" stroke-linecap="round"
        stroke-linejoin="round" />
    <path
        d="M215.987 189.971C215.987 189.971 213.877 187.29 213.877 185.661C213.877 184.033 215.506 186.431 215.506 186.431C215.506 186.431 212.06 180.11 212.348 177.524C212.636 174.937 215.218 182.027 215.218 182.027C215.218 182.027 214.359 167.475 215.794 167.952C217.229 168.428 219.05 182.112 219.05 182.985C219.05 183.858 220.292 176.953 221.25 178.964C222.208 180.974 222.194 185.76 222.194 185.76C222.194 185.76 223.44 178.482 224.398 180.974C225.356 183.466 223.256 190.065 223.256 190.065"
        fill="#6E00D9" />
    <path d="M225.658 192.184H214.005V201.856H225.658V192.184Z" stroke="#263238" stroke-linecap="round"
        stroke-linejoin="round" />
    <path
        d="M225.753 195.535V190.037H213.953V196.352C213.953 196.728 214.102 197.088 214.368 197.353C214.633 197.619 214.993 197.768 215.369 197.768H215.444C215.82 197.768 216.18 197.619 216.446 197.353C216.711 197.088 216.86 196.728 216.86 196.352V195.554H216.936V196.352C216.936 196.728 217.085 197.088 217.351 197.353C217.616 197.619 217.976 197.768 218.352 197.768H218.427C218.803 197.768 219.163 197.619 219.429 197.353C219.694 197.088 219.843 196.728 219.843 196.352V195.554H219.919V196.352C219.919 196.728 220.068 197.088 220.334 197.353C220.599 197.619 220.959 197.768 221.335 197.768H221.406C221.781 197.768 222.141 197.619 222.407 197.353C222.673 197.088 222.822 196.728 222.822 196.352V195.554H222.897V196.352C222.897 196.728 223.046 197.088 223.312 197.353C223.578 197.619 223.938 197.768 224.313 197.768H224.384C224.76 197.768 225.12 197.619 225.385 197.353C225.651 197.088 225.8 196.728 225.8 196.352V195.554L225.753 195.535Z"
        fill="white" stroke="#263238" stroke-linecap="round" stroke-linejoin="round" />
    <path d="M84.1151 194.639V190.575H75.2321V194.488L84.1151 194.639Z" fill="#BFBFBF" stroke="#263238"
        stroke-linecap="round" stroke-linejoin="round" />
    <path
        d="M75.2321 190.575L74.3305 188.465C76.0916 188.304 77.8669 188.406 79.5981 188.767C81.2059 189.074 82.7395 189.688 84.1151 190.575H75.2321Z"
        fill="white" stroke="#263238" stroke-linecap="round" stroke-linejoin="round" />
    <path
        d="M74.3305 188.465C74.3305 188.465 71.3192 188.616 69.6625 190.726C68.6316 192.135 68.0064 193.8 67.8547 195.54L75.2321 194.488V190.575L74.3305 188.465Z"
        fill="white" stroke="#263238" stroke-linecap="round" stroke-linejoin="round" />
    <path
        d="M72.8249 191.929V194.936L70.564 195.087C70.5026 194.255 70.6656 193.422 71.036 192.675C71.1887 192.351 71.4562 192.095 71.7868 191.958C72.1173 191.82 72.4873 191.81 72.8249 191.929Z"
        fill="white" stroke="#263238" stroke-linecap="round" stroke-linejoin="round" />
    <path d="M74.93 203.522H70.2666L67.2553 198.249L73.127 196.748L74.93 203.522Z" fill="white" stroke="#263238"
        stroke-linecap="round" stroke-linejoin="round" />
    <path d="M95.2543 197.801L92.243 203.522H74.93L72.3718 198.552L95.2543 197.801Z" fill="#A6A6A6" stroke="#263238"
        stroke-linecap="round" stroke-linejoin="round" />
    <path d="M72.3765 198.556H96.1606V194.341H72.3765V198.556Z" fill="#BFBFBF" stroke="#263238" stroke-linecap="round"
        stroke-linejoin="round" />
    <path d="M72.3718 194.337L66.8022 196.295V198.854L72.3718 198.552V194.337Z" fill="white" stroke="#263238"
        stroke-linecap="round" stroke-linejoin="round" />
    <path d="M134.105 200.775L164.591 200.312L167.716 199.802H199.51L198.467 201.945H133.321L134.105 200.775Z"
        fill="#263238" stroke="#263238" stroke-linecap="round" stroke-linejoin="round" />
    <path d="M206.165 192.798H167.074L172.554 153.476H211.64L206.165 192.798Z" fill="#263238" stroke="#263238"
        stroke-linecap="round" stroke-linejoin="round" />
    <path d="M207.911 192.798H168.82L174.3 153.476H213.391L207.911 192.798Z" fill="#3D3D3D" stroke="#263238"
        stroke-linecap="round" stroke-linejoin="round" />
    <path d="M196.201 180.54H183.943L186.006 165.738H198.264L196.201 180.54Z" fill="#3D3D3D" stroke="#263238"
        stroke-linecap="round" stroke-linejoin="round" />
    <path d="M186.006 165.738L174.3 153.476H213.391L198.264 165.738H186.006Z" fill="#595959" stroke="#263238"
        stroke-linecap="round" stroke-linejoin="round" />
    <path d="M183.943 180.54L169.689 192.67L207.911 192.798L196.201 180.54H183.943Z" fill="#2E2E2E" stroke="#263238"
        stroke-linecap="round" stroke-linejoin="round" />
    <path
        d="M192.666 183.235C196.717 183.235 200.001 179.951 200.001 175.9C200.001 171.849 196.717 168.565 192.666 168.565C188.615 168.565 185.331 171.849 185.331 175.9C185.331 179.951 188.615 183.235 192.666 183.235Z"
        fill="#263238" stroke="#263238" stroke-linecap="round" stroke-linejoin="round" />
    <path
        d="M193.336 172.181H193.808C195.077 172.181 196.295 172.685 197.192 173.583C198.09 174.48 198.594 175.698 198.594 176.967V202.927H188.55V176.967C188.55 175.698 189.054 174.48 189.952 173.583C190.849 172.685 192.067 172.181 193.336 172.181Z"
        fill="#595959" stroke="#263238" stroke-linecap="round" stroke-linejoin="round" />
    <path
        d="M198.594 202.922V177.203C198.461 176.084 197.888 175.064 197.003 174.366C196.117 173.669 194.991 173.353 193.872 173.486C192.753 173.619 191.732 174.192 191.035 175.077C190.338 175.963 190.021 177.089 190.155 178.208V202.922H198.594Z"
        fill="#595959" stroke="#263238" stroke-linecap="round" stroke-linejoin="round" />
    <path
        d="M195.134 190.06H195.016C194.328 190.06 193.77 190.618 193.77 191.306V195.446C193.77 196.134 194.328 196.692 195.016 196.692H195.134C195.822 196.692 196.38 196.134 196.38 195.446V191.306C196.38 190.618 195.822 190.06 195.134 190.06Z"
        fill="#263238" stroke="#263238" stroke-linecap="round" stroke-linejoin="round" />
    <path d="M198.792 200.51H180.309V202.922H198.792V200.51Z" fill="#595959" stroke="#263238" stroke-linecap="round"
        stroke-linejoin="round" />
    <path d="M230.501 201.917H9.3692V206.137H230.501V201.917Z" fill="#263238" stroke="#263238" stroke-linecap="round"
        stroke-linejoin="round" />
</svg>