<svg width="236" height="236" viewBox="0 0 236 236" fill="none" xmlns="http://www.w3.org/2000/svg">
    <path
        d="M206.557 147.509C207.341 141.493 207.463 135.409 206.92 129.366C202.488 76.497 158.219 20.5462 108.395 33.512C91.181 37.9913 78.4228 50.2302 70.8283 67.8122C65.254 80.712 61.2986 95.816 52.2362 106.129C37.3635 123.074 19.4134 149.582 41.9797 172.752C64.546 195.922 92.2335 180.87 115.824 179.676C135.648 178.671 155.689 186.058 175.457 183.4C194.237 180.852 203.998 166.144 206.557 147.509Z"
        fill="#6E00D9" />
    <path opacity="0.7"
        d="M206.557 147.509C207.341 141.493 207.463 135.409 206.92 129.366C202.488 76.497 158.219 20.5462 108.395 33.512C91.181 37.9913 78.4228 50.2302 70.8283 67.8122C65.254 80.712 61.2986 95.816 52.2362 106.129C37.3635 123.074 19.4134 149.582 41.9797 172.752C64.546 195.922 92.2335 180.87 115.824 179.676C135.648 178.671 155.689 186.058 175.457 183.4C194.237 180.852 203.998 166.144 206.557 147.509Z"
        fill="white" />
    <path
        d="M136.597 58.259V163.156H202.016V58.259H136.597ZM170.737 60.803H199.656V83.9688H170.737V60.803ZM170.737 86.5129H199.656V109.438H170.737V86.5129ZM170.737 112.001H199.656V135.417H170.737V112.001ZM168.348 160.617H138.99V137.961H168.348V160.617ZM168.348 135.398H138.99V111.977H168.348V135.398ZM168.348 109.438H138.99V86.5129H168.348V109.438ZM168.348 83.9499H138.99V60.803H168.348V83.9499ZM170.737 160.593V137.937H199.656V160.593H170.737Z"
        fill="#B2B2B2" />
    <path d="M83.3458 75.3642H54.9597V113.78H83.3458V75.3642Z" fill="#B2B2B2" />
    <path d="M80.6648 78.9892H57.6406V110.146H80.6648V78.9892Z" fill="white" />
    <path d="M60.5104 118.208H38.2603V148.317H60.5104V118.208Z" fill="#B2B2B2" />
    <path d="M58.4053 121.054H40.3607V145.475H58.4053V121.054Z" fill="white" />
    <mask id="mask0_203_600" style="mask-type:luminance" maskUnits="userSpaceOnUse" x="25" y="147" width="79"
        height="46">
        <path d="M103.212 147.59H25.488V192.585H103.212V147.59Z" fill="white" />
    </mask>
    <g mask="url(#mask0_203_600)">
        <path
            d="M93.5362 187.762H58.0843V161.584C58.0843 159.126 59.061 156.768 60.7994 155.03C62.5379 153.291 64.8958 152.314 67.3544 152.314H84.2614C86.72 152.314 89.0779 153.291 90.8164 155.03C92.5548 156.768 93.5315 159.126 93.5315 161.584V187.762H93.5362Z"
            fill="white" stroke="#263238" stroke-miterlimit="10" />
        <path
            d="M52.8121 212.098H27.8763L27.8763 182.074C27.8763 179.519 28.8913 177.069 30.6979 175.262C32.5045 173.455 34.9549 172.44 37.5098 172.44H52.8121L52.8121 212.088V212.098Z"
            fill="white" />
        <path
            d="M52.8121 212.098H27.8763L27.8763 182.074C27.8763 179.519 28.8913 177.069 30.6979 175.262C32.5045 173.455 34.9549 172.44 37.5098 172.44H52.8121L52.8121 212.088V212.098Z"
            stroke="#263238" stroke-miterlimit="10" />
        <path
            d="M59.7363 212.098H34.8006V182.074C34.8006 179.519 35.8155 177.069 37.6222 175.262C39.4288 173.455 41.8791 172.44 44.4341 172.44H59.7363L59.7363 212.088V212.098Z"
            fill="white" stroke="#263238" stroke-miterlimit="10" />
        <path
            d="M88.1224 187.762H52.6705V161.584C52.6705 159.126 53.6471 156.768 55.3856 155.03C57.1241 153.291 59.482 152.314 61.9405 152.314H78.8523C81.3109 152.314 83.6688 153.291 85.4072 155.03C87.1457 156.768 88.1224 159.126 88.1224 161.584V187.762Z"
            fill="white" />
        <path
            d="M88.1224 187.762H52.6705V161.584C52.6705 159.126 53.6471 156.768 55.3856 155.03C57.1241 153.291 59.482 152.314 61.9405 152.314H78.8523C81.3109 152.314 83.6688 153.291 85.4072 155.03C87.1457 156.768 88.1224 159.126 88.1224 161.584V187.762Z"
            stroke="#263238" stroke-miterlimit="10" />
        <path
            d="M84.2473 212.098H36.7971V190.211C36.7971 189.322 37.1502 188.47 37.7787 187.842C38.4071 187.213 39.2595 186.86 40.1483 186.86H84.2473V212.098Z"
            fill="white" />
        <path
            d="M84.2473 212.098H36.7971V190.211C36.7971 189.322 37.1502 188.47 37.7787 187.842C38.4071 187.213 39.2595 186.86 40.1483 186.86H84.2473V212.098Z"
            stroke="#263238" stroke-miterlimit="10" />
        <path
            d="M86.6025 212.098H61.6668V182.074C61.6668 179.519 62.6817 177.069 64.4884 175.262C66.295 173.455 68.7453 172.44 71.3003 172.44H86.6025V212.088V212.098Z"
            fill="white" />
        <path
            d="M86.6025 212.098H61.6668V182.074C61.6668 179.519 62.6817 177.069 64.4884 175.262C66.295 173.455 68.7453 172.44 71.3003 172.44H86.6025V212.088V212.098Z"
            stroke="#263238" stroke-miterlimit="10" />
        <path
            d="M93.5362 212.098H68.6005V182.074C68.6005 179.519 69.6154 177.069 71.4221 175.262C73.2287 173.455 75.679 172.44 78.234 172.44H93.5362V212.088V212.098Z"
            fill="white" stroke="#263238" stroke-miterlimit="10" />
    </g>
    <path d="M125.524 192.585L124.438 182.494H75.841L73.2355 192.585H125.524Z" fill="#263238" stroke="#263238"
        stroke-linecap="round" stroke-linejoin="round" />
    <path
        d="M131.372 82.4442C131.372 83.0578 130.428 83.629 130.357 84.2331C130.286 84.8373 131.178 85.5594 131.079 86.1589C130.98 86.7583 129.942 87.1784 129.8 87.792C129.658 88.4056 130.395 89.2316 130.206 89.8074C130.017 90.3833 128.922 90.6334 128.686 91.1951C128.45 91.7568 129.054 92.7102 128.78 93.253C128.507 93.7958 127.364 93.8666 127.062 94.3906C126.76 94.9145 127.199 95.9387 126.841 96.4343C126.482 96.9299 125.368 96.8355 124.953 97.3028C124.537 97.7701 124.858 98.8557 124.433 99.2946C124.009 99.7336 122.918 99.4787 122.465 99.8846C122.012 100.291 122.149 101.409 121.667 101.773C121.186 102.136 120.143 101.74 119.633 102.079C119.123 102.419 119.114 103.543 118.585 103.849C118.057 104.156 117.075 103.613 116.527 103.882C115.98 104.152 115.815 105.261 115.248 105.497C114.682 105.733 113.785 105.053 113.204 105.251C112.624 105.45 112.317 106.521 111.722 106.667C111.128 106.814 110.335 106.04 109.731 106.158C109.126 106.276 108.683 107.3 108.079 107.38C107.474 107.46 106.781 106.578 106.167 106.615C105.553 106.653 104.982 107.616 104.369 107.616C103.755 107.616 103.174 106.672 102.57 106.615C101.966 106.559 101.258 107.456 100.659 107.38C100.059 107.304 99.5967 106.276 99.002 106.158C98.4073 106.04 97.586 106.823 97.0101 106.667C96.4343 106.512 96.1039 105.435 95.5281 105.251C94.9522 105.067 94.046 105.723 93.4843 105.492C92.9226 105.261 92.7527 104.152 92.2052 103.882C91.6577 103.613 90.6759 104.156 90.1473 103.849C89.6186 103.543 89.6045 102.433 89.0994 102.079C88.5944 101.725 87.5418 102.146 87.0651 101.768C86.5884 101.39 86.7206 100.276 86.2674 99.8799C85.8143 99.4834 84.7193 99.7289 84.2992 99.2899C83.8791 98.851 84.1717 97.7654 83.78 97.2981C83.3882 96.8308 82.2696 96.9252 81.892 96.4296C81.5144 95.934 81.9864 94.905 81.6701 94.3811C81.3539 93.8572 80.2541 93.7911 79.9568 93.2483C79.6594 92.7055 80.2777 91.7521 80.0465 91.1904C79.8152 90.6287 78.7154 90.3833 78.5266 89.8027C78.3378 89.2222 79.0789 88.3867 78.9373 87.7873C78.7957 87.1878 77.7478 86.7819 77.6534 86.1778C77.559 85.5736 78.4228 84.8656 78.3756 84.252C78.3284 83.6384 77.408 83.072 77.408 82.4442C77.408 81.8165 78.3756 81.2548 78.4228 80.6506C78.47 80.0465 77.6062 79.3243 77.7006 78.7249C77.795 78.1254 78.8429 77.7054 78.9845 77.1154C79.1261 76.5254 78.385 75.6994 78.5738 75.0999C78.7626 74.5005 79.8624 74.2739 80.0937 73.7122C80.325 73.1506 79.7255 72.2018 80.004 71.659C80.2825 71.1162 81.42 71.0407 81.7174 70.5215C82.0147 70.0023 81.5852 68.9686 81.9392 68.473C82.2932 67.9774 83.4118 68.0718 83.8272 67.6046C84.2426 67.1373 83.9216 66.0517 84.3464 65.6127C84.7712 65.1738 85.8615 65.4286 86.3194 65.0227C86.7772 64.6168 86.6309 63.4982 87.1123 63.1347C87.5937 62.7713 88.6416 63.163 89.1466 62.8232C89.6517 62.4834 89.6658 61.36 90.1945 61.0532C90.7231 60.7464 91.7049 61.2939 92.2524 61.0202C92.7999 60.7464 92.9651 59.6419 93.5315 59.4106C94.0979 59.1794 94.9947 59.8496 95.5753 59.6561C96.1558 59.4626 96.4626 58.3817 97.0574 58.2401C97.6521 58.0985 98.4498 58.8678 99.0492 58.7498C99.6486 58.6318 100.097 57.6076 100.706 57.5274C101.315 57.4471 102.004 58.3345 102.618 58.292C103.231 58.2495 103.798 57.2914 104.416 57.2914C105.034 57.2914 105.61 58.2354 106.214 58.292C106.818 58.3486 107.522 57.4518 108.102 57.5274C108.683 57.6029 109.164 58.6366 109.759 58.7498C110.354 58.8631 111.175 58.0843 111.751 58.2401C112.327 58.3958 112.657 59.4767 113.233 59.6561C113.809 59.8354 114.715 59.1841 115.277 59.4106C115.838 59.6372 116.013 60.7558 116.556 61.0202C117.098 61.2845 118.09 60.7464 118.614 61.0532C119.138 61.36 119.161 62.4692 119.661 62.8232C120.162 63.1772 121.219 62.7618 121.696 63.1347C122.172 63.5076 122.04 64.6262 122.493 65.0227C122.947 65.4192 124.042 65.1785 124.462 65.6127C124.882 66.047 124.594 67.1373 124.981 67.6046C125.368 68.0718 126.491 67.9822 126.869 68.473C127.246 68.9639 126.774 70.0023 127.091 70.5215C127.407 71.0407 128.53 71.1162 128.809 71.659C129.087 72.2018 128.483 73.1506 128.714 73.7122C128.946 74.2739 130.045 74.5194 130.234 75.0999C130.423 75.6805 129.682 76.5159 129.828 77.1154C129.975 77.7148 131.013 78.1207 131.107 78.7249C131.202 79.329 130.338 80.0418 130.385 80.6506C130.432 81.2595 131.372 81.8259 131.372 82.4442Z"
        fill="#263238" />
    <mask id="mask1_203_600" style="mask-type:luminance" maskUnits="userSpaceOnUse" x="77" y="57" width="55"
        height="51">
        <path
            d="M131.372 82.4442C131.372 83.0578 130.428 83.629 130.357 84.2331C130.286 84.8373 131.178 85.5594 131.079 86.1589C130.98 86.7583 129.942 87.1784 129.8 87.792C129.658 88.4056 130.395 89.2316 130.206 89.8074C130.017 90.3833 128.922 90.6334 128.686 91.1951C128.45 91.7568 129.054 92.7102 128.78 93.253C128.507 93.7958 127.364 93.8666 127.062 94.3906C126.76 94.9145 127.199 95.9387 126.841 96.4343C126.482 96.9299 125.368 96.8355 124.953 97.3028C124.537 97.7701 124.858 98.8557 124.433 99.2946C124.009 99.7336 122.918 99.4787 122.465 99.8846C122.012 100.291 122.149 101.409 121.667 101.773C121.186 102.136 120.143 101.74 119.633 102.079C119.123 102.419 119.114 103.543 118.585 103.849C118.057 104.156 117.075 103.613 116.527 103.882C115.98 104.152 115.815 105.261 115.248 105.497C114.682 105.733 113.785 105.053 113.204 105.251C112.624 105.45 112.317 106.521 111.722 106.667C111.128 106.814 110.335 106.04 109.731 106.158C109.126 106.276 108.683 107.3 108.079 107.38C107.474 107.46 106.781 106.578 106.167 106.615C105.553 106.653 104.982 107.616 104.369 107.616C103.755 107.616 103.174 106.672 102.57 106.615C101.966 106.559 101.258 107.456 100.659 107.38C100.059 107.304 99.5967 106.276 99.002 106.158C98.4073 106.04 97.586 106.823 97.0101 106.667C96.4343 106.512 96.1039 105.435 95.5281 105.251C94.9522 105.067 94.046 105.723 93.4843 105.492C92.9226 105.261 92.7527 104.152 92.2052 103.882C91.6577 103.613 90.6759 104.156 90.1473 103.849C89.6186 103.543 89.6045 102.433 89.0994 102.079C88.5944 101.725 87.5418 102.146 87.0651 101.768C86.5884 101.39 86.7206 100.276 86.2674 99.8799C85.8143 99.4834 84.7193 99.7289 84.2992 99.2899C83.8791 98.851 84.1717 97.7654 83.78 97.2981C83.3882 96.8308 82.2696 96.9252 81.892 96.4296C81.5144 95.934 81.9864 94.905 81.6701 94.3811C81.3539 93.8572 80.2541 93.7911 79.9568 93.2483C79.6594 92.7055 80.2777 91.7521 80.0465 91.1904C79.8152 90.6287 78.7154 90.3833 78.5266 89.8027C78.3378 89.2222 79.0789 88.3867 78.9373 87.7873C78.7957 87.1878 77.7478 86.7819 77.6534 86.1778C77.559 85.5736 78.4228 84.8656 78.3756 84.252C78.3284 83.6384 77.408 83.072 77.408 82.4442C77.408 81.8165 78.3756 81.2548 78.4228 80.6506C78.47 80.0465 77.6062 79.3243 77.7006 78.7249C77.795 78.1254 78.8429 77.7054 78.9845 77.1154C79.1261 76.5254 78.385 75.6994 78.5738 75.0999C78.7626 74.5005 79.8624 74.2739 80.0937 73.7122C80.325 73.1506 79.7255 72.2018 80.004 71.659C80.2825 71.1162 81.42 71.0407 81.7174 70.5215C82.0147 70.0023 81.5852 68.9686 81.9392 68.473C82.2932 67.9774 83.4118 68.0718 83.8272 67.6046C84.2426 67.1373 83.9216 66.0517 84.3464 65.6127C84.7712 65.1738 85.8615 65.4286 86.3194 65.0227C86.7772 64.6168 86.6309 63.4982 87.1123 63.1347C87.5937 62.7713 88.6416 63.163 89.1466 62.8232C89.6517 62.4834 89.6658 61.36 90.1945 61.0532C90.7231 60.7464 91.7049 61.2939 92.2524 61.0202C92.7999 60.7464 92.9651 59.6419 93.5315 59.4106C94.0979 59.1794 94.9947 59.8496 95.5753 59.6561C96.1558 59.4626 96.4626 58.3817 97.0574 58.2401C97.6521 58.0985 98.4498 58.8678 99.0492 58.7498C99.6486 58.6318 100.097 57.6076 100.706 57.5274C101.315 57.4471 102.004 58.3345 102.618 58.292C103.231 58.2495 103.798 57.2914 104.416 57.2914C105.034 57.2914 105.61 58.2354 106.214 58.292C106.818 58.3486 107.522 57.4518 108.102 57.5274C108.683 57.6029 109.164 58.6366 109.759 58.7498C110.354 58.8631 111.175 58.0843 111.751 58.2401C112.327 58.3958 112.657 59.4767 113.233 59.6561C113.809 59.8354 114.715 59.1841 115.277 59.4106C115.838 59.6372 116.013 60.7558 116.556 61.0202C117.098 61.2845 118.09 60.7464 118.614 61.0532C119.138 61.36 119.161 62.4692 119.661 62.8232C120.162 63.1772 121.219 62.7618 121.696 63.1347C122.172 63.5076 122.04 64.6262 122.493 65.0227C122.947 65.4192 124.042 65.1785 124.462 65.6127C124.882 66.047 124.594 67.1373 124.981 67.6046C125.368 68.0718 126.491 67.9822 126.869 68.473C127.246 68.9639 126.774 70.0023 127.091 70.5215C127.407 71.0407 128.53 71.1162 128.809 71.659C129.087 72.2018 128.483 73.1506 128.714 73.7122C128.946 74.2739 130.045 74.5194 130.234 75.0999C130.423 75.6805 129.682 76.5159 129.828 77.1154C129.975 77.7148 131.013 78.1207 131.107 78.7249C131.202 79.329 130.338 80.0418 130.385 80.6506C130.432 81.2595 131.372 81.8259 131.372 82.4442Z"
            fill="white" />
    </mask>
    <g mask="url(#mask1_203_600)">
        <path opacity="0.1"
            d="M131.372 82.4442C131.372 81.8259 130.428 81.2548 130.362 80.6506C130.296 80.0465 131.178 79.3243 131.079 78.7249C130.98 78.1254 129.942 77.7054 129.8 77.1154C129.658 76.5254 130.395 75.6994 130.206 75.0999C130.017 74.5005 128.922 74.2739 128.686 73.7122C128.45 73.1506 129.054 72.2018 128.78 71.659C128.507 71.1162 127.364 71.0407 127.062 70.5215C126.76 70.0023 127.199 68.9734 126.841 68.473C126.482 67.9727 125.368 68.0766 124.953 67.6046C124.537 67.1326 124.858 66.0564 124.433 65.6127C124.009 65.169 122.918 65.4334 122.465 65.0227C122.012 64.6121 122.154 63.5029 121.667 63.1347C121.181 62.7666 120.143 63.1678 119.633 62.8232C119.123 62.4786 119.114 61.36 118.585 61.0532C118.057 60.7464 117.075 61.2939 116.527 61.0202C115.98 60.7464 115.815 59.6419 115.248 59.4106C114.682 59.1794 113.785 59.8496 113.204 59.6561C112.624 59.4626 112.317 58.3817 111.722 58.2401C111.128 58.0985 110.335 58.8678 109.731 58.7498C109.126 58.6318 108.683 57.6076 108.074 57.5274C107.465 57.4471 106.781 58.3345 106.186 58.292C105.591 58.2495 105.001 57.2914 104.388 57.2914C103.774 57.2914 103.193 58.2354 102.589 58.292C101.985 58.3486 101.277 57.4518 100.678 57.5274C100.078 57.6029 99.6156 58.6366 99.0209 58.7498C98.4261 58.8631 97.6049 58.0843 97.029 58.2401C96.4532 58.3958 96.1228 59.4767 95.5469 59.6561C94.9711 59.8354 94.0649 59.1841 93.5032 59.4106C92.9415 59.6372 92.7716 60.7558 92.2241 61.0202C91.6765 61.2845 90.6948 60.7464 90.1661 61.0532C89.6375 61.36 89.6233 62.4692 89.1183 62.8232C88.6133 63.1772 87.5654 62.7618 87.084 63.1347C86.6025 63.5076 86.7394 64.6262 86.291 65.0227C85.8426 65.4192 84.7429 65.1738 84.3181 65.6127C83.8933 66.0517 84.1906 67.1373 83.7989 67.6046C83.4071 68.0718 82.2885 67.9774 81.9109 68.473C81.5333 68.9686 82.0053 69.9976 81.689 70.5215C81.3728 71.0454 80.273 71.1115 79.9757 71.659C79.6783 72.2066 80.3014 73.1506 80.0654 73.7122C79.8294 74.2739 78.7343 74.5194 78.5455 75.0999C78.3567 75.6805 79.0977 76.5159 78.9561 77.1154C78.8145 77.7148 77.7667 78.1207 77.6723 78.7249C77.5779 79.329 78.4417 80.0418 78.3945 80.6506C78.3473 81.2595 77.3797 81.8259 77.3797 82.4442C77.3797 83.0626 78.3473 83.629 78.3945 84.2331C78.4417 84.8373 77.5779 85.5594 77.6723 86.1589C77.7667 86.7583 78.8145 87.1784 78.9561 87.7684C79.0977 88.3584 78.3567 89.208 78.5455 89.7838C78.7343 90.3597 79.8294 90.6098 80.0654 91.1715C80.3014 91.7332 79.6972 92.6866 79.9757 93.2294C80.1229 93.4498 80.3385 93.6157 80.5893 93.7014C80.4477 93.187 80.0653 92.6064 80.2069 92.1722C80.3957 91.5916 81.4955 91.3462 81.7268 90.7845C81.9581 90.2228 81.3634 89.2741 81.6371 88.7313C81.9109 88.1885 83.0531 88.113 83.3505 87.5938C83.6478 87.0746 83.2183 86.0409 83.5723 85.5453C83.9263 85.0497 85.0497 85.1488 85.4367 84.6768C85.8237 84.2048 85.5358 83.1286 85.9559 82.685C86.376 82.2413 87.4757 82.5056 87.9289 82.095C88.382 81.6843 88.2404 80.5751 88.7218 80.207C89.2033 79.8388 90.2511 80.2353 90.7561 79.8954C91.2612 79.5556 91.2801 78.4322 91.8087 78.1254C92.3373 77.8186 93.3144 78.3662 93.8666 78.0924C94.4189 77.8186 94.5794 76.7142 95.141 76.4829C95.7027 76.2516 96.6042 76.9218 97.1848 76.7283C97.7653 76.5348 98.0769 75.4539 98.6669 75.3123C99.2569 75.1707 100.083 75.9401 100.659 75.8221C101.235 75.7041 101.707 74.6798 102.315 74.5996C102.924 74.5194 103.613 75.4067 104.203 75.3642C104.793 75.3218 105.388 74.3636 106.002 74.3636C106.615 74.3636 107.196 75.3076 107.8 75.3642C108.404 75.4209 109.108 74.5241 109.712 74.5996C110.316 74.6751 110.769 75.7088 111.364 75.8221C111.958 75.9354 112.78 75.1566 113.36 75.3123C113.941 75.4681 114.266 76.549 114.842 76.7283C115.418 76.9077 116.324 76.2563 116.886 76.4829C117.448 76.7094 117.618 77.8281 118.16 78.0971C118.703 78.3662 119.694 77.8234 120.218 78.1254C120.742 78.4275 120.766 79.5414 121.271 79.8954C121.776 80.2494 122.824 79.8341 123.305 80.207C123.787 80.5798 123.645 81.6985 124.098 82.095C124.551 82.4914 125.646 82.2507 126.071 82.6897C126.496 83.1286 126.199 84.2095 126.59 84.6768C126.982 85.1441 128.101 85.0544 128.455 85.55C128.809 86.0456 128.36 87.0746 128.677 87.5938C128.87 87.91 129.361 88.0658 129.776 88.2546C129.799 88.3362 129.826 88.4165 129.857 88.4953C129.774 88.2703 129.755 88.0272 129.8 87.792C129.942 87.202 130.985 86.7866 131.079 86.1825C131.174 85.5783 130.31 84.8703 130.362 84.2567C130.414 83.6431 131.372 83.072 131.372 82.4442Z"
            fill="white" />
    </g>
    <path
        d="M131.372 82.4442C131.372 83.0578 130.428 83.629 130.357 84.2331C130.286 84.8373 131.178 85.5594 131.079 86.1589C130.98 86.7583 129.942 87.1784 129.8 87.792C129.658 88.4056 130.395 89.2316 130.206 89.8074C130.017 90.3833 128.922 90.6334 128.686 91.1951C128.45 91.7568 129.054 92.7102 128.78 93.253C128.507 93.7958 127.364 93.8666 127.062 94.3906C126.76 94.9145 127.199 95.9387 126.841 96.4343C126.482 96.9299 125.368 96.8355 124.953 97.3028C124.537 97.7701 124.858 98.8557 124.433 99.2946C124.009 99.7336 122.918 99.4787 122.465 99.8846C122.012 100.291 122.149 101.409 121.667 101.773C121.186 102.136 120.143 101.74 119.633 102.079C119.123 102.419 119.114 103.543 118.585 103.849C118.057 104.156 117.075 103.613 116.527 103.882C115.98 104.152 115.815 105.261 115.248 105.497C114.682 105.733 113.785 105.053 113.204 105.251C112.624 105.45 112.317 106.521 111.722 106.667C111.128 106.814 110.335 106.04 109.731 106.158C109.126 106.276 108.683 107.3 108.079 107.38C107.474 107.46 106.781 106.578 106.167 106.615C105.553 106.653 104.982 107.616 104.369 107.616C103.755 107.616 103.174 106.672 102.57 106.615C101.966 106.559 101.258 107.456 100.659 107.38C100.059 107.304 99.5967 106.276 99.002 106.158C98.4073 106.04 97.586 106.823 97.0101 106.667C96.4343 106.512 96.1039 105.435 95.5281 105.251C94.9522 105.067 94.046 105.723 93.4843 105.492C92.9226 105.261 92.7527 104.152 92.2052 103.882C91.6577 103.613 90.6759 104.156 90.1473 103.849C89.6186 103.543 89.6045 102.433 89.0994 102.079C88.5944 101.725 87.5418 102.146 87.0651 101.768C86.5884 101.39 86.7206 100.276 86.2674 99.8799C85.8143 99.4834 84.7193 99.7289 84.2992 99.2899C83.8791 98.851 84.1717 97.7654 83.78 97.2981C83.3882 96.8308 82.2696 96.9252 81.892 96.4296C81.5144 95.934 81.9864 94.905 81.6701 94.3811C81.3539 93.8572 80.2541 93.7911 79.9568 93.2483C79.6594 92.7055 80.2777 91.7521 80.0465 91.1904C79.8152 90.6287 78.7154 90.3833 78.5266 89.8027C78.3378 89.2222 79.0789 88.3867 78.9373 87.7873C78.7957 87.1878 77.7478 86.7819 77.6534 86.1778C77.559 85.5736 78.4228 84.8656 78.3756 84.252C78.3284 83.6384 77.408 83.072 77.408 82.4442C77.408 81.8165 78.3756 81.2548 78.4228 80.6506C78.47 80.0465 77.6062 79.3243 77.7006 78.7249C77.795 78.1254 78.8429 77.7054 78.9845 77.1154C79.1261 76.5254 78.385 75.6994 78.5738 75.0999C78.7626 74.5005 79.8624 74.2739 80.0937 73.7122C80.325 73.1506 79.7255 72.2018 80.004 71.659C80.2825 71.1162 81.42 71.0407 81.7174 70.5215C82.0147 70.0023 81.5852 68.9686 81.9392 68.473C82.2932 67.9774 83.4118 68.0718 83.8272 67.6046C84.2426 67.1373 83.9216 66.0517 84.3464 65.6127C84.7712 65.1738 85.8615 65.4286 86.3194 65.0227C86.7772 64.6168 86.6309 63.4982 87.1123 63.1347C87.5937 62.7713 88.6416 63.163 89.1466 62.8232C89.6517 62.4834 89.6658 61.36 90.1945 61.0532C90.7231 60.7464 91.7049 61.2939 92.2524 61.0202C92.7999 60.7464 92.9651 59.6419 93.5315 59.4106C94.0979 59.1794 94.9947 59.8496 95.5753 59.6561C96.1558 59.4626 96.4626 58.3817 97.0574 58.2401C97.6521 58.0985 98.4498 58.8678 99.0492 58.7498C99.6486 58.6318 100.097 57.6076 100.706 57.5274C101.315 57.4471 102.004 58.3345 102.618 58.292C103.231 58.2495 103.798 57.2914 104.416 57.2914C105.034 57.2914 105.61 58.2354 106.214 58.292C106.818 58.3486 107.522 57.4518 108.102 57.5274C108.683 57.6029 109.164 58.6366 109.759 58.7498C110.354 58.8631 111.175 58.0843 111.751 58.2401C112.327 58.3958 112.657 59.4767 113.233 59.6561C113.809 59.8354 114.715 59.1841 115.277 59.4106C115.838 59.6372 116.013 60.7558 116.556 61.0202C117.098 61.2845 118.09 60.7464 118.614 61.0532C119.138 61.36 119.161 62.4692 119.661 62.8232C120.162 63.1772 121.219 62.7618 121.696 63.1347C122.172 63.5076 122.04 64.6262 122.493 65.0227C122.947 65.4192 124.042 65.1785 124.462 65.6127C124.882 66.047 124.594 67.1373 124.981 67.6046C125.368 68.0718 126.491 67.9822 126.869 68.473C127.246 68.9639 126.774 70.0023 127.091 70.5215C127.407 71.0407 128.53 71.1162 128.809 71.659C129.087 72.2018 128.483 73.1506 128.714 73.7122C128.946 74.2739 130.045 74.5194 130.234 75.0999C130.423 75.6805 129.682 76.5159 129.828 77.1154C129.975 77.7148 131.013 78.1207 131.107 78.7249C131.202 79.329 130.338 80.0418 130.385 80.6506C130.432 81.2595 131.372 81.8259 131.372 82.4442Z"
        stroke="#263238" stroke-linecap="round" stroke-linejoin="round" />
    <path
        d="M101.164 113.908C101.164 113.908 93.7722 115.956 88.4198 116.74C83.0673 117.523 79.768 117.528 78.6682 120.204C77.5685 122.88 68.5958 153.084 66.7078 156.704C64.8198 160.324 63.72 168.504 67.024 168.66C70.328 168.816 80.24 148.052 80.24 148.052L83.2278 153.716C83.2278 153.716 73.9482 182.82 74.104 184.08C74.2598 185.34 78.352 187.856 86.0598 188.484C93.7675 189.112 94.5558 188.956 99.9082 190.372C105.261 191.788 112.492 189.9 115.956 188.012C119.421 186.124 123.348 185.496 124.924 184.552C126.501 183.608 126.496 183.452 126.496 181.564C126.496 179.676 119.1 152.456 119.1 152.456L123.508 140.812C123.508 140.812 133.576 161.58 134.048 163.468C134.52 165.356 137.508 167.716 140.34 167.088C143.172 166.46 146.004 164.412 145.22 159.692C144.437 154.972 131.216 122.092 130.272 119.26C129.328 116.428 130.428 113.752 126.496 112.808C122.564 111.864 103.212 112.964 103.212 112.964L101.164 113.908Z"
        fill="#6E00D9" />
    <mask id="mask2_203_600" style="mask-type:luminance" maskUnits="userSpaceOnUse" x="64" y="112" width="82"
        height="79">
        <path
            d="M101.164 113.908C101.164 113.908 93.7722 115.956 88.4198 116.74C83.0673 117.523 79.768 117.528 78.6682 120.204C77.5685 122.88 68.5958 153.084 66.7078 156.704C64.8198 160.324 63.72 168.504 67.024 168.66C70.328 168.816 80.24 148.052 80.24 148.052L83.2278 153.716C83.2278 153.716 73.9482 182.82 74.104 184.08C74.2598 185.34 78.352 187.856 86.0598 188.484C93.7675 189.112 94.5558 188.956 99.9082 190.372C105.261 191.788 112.492 189.9 115.956 188.012C119.421 186.124 123.348 185.496 124.924 184.552C126.501 183.608 126.496 183.452 126.496 181.564C126.496 179.676 119.1 152.456 119.1 152.456L123.508 140.812C123.508 140.812 133.576 161.58 134.048 163.468C134.52 165.356 137.508 167.716 140.34 167.088C143.172 166.46 146.004 164.412 145.22 159.692C144.437 154.972 131.216 122.092 130.272 119.26C129.328 116.428 130.428 113.752 126.496 112.808C122.564 111.864 103.212 112.964 103.212 112.964L101.164 113.908Z"
            fill="white" />
    </mask>
    <g mask="url(#mask2_203_600)">
        <path opacity="0.3"
            d="M130.272 119.26C129.328 116.428 130.428 113.752 126.496 112.808C122.932 111.954 106.729 112.775 103.698 112.94L104.784 116.584C104.784 116.584 112.1 118 116.348 118C120.596 118 124.136 117.528 125.788 122.012C127.44 126.496 137.588 155.76 141.364 161.896C142.104 163.079 142.916 164.215 143.795 165.299C144.975 164.114 145.655 162.316 145.211 159.692C144.432 154.972 131.216 122.092 130.272 119.26Z"
            fill="black" />
        <path opacity="0.3"
            d="M124.924 184.552C126.496 183.608 126.496 183.452 126.496 181.564C126.496 179.676 119.1 152.456 119.1 152.456L123.319 141.307C122.106 139.533 120.308 136.625 120.516 135.308C120.734 133.322 120.839 131.326 120.832 129.328C120.832 129.328 119.652 136.88 116.348 141.128C113.044 145.376 96.288 147.264 88.028 147.264C83.7186 147.264 81.3398 147.778 80.5138 148.571L81.9675 151.323C85.3187 153.442 93.5221 156.477 102.66 157.884C111.798 159.291 116.584 177.944 118.236 180.54C119.888 183.136 114.696 187.148 111.392 187.62C108.088 188.092 103.604 185.732 99.12 186.204C94.636 186.676 92.512 189.036 91.096 186.676C89.68 184.316 90.624 178.652 89.208 181.248C87.792 183.844 87.32 186.912 85.668 186.912C84.4833 186.912 80.2683 186.789 77.5402 186.634C80.2698 187.679 83.1425 188.302 86.0598 188.484C93.7722 189.116 94.5558 188.956 99.9082 190.372C105.261 191.788 112.492 189.9 115.956 188.012C119.421 186.124 123.348 185.496 124.924 184.552Z"
            fill="black" />
        <path opacity="0.3"
            d="M81.5663 150.568L81.656 150.337C81.656 150.337 78.5172 145.546 78.8665 143.497C79.2158 141.449 78.824 135.7 78.824 135.7C78.824 135.7 74.576 151.748 72.688 154.816C70.8 157.884 65.372 166.616 65.372 166.616C65.372 166.616 65.3295 166.791 65.2635 167.088C65.5891 168.032 66.1508 168.622 67.024 168.66C70.328 168.82 80.24 148.052 80.24 148.052L81.5663 150.568Z"
            fill="black" />
    </g>
    <path
        d="M101.164 113.908C101.164 113.908 93.7722 115.956 88.4198 116.74C83.0673 117.523 79.768 117.528 78.6682 120.204C77.5685 122.88 68.5958 153.084 66.7078 156.704C64.8198 160.324 63.72 168.504 67.024 168.66C70.328 168.816 80.24 148.052 80.24 148.052L83.2278 153.716C83.2278 153.716 73.9482 182.82 74.104 184.08C74.2598 185.34 78.352 187.856 86.0598 188.484C93.7675 189.112 94.5558 188.956 99.9082 190.372C105.261 191.788 112.492 189.9 115.956 188.012C119.421 186.124 123.348 185.496 124.924 184.552C126.501 183.608 126.496 183.452 126.496 181.564C126.496 179.676 119.1 152.456 119.1 152.456L123.508 140.812C123.508 140.812 133.576 161.58 134.048 163.468C134.52 165.356 137.508 167.716 140.34 167.088C143.172 166.46 146.004 164.412 145.22 159.692C144.437 154.972 131.216 122.092 130.272 119.26C129.328 116.428 130.428 113.752 126.496 112.808C122.564 111.864 103.212 112.964 103.212 112.964L101.164 113.908Z"
        stroke="#263238" stroke-linecap="round" stroke-linejoin="round" />
    <path
        d="M123.508 140.812C123.508 140.812 120.832 137.508 120.516 135.308C120.2 133.109 123.192 125.08 123.192 125.08"
        stroke="#263238" stroke-linecap="round" stroke-linejoin="round" />
    <path d="M80.24 148.052C80.24 148.052 78.8665 145.404 78.8665 143.493C78.8665 141.581 81.4625 132.83 81.4625 132.83"
        stroke="#263238" stroke-linecap="round" stroke-linejoin="round" />
    <path
        d="M106.516 120.988C109.029 118.373 111.309 115.544 113.332 112.534C108.022 112.69 103.212 112.964 103.212 112.964L101.164 113.908C101.164 113.908 98.5206 114.639 95.2496 115.399C95.0655 117.991 94.6785 123.744 94.5558 126.968C94.4 131.216 94.2442 133.26 94.2442 133.26C94.2442 133.26 100.692 127.124 106.516 120.988Z"
        stroke="#263238" stroke-linecap="round" stroke-linejoin="round" />
    <path
        d="M70.8 155.132C70.8 155.132 68.912 167.088 67.024 168.66C65.136 170.232 62.1482 169.764 60.888 163.94C59.6278 158.115 60.888 156.704 62.9318 153.872C64.9755 151.04 70.0118 148.836 70.8 155.132Z"
        fill="#6E00D9" />
    <mask id="mask3_203_600" style="mask-type:luminance" maskUnits="userSpaceOnUse" x="60" y="151" width="11"
        height="19">
        <path
            d="M70.8 155.132C70.8 155.132 68.912 167.088 67.024 168.66C65.136 170.232 62.1482 169.764 60.888 163.94C59.6278 158.115 60.888 156.704 62.9318 153.872C64.9755 151.04 70.0118 148.836 70.8 155.132Z"
            fill="white" />
    </mask>
    <g mask="url(#mask3_203_600)">
        <path opacity="0.3"
            d="M70.8 155.132C70.8 155.132 68.912 167.088 67.024 168.66C65.136 170.232 62.1482 169.764 60.888 163.94C59.6278 158.115 60.888 156.704 62.9318 153.872C64.9755 151.04 70.0118 148.836 70.8 155.132Z"
            fill="black" />
    </g>
    <path
        d="M70.8 155.132C70.8 155.132 68.912 167.088 67.024 168.66C65.136 170.232 62.1482 169.764 60.888 163.94C59.6278 158.115 60.888 156.704 62.9318 153.872C64.9755 151.04 70.0118 148.836 70.8 155.132Z"
        stroke="#263238" stroke-linecap="round" stroke-linejoin="round" />
    <path
        d="M96.1322 102.108C96.1322 102.108 98.0202 108.716 97.8598 112.964C97.6993 117.212 96.6042 123.664 96.1322 126.652C95.6602 129.64 97.8598 127.596 102.896 121.148C107.932 114.701 109.348 112.808 109.66 110.604C109.971 108.4 109.976 102.424 109.976 102.424C109.132 103.228 108.092 103.796 106.96 104.072C105.828 104.348 104.643 104.322 103.524 103.996C99.592 102.896 97.0762 100.064 96.4438 100.064C95.8113 100.064 96.1322 102.108 96.1322 102.108Z"
        fill="white" />
    <mask id="mask4_203_600" style="mask-type:luminance" maskUnits="userSpaceOnUse" x="96" y="100" width="14"
        height="28">
        <path
            d="M96.1322 102.108C96.1322 102.108 98.0202 108.716 97.8598 112.964C97.6993 117.212 96.6042 123.664 96.1322 126.652C95.6602 129.64 97.8598 127.596 102.896 121.148C107.932 114.701 109.348 112.808 109.66 110.604C109.971 108.4 109.976 102.424 109.976 102.424C109.132 103.228 108.092 103.796 106.96 104.072C105.828 104.348 104.643 104.322 103.524 103.996C99.592 102.896 97.0762 100.064 96.4438 100.064C95.8113 100.064 96.1322 102.108 96.1322 102.108Z"
            fill="white" />
    </mask>
    <g mask="url(#mask4_203_600)">
        <path opacity="0.2"
            d="M103.524 103.996C99.592 102.896 97.0762 100.064 96.4438 100.064C95.8113 100.064 96.1322 102.108 96.1322 102.108C96.1322 102.108 96.5098 103.439 96.9158 105.284C98.8604 107.677 102.66 112.364 103.212 112.964C103.953 113.809 105.327 117.212 102.896 121.148C107.932 114.696 109.348 112.808 109.66 110.604C109.971 108.4 109.976 102.424 109.976 102.424C109.132 103.228 108.092 103.796 106.96 104.072C105.828 104.348 104.643 104.322 103.524 103.996Z"
            fill="#263238" />
    </g>
    <path
        d="M96.1322 102.108C96.1322 102.108 98.0202 108.716 97.8598 112.964C97.6993 117.212 96.6042 123.664 96.1322 126.652C95.6602 129.64 97.8598 127.596 102.896 121.148C107.932 114.701 109.348 112.808 109.66 110.604C109.971 108.4 109.976 102.424 109.976 102.424C109.132 103.228 108.092 103.796 106.96 104.072C105.828 104.348 104.643 104.322 103.524 103.996C99.592 102.896 97.0762 100.064 96.4438 100.064C95.8113 100.064 96.1322 102.108 96.1322 102.108Z"
        stroke="#263238" stroke-linecap="round" stroke-linejoin="round" />
    <path
        d="M94.4378 90.034C94.4378 90.034 92.6772 87.9761 91.4972 89.7414C90.3172 91.5066 93.8572 97.3878 94.8814 97.3878C95.9057 97.3878 95.4667 93.2719 95.4667 92.243C95.4667 91.214 94.4378 90.034 94.4378 90.034Z"
        fill="white" stroke="#263238" stroke-linecap="round" stroke-linejoin="round" />
    <path
        d="M114.88 91.653C114.88 91.653 116.641 89.595 117.821 91.3603C119.001 93.1256 115.461 99.0067 114.436 99.0067C113.412 99.0067 113.851 94.8862 113.851 93.8572C113.851 92.8282 114.88 91.653 114.88 91.653Z"
        fill="white" />
    <mask id="mask5_203_600" style="mask-type:luminance" maskUnits="userSpaceOnUse" x="113" y="90" width="6"
        height="10">
        <path
            d="M114.88 91.653C114.88 91.653 116.641 89.595 117.821 91.3603C119.001 93.1256 115.461 99.0067 114.436 99.0067C113.412 99.0067 113.851 94.8862 113.851 93.8572C113.851 92.8282 114.88 91.653 114.88 91.653Z"
            fill="white" />
    </mask>
    <g mask="url(#mask5_203_600)">
        <path opacity="0.2"
            d="M114.88 91.653C114.88 91.653 116.641 89.595 117.821 91.3603C119.001 93.1256 115.461 99.0067 114.436 99.0067C113.412 99.0067 113.851 94.8862 113.851 93.8572C113.851 92.8282 114.88 91.653 114.88 91.653Z"
            fill="#263238" />
    </g>
    <path
        d="M114.88 91.653C114.88 91.653 116.641 89.595 117.821 91.3603C119.001 93.1256 115.461 99.0067 114.436 99.0067C113.412 99.0067 113.851 94.8862 113.851 93.8572C113.851 92.8282 114.88 91.653 114.88 91.653Z"
        stroke="#263238" stroke-linecap="round" stroke-linejoin="round" />
    <path
        d="M110.085 75.6191C109.9 76.0675 109.773 76.6056 109.433 76.8038C108.905 77.1059 107.923 76.5631 107.375 76.8322C106.828 77.1012 106.663 78.2104 106.096 78.4464C105.53 78.6824 104.633 78.0074 104.052 78.201C103.472 78.3945 103.165 79.4706 102.57 79.617C101.976 79.7633 101.178 78.9845 100.578 79.1025C99.979 79.2205 99.5306 80.2494 98.9218 80.325C98.3129 80.4005 97.6238 79.5226 97.0102 79.5603C96.4815 79.5934 95.9718 80.3344 95.4431 80.5043C94.7493 82.3923 94.3339 84.9034 94.2914 88.2451C94.2914 88.2451 94.1451 97.9447 95.1741 100.593C96.203 103.241 101.645 108.093 103.552 108.385C105.459 108.678 106.346 108.093 107.229 107.21C108.112 106.327 113.837 101.622 114.432 99.71C115.026 97.7984 117.226 85.4509 116.49 81.335C116.041 78.824 113.313 76.7519 110.085 75.6191Z"
        fill="white" />
    <mask id="mask6_203_600" style="mask-type:luminance" maskUnits="userSpaceOnUse" x="94" y="75" width="23"
        height="34">
        <path
            d="M110.085 75.6191C109.9 76.0675 109.773 76.6056 109.433 76.8038C108.905 77.1059 107.923 76.5631 107.375 76.8322C106.828 77.1012 106.663 78.2104 106.096 78.4464C105.53 78.6824 104.633 78.0074 104.052 78.201C103.472 78.3945 103.165 79.4706 102.57 79.617C101.976 79.7633 101.178 78.9845 100.578 79.1025C99.979 79.2205 99.5306 80.2494 98.9218 80.325C98.3129 80.4005 97.6238 79.5226 97.0102 79.5603C96.4815 79.5934 95.9718 80.3344 95.4431 80.5043C94.7493 82.3923 94.3339 84.9034 94.2914 88.2451C94.2914 88.2451 94.1451 97.9447 95.1741 100.593C96.203 103.241 101.645 108.093 103.552 108.385C105.459 108.678 106.346 108.093 107.229 107.21C108.112 106.327 113.837 101.622 114.432 99.71C115.026 97.7984 117.226 85.4509 116.49 81.335C116.041 78.824 113.313 76.7519 110.085 75.6191Z"
            fill="white" />
    </mask>
    <g mask="url(#mask6_203_600)">
        <path opacity="0.2"
            d="M112.19 76.5395C112.874 77.7526 113.474 79.6689 113.214 82.5481C112.676 88.4481 113.077 93.1445 112.138 97.1801C111.198 101.216 107.989 105.624 106.191 106.62C104.392 107.616 102.212 107.371 99.795 106.03L99.6581 105.959C101.192 107.276 102.712 108.291 103.552 108.418C105.464 108.711 106.346 108.126 107.229 107.243C108.112 106.36 113.837 101.655 114.432 99.743C115.026 97.8314 117.226 85.4839 116.49 81.3681C116.145 79.4093 114.436 77.7242 112.19 76.5395Z"
            fill="#263238" />
    </g>
    <path
        d="M110.085 75.6191C109.9 76.0675 109.773 76.6056 109.433 76.8038C108.905 77.1059 107.923 76.5631 107.375 76.8322C106.828 77.1012 106.663 78.2104 106.096 78.4464C105.53 78.6824 104.633 78.0074 104.052 78.201C103.472 78.3945 103.165 79.4706 102.57 79.617C101.976 79.7633 101.178 78.9845 100.578 79.1025C99.979 79.2205 99.5306 80.2494 98.9218 80.325C98.3129 80.4005 97.6238 79.5226 97.0102 79.5603C96.4815 79.5934 95.9718 80.3344 95.4431 80.5043C94.7493 82.3923 94.3339 84.9034 94.2914 88.2451C94.2914 88.2451 94.1451 97.9447 95.1741 100.593C96.203 103.241 101.645 108.093 103.552 108.385C105.459 108.678 106.346 108.093 107.229 107.21C108.112 106.327 113.837 101.622 114.432 99.71C115.026 97.7984 117.226 85.4509 116.49 81.335C116.041 78.824 113.313 76.7519 110.085 75.6191Z"
        stroke="#263238" stroke-linecap="round" stroke-linejoin="round" />
    <path d="M105.025 96.7978C105.025 96.7978 107.229 97.0951 107.385 95.0372" stroke="#263238" stroke-linecap="round"
        stroke-linejoin="round" />
    <path
        d="M108.702 99.4457C108.702 99.4457 106.054 99.8846 101.494 98.563C101.494 98.563 102.084 102.094 104.435 102.679C106.785 103.264 108.702 99.4457 108.702 99.4457Z"
        stroke="#263238" stroke-linecap="round" stroke-linejoin="round" />
    <path
        d="M102.863 90.8694C102.835 91.719 102.485 92.4034 102.079 92.3893C101.674 92.3751 101.367 91.6718 101.395 90.8222C101.423 89.9726 101.773 89.2882 102.179 89.3024C102.584 89.3166 102.896 90.0151 102.863 90.8694Z"
        fill="#263238" />
    <path
        d="M101.008 89.5242C101.365 89.3583 101.76 89.2889 102.152 89.3229C102.545 89.3568 102.922 89.493 103.245 89.7178"
        stroke="#263238" stroke-linecap="round" stroke-linejoin="round" />
    <path
        d="M110.627 91.8937C110.538 92.7386 110.155 93.3946 109.735 93.3522C109.315 93.3097 109.079 92.5875 109.169 91.7379C109.259 90.8883 109.641 90.237 110.061 90.2794C110.481 90.3219 110.717 91.0441 110.627 91.8937Z"
        fill="#263238" />
    <path
        d="M108.886 90.421C109.253 90.2806 109.651 90.2394 110.04 90.3015C110.429 90.3636 110.794 90.527 111.099 90.775"
        stroke="#263238" stroke-linecap="round" stroke-linejoin="round" />
    <path d="M99.2711 86.612C100.024 86.1526 100.879 85.8856 101.76 85.8345C102.64 85.7835 103.52 85.95 104.321 86.3194"
        stroke="#263238" stroke-width="2" stroke-linecap="round" stroke-linejoin="round" />
    <path d="M108.499 87.1926C108.499 87.1926 110.826 85.6397 113.157 88.4575" stroke="#263238" stroke-width="2"
        stroke-linecap="round" stroke-linejoin="round" />
    <path
        d="M121.932 169.292C121.932 169.292 119.572 164.412 119.416 160.008C119.26 155.604 121.148 153.244 123.192 155.444C125.236 157.643 123.664 167.088 121.932 169.292Z"
        fill="#6E00D9" />
    <mask id="mask7_203_600" style="mask-type:luminance" maskUnits="userSpaceOnUse" x="119" y="154" width="6"
        height="16">
        <path
            d="M121.932 169.292C121.932 169.292 119.572 164.412 119.416 160.008C119.26 155.604 121.148 153.244 123.192 155.444C125.236 157.643 123.664 167.088 121.932 169.292Z"
            fill="white" />
    </mask>
    <g mask="url(#mask7_203_600)">
        <path opacity="0.3"
            d="M121.932 169.292C121.932 169.292 119.572 164.412 119.416 160.008C119.26 155.604 121.148 153.244 123.192 155.444C125.236 157.643 123.664 167.088 121.932 169.292Z"
            fill="black" />
    </g>
    <path
        d="M121.932 169.292C121.932 169.292 119.572 164.412 119.416 160.008C119.26 155.604 121.148 153.244 123.192 155.444C125.236 157.643 123.664 167.088 121.932 169.292Z"
        stroke="#263238" stroke-linecap="round" stroke-linejoin="round" />
    <path
        d="M140.028 154.028C140.028 154.028 129.484 154.028 123.664 151.828C117.844 149.629 112.652 146.476 109.976 143.96C107.3 141.444 106.356 140.812 103.212 140.5C100.069 140.189 97.704 138.452 97.704 139.556C97.704 140.661 98.648 141.444 99.592 141.916C100.536 142.388 103.996 143.96 103.996 143.96C103.996 143.96 104.312 144.748 101.008 145.376C97.7092 146.016 94.4911 147.018 91.4122 148.364C88.5802 149.624 87.6362 150.568 88.5802 150.884C89.5242 151.2 92.512 150.096 93.1398 150.096C93.7675 150.096 97.232 149.624 97.232 149.624C97.232 149.624 90.7798 152.456 89.8358 153.244C88.8918 154.032 86.2202 155.132 87.32 155.604C88.4198 156.076 92.984 155.288 92.984 155.288C92.984 155.288 88.264 156.704 90.152 157.332C92.04 157.96 95.9718 157.02 95.9718 157.02C95.9718 157.02 100.536 157.648 101.796 157.02C103.056 156.392 110.448 153.244 110.448 153.244C110.448 153.244 121.776 162.996 131.532 165.356C141.288 167.716 141.128 165.356 141.128 165.356"
        fill="white" />
    <mask id="mask8_203_600" style="mask-type:luminance" maskUnits="userSpaceOnUse" x="87" y="139" width="55"
        height="28">
        <path
            d="M140.028 154.028C140.028 154.028 129.484 154.028 123.664 151.828C117.844 149.629 112.652 146.476 109.976 143.96C107.3 141.444 106.356 140.812 103.212 140.5C100.069 140.189 97.704 138.452 97.704 139.556C97.704 140.661 98.648 141.444 99.592 141.916C100.536 142.388 103.996 143.96 103.996 143.96C103.996 143.96 104.312 144.748 101.008 145.376C97.7092 146.016 94.4911 147.018 91.4122 148.364C88.5802 149.624 87.6362 150.568 88.5802 150.884C89.5242 151.2 92.512 150.096 93.1398 150.096C93.7675 150.096 97.232 149.624 97.232 149.624C97.232 149.624 90.7798 152.456 89.8358 153.244C88.8918 154.032 86.2202 155.132 87.32 155.604C88.4198 156.076 92.984 155.288 92.984 155.288C92.984 155.288 88.264 156.704 90.152 157.332C92.04 157.96 95.9718 157.02 95.9718 157.02C95.9718 157.02 100.536 157.648 101.796 157.02C103.056 156.392 110.448 153.244 110.448 153.244C110.448 153.244 121.776 162.996 131.532 165.356C141.288 167.716 141.128 165.356 141.128 165.356"
            fill="white" />
    </mask>
    <g mask="url(#mask8_203_600)">
        <path opacity="0.2"
            d="M129.016 164.601C130.904 163.765 132.396 163.076 132.396 163.076L132.868 153.636C129.762 153.334 126.26 152.791 123.673 151.814C117.844 149.624 112.652 146.476 109.976 143.96C108.088 142.195 107.073 141.359 105.549 140.911C106.356 141.581 107.144 142.445 107.144 143.271C107.144 144.923 104.312 146.575 102.188 147.519L93.692 151.295C93.692 151.295 100.536 148.463 100.064 150.115C99.592 151.767 94.872 153.891 90.152 155.071C89.4364 155.249 88.7345 155.477 88.0516 155.755C89.7225 155.869 92.984 155.307 92.984 155.307C92.984 155.307 88.264 156.723 90.152 157.351C92.04 157.978 95.9718 157.039 95.9718 157.039C95.9718 157.039 100.536 157.667 101.796 157.039C103.056 156.411 110.448 153.263 110.448 153.263C110.448 153.263 119.93 161.424 129.016 164.601Z"
            fill="#263238" />
    </g>
    <path
        d="M140.028 154.028C140.028 154.028 129.484 154.028 123.664 151.828C117.844 149.629 112.652 146.476 109.976 143.96C107.3 141.444 106.356 140.812 103.212 140.5C100.069 140.189 97.704 138.452 97.704 139.556C97.704 140.661 98.648 141.444 99.592 141.916C100.536 142.388 103.996 143.96 103.996 143.96C103.996 143.96 104.312 144.748 101.008 145.376C97.7092 146.016 94.4911 147.018 91.4122 148.364C88.5802 149.624 87.6362 150.568 88.5802 150.884C89.5242 151.2 92.512 150.096 93.1398 150.096C93.7675 150.096 97.232 149.624 97.232 149.624C97.232 149.624 90.7798 152.456 89.8358 153.244C88.8918 154.032 86.2202 155.132 87.32 155.604C88.4198 156.076 92.984 155.288 92.984 155.288C92.984 155.288 88.264 156.704 90.152 157.332C92.04 157.96 95.9718 157.02 95.9718 157.02C95.9718 157.02 100.536 157.648 101.796 157.02C103.056 156.392 110.448 153.244 110.448 153.244C110.448 153.244 121.776 162.996 131.532 165.356C141.288 167.716 141.128 165.356 141.128 165.356"
        stroke="#263238" stroke-linecap="round" stroke-linejoin="round" />
    <path d="M92.984 155.288L98.5442 153.329" stroke="#263238" stroke-linecap="round" stroke-linejoin="round" />
    <path d="M95.9718 157.02L99.6392 156.062" stroke="#263238" stroke-linecap="round" stroke-linejoin="round" />
    <path
        d="M145.22 162.84C144.588 166.772 142.86 169.448 135.62 169.292C128.379 169.136 121.932 169.292 121.932 169.292C122.535 167.021 122.956 164.706 123.192 162.368C123.664 158.12 123.664 151.828 123.664 151.828C123.664 151.828 133.576 154.028 141.6 153.244"
        fill="#6E00D9" />
    <mask id="mask9_203_600" style="mask-type:luminance" maskUnits="userSpaceOnUse" x="121" y="151" width="25"
        height="19">
        <path
            d="M145.22 162.84C144.588 166.772 142.86 169.448 135.62 169.292C128.379 169.136 121.932 169.292 121.932 169.292C122.535 167.021 122.956 164.706 123.192 162.368C123.664 158.12 123.664 151.828 123.664 151.828C123.664 151.828 133.576 154.028 141.6 153.244"
            fill="white" />
    </mask>
    <g mask="url(#mask9_203_600)">
        <path opacity="0.3"
            d="M145.22 162.84C144.588 166.772 142.86 169.448 135.62 169.292C128.379 169.136 121.932 169.292 121.932 169.292C122.535 167.021 122.956 164.706 123.192 162.368C123.664 158.12 123.664 151.828 123.664 151.828C123.664 151.828 133.576 154.028 141.6 153.244"
            fill="black" />
    </g>
    <path
        d="M145.22 162.84C144.588 166.772 142.86 169.448 135.62 169.292C128.379 169.136 121.932 169.292 121.932 169.292C122.535 167.021 122.956 164.706 123.192 162.368C123.664 158.12 123.664 151.828 123.664 151.828C123.664 151.828 133.576 154.028 141.6 153.244"
        stroke="#263238" stroke-linecap="round" stroke-linejoin="round" />
    <path
        d="M71.744 132.632C71.744 132.632 70.8944 135.256 65.7638 144.904C61.4402 153.041 60.0998 156.548 60.0998 159.536C60.0998 162.524 62.776 165.988 66.7078 163.468C70.6395 160.947 71.8998 157.931 72.5417 153.527C73.1836 149.124 76.5678 134.619 76.5678 134.619C76.5678 134.619 75.52 131.06 71.744 132.632Z"
        fill="white" />
    <mask id="mask10_203_600" style="mask-type:luminance" maskUnits="userSpaceOnUse" x="60" y="132" width="17"
        height="33">
        <path
            d="M71.744 132.632C71.744 132.632 70.8944 135.256 65.7638 144.904C61.4402 153.041 60.0998 156.548 60.0998 159.536C60.0998 162.524 62.776 165.988 66.7078 163.468C70.6395 160.947 71.8998 157.931 72.5417 153.527C73.1836 149.124 76.5678 134.619 76.5678 134.619C76.5678 134.619 75.52 131.06 71.744 132.632Z"
            fill="white" />
    </mask>
    <g mask="url(#mask10_203_600)">
        <path opacity="0.2"
            d="M72.5417 153.527C73.1694 149.124 76.5678 134.619 76.5678 134.619C76.5678 134.619 75.8032 132.037 73.2638 132.259L72.3198 135.988C72.3198 135.988 68.912 154.108 65.608 158.828C65.0623 159.676 64.3477 160.402 63.5088 160.962C62.6699 161.521 61.7248 161.902 60.7322 162.08C61.747 164.02 63.9088 165.261 66.7078 163.468C70.6442 160.952 71.9139 157.931 72.5417 153.527Z"
            fill="#263238" />
    </g>
    <path
        d="M71.744 132.632C71.744 132.632 70.8944 135.256 65.7638 144.904C61.4402 153.041 60.0998 156.548 60.0998 159.536C60.0998 162.524 62.776 165.988 66.7078 163.468C70.6395 160.947 71.8998 157.931 72.5417 153.527C73.1836 149.124 76.5678 134.619 76.5678 134.619C76.5678 134.619 75.52 131.06 71.744 132.632Z"
        stroke="#263238" stroke-linecap="round" stroke-linejoin="round" />
    <path
        d="M73.3158 127.284C73.3158 127.284 67.968 127.284 67.3402 128.068C66.7125 128.851 66.7078 130.9 68.5958 130.9C70.4838 130.9 73.4762 130.744 74.4202 130.116C75.3642 129.488 74.897 126.996 73.3158 127.284Z"
        fill="white" stroke="#263238" stroke-linecap="round" stroke-linejoin="round" />
    <path
        d="M71.0785 135.837C71.0177 136.293 71.0722 136.757 71.2371 137.187C71.4021 137.616 71.6721 137.998 72.0225 138.296C73.2497 139.391 75.5767 138.707 75.166 138.027C74.7554 137.347 72.2963 135.974 72.2963 135.974L71.0785 135.837Z"
        fill="white" stroke="#263238" stroke-linecap="round" stroke-linejoin="round" />
    <path
        d="M70.8 133.42C70.8 133.42 69.856 134.992 70.4838 135.78C71.1115 136.568 72.8438 136.724 74.8922 136.252C76.9407 135.78 77.5638 133.576 75.8362 133.42C74.1586 133.334 72.4777 133.334 70.8 133.42Z"
        fill="white" stroke="#263238" stroke-linecap="round" stroke-linejoin="round" />
    <path
        d="M70.0118 130.9C70.0118 130.9 68.7562 131.688 69.2282 132.948C69.7002 134.208 71.744 134.204 74.2598 133.732C76.7755 133.26 76.7802 130.588 75.8362 130.428C74.8922 130.267 70.0118 130.9 70.0118 130.9Z"
        fill="white" stroke="#263238" stroke-linecap="round" stroke-linejoin="round" />
    <path
        d="M79.2157 141.444C77.4427 141.443 75.7428 140.738 74.4895 139.484C73.2362 138.229 72.5322 136.529 72.5322 134.756V124.452H85.904V134.756C85.904 135.634 85.731 136.504 85.3949 137.315C85.0588 138.127 84.5661 138.864 83.945 139.485C83.324 140.106 82.5867 140.599 81.7752 140.935C80.9638 141.271 80.0941 141.444 79.2157 141.444Z"
        fill="white" />
    <mask id="mask11_203_600" style="mask-type:luminance" maskUnits="userSpaceOnUse" x="72" y="124" width="14"
        height="18">
        <path
            d="M79.2157 141.444C77.4427 141.443 75.7428 140.738 74.4895 139.484C73.2362 138.229 72.5322 136.529 72.5322 134.756V124.452H85.904V134.756C85.904 135.634 85.731 136.504 85.3949 137.315C85.0588 138.127 84.5661 138.864 83.945 139.485C83.324 140.106 82.5867 140.599 81.7752 140.935C80.9638 141.271 80.0941 141.444 79.2157 141.444Z"
            fill="white" />
    </mask>
    <g mask="url(#mask11_203_600)">
        <path opacity="0.3"
            d="M81.0754 124.485V135.813C81.0754 135.813 80.5562 138.428 77.0682 139.117C76.1743 139.289 75.2636 139.357 74.3542 139.32C74.9764 139.987 75.7292 140.518 76.5655 140.881C77.4019 141.244 78.304 141.431 79.2158 141.43C80.9871 141.43 82.6862 140.727 83.9401 139.476C85.1939 138.225 85.9002 136.527 85.904 134.756V124.452H81.1085L81.0754 124.485Z"
            fill="black" />
    </g>
    <path
        d="M79.2157 141.444C77.4427 141.443 75.7428 140.738 74.4895 139.484C73.2362 138.229 72.5322 136.529 72.5322 134.756V124.452H85.904V134.756C85.904 135.634 85.731 136.504 85.3949 137.315C85.0588 138.127 84.5661 138.864 83.945 139.485C83.324 140.106 82.5867 140.599 81.7752 140.935C80.9638 141.271 80.0941 141.444 79.2157 141.444Z"
        stroke="#263238" stroke-linecap="round" stroke-linejoin="round" />
    <path d="M70.7198 109.169C71.3356 108.756 72.0795 108.578 72.8154 108.669" stroke="#263238" stroke-linecap="round"
        stroke-linejoin="round" />
    <path
        d="M76.346 123.664C76.346 123.664 77.205 121.564 75.199 119.175C73.6178 117.287 70.7764 117.014 69.2424 115.111C68.2276 113.856 68.4542 112.001 69.3415 110.599"
        stroke="#263238" stroke-linecap="round" stroke-linejoin="round" />
    <path
        d="M76.936 115.918C76.936 115.918 80.3722 116.778 81.42 119.638C82.4678 122.498 81.7079 123.551 81.7079 123.551"
        stroke="#263238" stroke-linecap="round" stroke-linejoin="round" />
    <path d="M22.3398 192.585H219.843" stroke="#263238" stroke-linecap="round" stroke-linejoin="round" />
    <path
        d="M201.747 105.308H155.675C153.915 105.308 152.489 106.734 152.489 108.494V196.635C152.489 198.395 153.915 199.821 155.675 199.821H201.747C203.507 199.821 204.933 198.395 204.933 196.635V108.494C204.933 106.734 203.507 105.308 201.747 105.308Z"
        fill="#263238" stroke="#263238" stroke-linecap="round" stroke-linejoin="round" />
    <path
        d="M199.316 105.308H153.244C151.485 105.308 150.058 106.734 150.058 108.494V196.635C150.058 198.395 151.485 199.821 153.244 199.821H199.316C201.076 199.821 202.502 198.395 202.502 196.635V108.494C202.502 106.734 201.076 105.308 199.316 105.308Z"
        fill="white" stroke="#263238" stroke-linecap="round" stroke-linejoin="round" />
    <path
        d="M179.903 110.953H173.375C173.197 110.953 173.027 110.882 172.901 110.757C172.775 110.631 172.705 110.461 172.705 110.283C172.706 110.105 172.777 109.936 172.902 109.81C173.028 109.685 173.198 109.614 173.375 109.613H179.903C180.081 109.613 180.251 109.683 180.377 109.809C180.502 109.935 180.573 110.105 180.573 110.283C180.574 110.371 180.557 110.458 180.523 110.54C180.49 110.622 180.44 110.696 180.378 110.758C180.316 110.82 180.242 110.87 180.16 110.903C180.078 110.937 179.991 110.954 179.903 110.953Z"
        fill="#263238" />
    <path
        d="M199.184 191.372H153.372V111.033H164.228L165.445 112.043C165.873 112.397 166.411 112.59 166.965 112.591H186.128C186.705 112.592 187.263 112.382 187.696 112.001L188.8 111.057H199.184V191.372Z"
        fill="#263238" />
    <mask id="mask12_203_600" style="mask-type:luminance" maskUnits="userSpaceOnUse" x="153" y="111" width="47"
        height="81">
        <path
            d="M199.184 191.372H153.372V111.033H164.228L165.445 112.043C165.873 112.397 166.411 112.59 166.965 112.591H186.128C186.705 112.592 187.263 112.382 187.696 112.001L188.8 111.057H199.184V191.372Z"
            fill="white" />
    </mask>
    <g mask="url(#mask12_203_600)">
        <path
            d="M186.976 152.018C192.828 146.166 192.828 136.677 186.976 130.825C181.124 124.972 171.635 124.972 165.783 130.825C159.93 136.677 159.93 146.166 165.783 152.018C171.635 157.871 181.124 157.871 186.976 152.018Z"
            stroke="#6E00D9" stroke-miterlimit="10" />
        <path
            d="M176.377 153.773C183.199 153.773 188.729 148.243 188.729 141.421C188.729 134.599 183.199 129.068 176.377 129.068C169.555 129.068 164.025 134.599 164.025 141.421C164.025 148.243 169.555 153.773 176.377 153.773Z"
            fill="#6E00D9" />
        <path
            d="M195.804 170.973C194.897 170.739 193.975 170.572 193.043 170.472C191.712 170.373 190.65 170.878 190.122 170.878C189.593 170.878 188.97 169.561 186.931 168.749C184.892 167.938 183.301 170.576 181.531 170.576C180.691 170.576 180.148 169.977 179.601 169.33C179.354 168.951 179.044 168.618 178.685 168.344C178.323 168.005 177.861 167.791 177.368 167.735C177.236 167.725 177.104 167.725 176.972 167.735C176.84 167.725 176.707 167.725 176.575 167.735C176.082 167.791 175.621 168.005 175.258 168.344C174.899 168.618 174.589 168.951 174.343 169.33C173.795 169.977 173.257 170.576 172.412 170.576C170.642 170.576 169.047 167.938 167.012 168.749C164.978 169.561 164.355 170.878 163.822 170.878C163.288 170.878 162.231 170.373 160.9 170.472C159.969 170.572 159.046 170.739 158.139 170.973C159.046 171.208 159.968 171.375 160.9 171.473C162.231 171.577 163.293 171.067 163.822 171.067C164.35 171.067 164.973 172.389 167.012 173.2C169.052 174.012 170.642 171.374 172.412 171.374C173.257 171.374 173.795 171.968 174.343 172.62C174.591 172.996 174.9 173.328 175.258 173.602C175.622 173.94 176.083 174.154 176.575 174.215C176.707 174.224 176.84 174.224 176.972 174.215C177.104 174.225 177.236 174.225 177.368 174.215C177.861 174.154 178.322 173.94 178.685 173.602C179.043 173.328 179.353 172.996 179.601 172.62C180.148 171.968 180.691 171.374 181.531 171.374C183.301 171.374 184.897 174.012 186.931 173.2C188.965 172.389 189.588 171.067 190.122 171.067C190.655 171.067 191.712 171.577 193.043 171.473C193.975 171.376 194.898 171.208 195.804 170.973Z"
            fill="#6E00D9" />
        <path opacity="0.7"
            d="M193.737 170.968C193.191 170.815 192.634 170.704 192.071 170.637C191.273 170.571 190.655 170.906 190.31 170.906C189.966 170.906 189.617 170.033 188.389 169.49C187.162 168.948 186.204 170.704 185.137 170.704C184.628 170.704 184.302 170.307 183.971 169.878C183.824 169.63 183.638 169.408 183.419 169.221C183.208 169.001 182.929 168.86 182.626 168.82C182.546 168.813 182.466 168.813 182.386 168.82C182.195 168.811 182.004 168.843 181.826 168.913C181.649 168.984 181.489 169.093 181.357 169.231C181.138 169.418 180.951 169.64 180.804 169.887C180.474 170.316 180.148 170.713 179.638 170.713C179.177 170.648 178.745 170.447 178.397 170.137C178.096 169.876 177.757 169.661 177.392 169.5C177.233 169.43 177.06 169.396 176.887 169.401C176.715 169.396 176.544 169.43 176.386 169.5C176.022 169.661 175.683 169.876 175.381 170.137C175.032 170.448 174.598 170.649 174.135 170.713C173.63 170.713 173.304 170.316 172.974 169.887C172.827 169.64 172.64 169.418 172.422 169.231C172.21 169.011 171.931 168.87 171.629 168.83C171.549 168.823 171.468 168.823 171.388 168.83C171.308 168.823 171.227 168.823 171.147 168.83C170.845 168.87 170.566 169.011 170.354 169.231C170.137 169.418 169.952 169.64 169.807 169.887C169.476 170.316 169.151 170.713 168.641 170.713C167.574 170.713 166.616 168.962 165.389 169.5C164.162 170.038 163.784 170.916 163.468 170.916C163.152 170.916 162.524 170.581 161.707 170.647C161.144 170.714 160.587 170.824 160.041 170.977C160.586 171.133 161.144 171.243 161.707 171.308C162.505 171.378 163.147 171.039 163.468 171.039C163.789 171.039 164.162 171.917 165.389 172.455C166.616 172.993 167.574 171.242 168.641 171.242C169.151 171.242 169.476 171.638 169.807 172.068C169.951 172.314 170.136 172.534 170.354 172.719C170.567 172.938 170.845 173.081 171.147 173.125C171.227 173.129 171.308 173.129 171.388 173.125C171.468 173.13 171.548 173.13 171.629 173.125C171.93 173.081 172.209 172.938 172.422 172.719C172.641 172.535 172.828 172.314 172.974 172.068C173.304 171.638 173.63 171.242 174.135 171.242C174.599 171.302 175.034 171.503 175.381 171.817C175.683 172.079 176.022 172.293 176.386 172.455C176.544 172.524 176.715 172.556 176.887 172.549C177.06 172.556 177.233 172.524 177.392 172.455C177.758 172.294 178.097 172.077 178.397 171.813C178.744 171.502 179.177 171.303 179.638 171.242C180.148 171.242 180.474 171.638 180.804 172.068C180.95 172.314 181.137 172.535 181.357 172.719C181.568 172.939 181.847 173.082 182.15 173.125C182.228 173.13 182.307 173.13 182.386 173.125C182.466 173.13 182.546 173.13 182.626 173.125C182.928 173.082 183.208 172.939 183.419 172.719C183.639 172.535 183.826 172.314 183.971 172.068C184.302 171.638 184.628 171.242 185.137 171.242C186.204 171.242 187.162 172.993 188.389 172.455C189.617 171.917 189.989 171.039 190.31 171.039C190.631 171.039 191.254 171.378 192.071 171.308C192.634 171.243 193.192 171.133 193.737 170.977V170.968Z"
            fill="white" />
        <g clip-path="url(#clip0_203_600)">
            <path
                d="M176 148.5C175.114 148.5 174.236 148.325 173.417 147.986C172.598 147.647 171.854 147.15 171.227 146.523C170.6 145.896 170.103 145.152 169.764 144.333C169.425 143.514 169.25 142.637 169.25 141.75C169.25 140.864 169.425 139.986 169.764 139.167C170.103 138.348 170.6 137.604 171.227 136.977C171.854 136.35 172.598 135.853 173.417 135.514C174.236 135.175 175.114 135 176 135C177.79 135 179.507 135.711 180.773 136.977C182.039 138.243 182.75 139.96 182.75 141.75C182.75 143.54 182.039 145.257 180.773 146.523C179.507 147.789 177.79 148.5 176 148.5ZM176.75 141.75V138H175.25V143.25H179V141.75H176.75ZM168.31 136.712L170.961 134.06L172.023 135.121L169.37 137.773L168.31 136.712ZM181.038 134.06L183.69 136.712L182.629 137.773L179.977 135.121L181.038 134.06H181.038Z"
                fill="black" />
        </g>
        <path opacity="0.3"
            d="M199.184 156.534V111.033H188.8L187.696 111.977C187.263 112.359 186.705 112.569 186.128 112.567H166.965C166.411 112.566 165.873 112.373 165.445 112.02L164.256 111.033H153.683L199.184 156.534Z"
            fill="white" />
    </g>
    <path
        d="M199.184 191.372H153.372V111.033H164.228L165.445 112.043C165.873 112.397 166.411 112.59 166.965 112.591H186.128C186.705 112.592 187.263 112.382 187.696 112.001L188.8 111.057H199.184V191.372Z"
        stroke="#263238" stroke-linecap="round" stroke-linejoin="round" />
    <path
        d="M177.741 193.85C177.741 193.644 177.68 193.442 177.565 193.27C177.45 193.099 177.287 192.965 177.096 192.886C176.905 192.807 176.695 192.787 176.493 192.828C176.29 192.868 176.104 192.968 175.959 193.114C175.813 193.261 175.714 193.447 175.674 193.65C175.635 193.852 175.656 194.062 175.736 194.253C175.815 194.443 175.95 194.606 176.122 194.72C176.294 194.834 176.496 194.894 176.703 194.894C176.839 194.894 176.975 194.866 177.101 194.814C177.227 194.762 177.342 194.685 177.439 194.588C177.535 194.491 177.611 194.376 177.663 194.249C177.715 194.123 177.742 193.987 177.741 193.85Z"
        fill="#263238" />
    <defs>
        <clipPath id="clip0_203_600">
            <rect width="18" height="18" fill="white" transform="translate(167 132)" />
        </clipPath>
    </defs>
</svg>